<svg width="11" height="12" viewBox="0 0 11 12" fill="none" xmlns="http://www.w3.org/2000/svg">
<path d="M0.392857 2.35714H1.17857V10.4029C1.17961 10.7693 1.32563 11.1204 1.58475 11.3795C1.84386 11.6387 2.19499 11.7847 2.56143 11.7857H8.45429C8.81799 11.7806 9.16511 11.6327 9.42084 11.3741C9.67657 11.1154 9.82043 10.7666 9.82143 10.4029V2.35714H10.6071C10.7113 2.35714 10.8113 2.31575 10.8849 2.24208C10.9586 2.1684 11 2.06848 11 1.96429C11 1.86009 10.9586 1.76017 10.8849 1.68649C10.8113 1.61282 10.7113 1.57143 10.6071 1.57143H7.85714V0.785714C7.85721 0.580689 7.77713 0.38376 7.634 0.236961C7.49087 0.0901633 7.29603 0.00512562 7.09107 0H3.92857C3.72019 0 3.52034 0.0827804 3.37299 0.23013C3.22564 0.37748 3.14286 0.57733 3.14286 0.785714V1.57143H0.392857C0.288665 1.57143 0.18874 1.61282 0.115065 1.68649C0.0413902 1.76017 0 1.86009 0 1.96429C0 2.06848 0.0413902 2.1684 0.115065 2.24208C0.18874 2.31575 0.288665 2.35714 0.392857 2.35714ZM3.92857 0.785714H7.07143V1.57143H3.92857V0.785714ZM3.14286 2.35714H9.03571V10.4029C9.03571 10.5612 8.9728 10.7131 8.86082 10.8251C8.74883 10.9371 8.59694 11 8.43857 11H2.54571C2.39008 10.9959 2.2422 10.9312 2.13359 10.8196C2.02498 10.7081 1.96423 10.5585 1.96429 10.4029V2.35714H3.14286Z" fill="#939393"/>
<path d="M4.19559 9.42969C4.29978 9.42969 4.39971 9.3883 4.47338 9.31462C4.54706 9.24095 4.58845 9.14102 4.58845 9.03683V4.32254C4.58845 4.21835 4.54706 4.11843 4.47338 4.04475C4.39971 3.97108 4.29978 3.92969 4.19559 3.92969C4.0914 3.92969 3.99147 3.97108 3.9178 4.04475C3.84412 4.11843 3.80273 4.21835 3.80273 4.32254V9.03683C3.80273 9.14102 3.84412 9.24095 3.9178 9.31462C3.99147 9.3883 4.0914 9.42969 4.19559 9.42969Z" fill="#939393"/>
<path d="M6.80301 9.42969C6.90721 9.42969 7.00713 9.3883 7.08081 9.31462C7.15448 9.24095 7.19587 9.14102 7.19587 9.03683V4.32254C7.19587 4.21835 7.15448 4.11843 7.08081 4.04475C7.00713 3.97108 6.90721 3.92969 6.80301 3.92969C6.69882 3.92969 6.5989 3.97108 6.52522 4.04475C6.45155 4.11843 6.41016 4.21835 6.41016 4.32254V9.03683C6.41016 9.14102 6.45155 9.24095 6.52522 9.31462C6.5989 9.3883 6.69882 9.42969 6.80301 9.42969Z" fill="#939393"/>
</svg>
