<svg width="7" height="157" viewBox="0 0 7 157" fill="none" xmlns="http://www.w3.org/2000/svg">
<path d="M3.254 146.543C3.254 146.357 3.31933 146.198 3.45 146.067C3.58067 145.937 3.73933 145.871 3.926 145.871C4.11267 145.871 4.27133 145.937 4.402 146.067C4.53267 146.198 4.598 146.357 4.598 146.543L4.598 153.795C4.598 153.982 4.53267 154.141 4.402 154.271C4.27133 154.402 4.11267 154.467 3.926 154.467C3.73933 154.467 3.58067 154.402 3.45 154.271C3.31933 154.141 3.254 153.982 3.254 153.795L3.254 146.543ZM3.926 156.819C3.57133 156.819 3.21667 156.763 2.862 156.651C2.498 156.53 2.17133 156.357 1.882 156.133C1.58333 155.909 1.34067 155.639 1.154 155.321C0.967333 155.004 0.874 154.645 0.874 154.243L0.873999 146.221C0.873999 146.035 0.939333 145.876 1.07 145.745C1.20067 145.615 1.35933 145.549 1.546 145.549C1.73267 145.549 1.89133 145.615 2.022 145.745C2.15267 145.876 2.218 146.035 2.218 146.221L2.218 153.949C2.218 154.257 2.26933 154.509 2.372 154.705C2.47467 154.901 2.61 155.055 2.778 155.167C2.93667 155.279 3.10933 155.359 3.296 155.405C3.48267 155.443 3.66 155.466 3.828 155.475L6.306 155.475C6.49267 155.475 6.65133 155.541 6.782 155.671C6.91267 155.802 6.978 155.961 6.978 156.147C6.978 156.334 6.91267 156.493 6.782 156.623C6.65133 156.754 6.49267 156.819 6.306 156.819L3.926 156.819ZM5.634 129.473C5.634 129.156 5.578 128.895 5.466 128.689C5.34467 128.484 5.2 128.325 5.032 128.213C4.864 128.092 4.682 128.013 4.486 127.975C4.28067 127.929 4.094 127.905 3.926 127.905C3.758 127.905 3.576 127.929 3.38 127.975C3.17467 128.013 2.988 128.092 2.82 128.213C2.652 128.325 2.512 128.484 2.4 128.689C2.27867 128.895 2.218 129.156 2.218 129.473L2.218 135.129C2.218 135.456 2.27867 135.722 2.4 135.927C2.512 136.123 2.652 136.282 2.82 136.403C2.988 136.515 3.17467 136.595 3.38 136.641C3.576 136.679 3.758 136.697 3.926 136.697C4.094 136.697 4.28067 136.679 4.486 136.641C4.682 136.595 4.864 136.515 5.032 136.403C5.2 136.282 5.34467 136.123 5.466 135.927C5.578 135.722 5.634 135.456 5.634 135.129L5.634 129.473ZM3.926 126.603C4.28067 126.603 4.64 126.664 5.004 126.785C5.35867 126.897 5.68533 127.065 5.984 127.289C6.27333 127.513 6.51133 127.784 6.698 128.101C6.88467 128.419 6.978 128.778 6.978 129.179L6.978 135.563C6.95933 135.946 6.85667 136.287 6.67 136.585C6.474 136.884 6.23133 137.141 5.942 137.355C5.65267 137.561 5.33067 137.719 4.976 137.831C4.62133 137.943 4.27133 137.999 3.926 137.999C3.57133 137.999 3.21667 137.943 2.862 137.831C2.498 137.71 2.17133 137.537 1.882 137.313C1.58333 137.089 1.34067 136.819 1.154 136.501C0.967332 136.184 0.873999 135.825 0.873999 135.423L0.873999 129.039C0.892665 128.657 0.999998 128.316 1.196 128.017C1.38267 127.719 1.62067 127.467 1.91 127.261C2.19933 127.047 2.52133 126.883 2.876 126.771C3.23067 126.659 3.58067 126.603 3.926 126.603ZM6.978 117.124C6.978 117.386 6.93133 117.633 6.838 117.866C6.73533 118.1 6.6 118.305 6.432 118.482C6.264 118.65 6.068 118.786 5.844 118.888C5.62 118.991 5.37733 119.042 5.116 119.042L1.546 119.043C1.35933 119.043 1.20066 118.977 1.07 118.847C0.939331 118.716 0.873998 118.557 0.873998 118.371C0.873998 118.193 0.939331 118.039 1.07 117.908C1.20066 117.768 1.35933 117.698 1.546 117.698L5.116 117.698C5.256 117.698 5.37733 117.647 5.48 117.544C5.58266 117.432 5.634 117.306 5.634 117.166L5.634 108.766C5.634 108.58 5.69933 108.421 5.83 108.29C5.96066 108.16 6.11933 108.094 6.306 108.094C6.49266 108.094 6.65133 108.16 6.782 108.29C6.91266 108.421 6.978 108.58 6.978 108.766L6.978 117.124ZM6.978 98.6188C6.978 98.8801 6.93133 99.1275 6.838 99.3608C6.73533 99.5941 6.6 99.7995 6.432 99.9768C6.264 100.145 6.068 100.28 5.844 100.383C5.62 100.485 5.37733 100.537 5.116 100.537L1.546 100.537C1.35933 100.537 1.20066 100.471 1.07 100.341C0.939331 100.21 0.873997 100.051 0.873997 99.8648C0.873997 99.6875 0.939331 99.5335 1.07 99.4028C1.20066 99.2628 1.35933 99.1928 1.546 99.1928L5.116 99.1928C5.256 99.1928 5.37733 99.1415 5.48 99.0388C5.58266 98.9268 5.634 98.8008 5.634 98.6608L5.634 90.2608C5.634 90.0741 5.69933 89.9155 5.83 89.7848C5.96066 89.6541 6.11933 89.5888 6.306 89.5888C6.49266 89.5888 6.65133 89.6541 6.782 89.7848C6.91266 89.9155 6.978 90.0741 6.978 90.2608L6.978 98.6188ZM5.634 73.8606C5.634 73.5432 5.578 73.2819 5.466 73.0766C5.34466 72.8712 5.2 72.7126 5.032 72.6006C4.864 72.4792 4.682 72.3999 4.486 72.3626C4.28066 72.3159 4.094 72.2926 3.926 72.2926C3.758 72.2926 3.576 72.3159 3.38 72.3626C3.17466 72.3999 2.988 72.4792 2.82 72.6006C2.652 72.7126 2.512 72.8712 2.4 73.0766C2.27866 73.2819 2.218 73.5432 2.218 73.8606L2.218 79.5166C2.218 79.8432 2.27866 80.1092 2.4 80.3146C2.512 80.5106 2.652 80.6692 2.82 80.7906C2.988 80.9026 3.17466 80.9819 3.38 81.0286C3.576 81.0659 3.758 81.0846 3.926 81.0846C4.094 81.0846 4.28066 81.0659 4.486 81.0286C4.682 80.9819 4.864 80.9026 5.032 80.7906C5.2 80.6692 5.34466 80.5106 5.466 80.3146C5.578 80.1092 5.634 79.8432 5.634 79.5166L5.634 73.8606ZM3.926 70.9906C4.28066 70.9906 4.64 71.0512 5.004 71.1726C5.35866 71.2846 5.68533 71.4526 5.984 71.6766C6.27333 71.9006 6.51133 72.1712 6.698 72.4886C6.88466 72.8059 6.978 73.1652 6.978 73.5666L6.978 79.9506C6.95933 80.3332 6.85666 80.6739 6.67 80.9726C6.474 81.2712 6.23133 81.5279 5.942 81.7426C5.65266 81.9479 5.33066 82.1066 4.976 82.2186C4.62133 82.3306 4.27133 82.3866 3.926 82.3866C3.57133 82.3866 3.21666 82.3306 2.862 82.2186C2.498 82.0972 2.17133 81.9246 1.882 81.7006C1.58333 81.4766 1.34066 81.2059 1.154 80.8886C0.96733 80.5712 0.873997 80.2119 0.873997 79.8106L0.873996 73.4266C0.892663 73.0439 0.999996 72.7032 1.196 72.4046C1.38266 72.1059 1.62066 71.8539 1.91 71.6486C2.19933 71.4339 2.52133 71.2706 2.876 71.1586C3.23066 71.0466 3.58066 70.9906 3.926 70.9906ZM1.546 63.4297C1.35933 63.4297 1.20066 63.3644 1.07 63.2337C0.939329 63.103 0.873996 62.9444 0.873996 62.7577C0.873996 62.571 0.939329 62.4124 1.07 62.2817C1.20066 62.151 1.35933 62.0857 1.546 62.0857L3.926 62.0857C4.094 62.0857 4.28066 62.067 4.486 62.0297C4.682 61.983 4.864 61.9037 5.032 61.7917C5.2 61.6704 5.34466 61.5117 5.466 61.3157C5.578 61.1104 5.634 60.8444 5.634 60.5177L5.634 57.2697C5.37266 57.419 5.09733 57.531 4.808 57.6057C4.50933 57.6804 4.21533 57.7177 3.926 57.7177L1.546 57.7177C1.35933 57.7177 1.20066 57.6524 1.07 57.5217C0.939329 57.391 0.873996 57.2324 0.873996 57.0457C0.873996 56.859 0.939329 56.7004 1.07 56.5697C1.20066 56.439 1.35933 56.3737 1.546 56.3737L3.926 56.3737C4.094 56.3737 4.276 56.355 4.472 56.3177C4.668 56.271 4.85466 56.1964 5.032 56.0937C5.2 55.9817 5.34466 55.8324 5.466 55.6457C5.578 55.4497 5.634 55.2024 5.634 54.9037L5.634 53.5737C5.634 53.2564 5.578 52.995 5.466 52.7897C5.34466 52.5844 5.2 52.4257 5.032 52.3137C4.864 52.1924 4.682 52.113 4.486 52.0757C4.28066 52.029 4.094 52.0057 3.926 52.0057L1.546 52.0057C1.35933 52.0057 1.20066 51.9404 1.06999 51.8097C0.939329 51.679 0.873995 51.5204 0.873995 51.3337C0.873995 51.147 0.939328 50.9884 1.06999 50.8577C1.20066 50.727 1.35933 50.6617 1.54599 50.6617L3.926 50.6617C4.28066 50.6617 4.64 50.7223 5.004 50.8437C5.35866 50.9557 5.68533 51.1237 5.984 51.3477C6.27333 51.5717 6.51133 51.8424 6.698 52.1597C6.88466 52.477 6.978 52.8364 6.978 53.2377L6.978 60.9937C6.978 61.3764 6.88466 61.717 6.698 62.0157C6.51133 62.3144 6.27333 62.571 5.984 62.7857C5.68533 62.991 5.354 63.1497 4.99 63.2617C4.626 63.3737 4.27133 63.4297 3.926 63.4297L1.546 63.4297ZM3.92599 29.2989C4.09399 29.2989 4.28066 29.2802 4.48599 29.2429C4.68199 29.1962 4.86399 29.1169 5.03199 29.0049C5.19999 28.8836 5.34466 28.7249 5.46599 28.5289C5.57799 28.3236 5.63399 28.0576 5.63399 27.7309L5.63399 22.1589C5.63399 21.8416 5.57799 21.5802 5.46599 21.3749C5.34466 21.1696 5.19999 21.0109 5.03199 20.8989C4.86399 20.7776 4.68199 20.6982 4.48599 20.6609C4.28066 20.6142 4.09399 20.5909 3.92599 20.5909L1.55999 20.5909C1.37333 20.5909 1.21466 20.5256 1.08399 20.3949C0.953327 20.2642 0.887994 20.1056 0.887994 19.9189C0.887994 19.7322 0.953327 19.5736 1.08399 19.4429C1.21466 19.3122 1.37333 19.2469 1.55999 19.2469L3.92599 19.2469C4.28066 19.2469 4.63999 19.3076 5.00399 19.4289C5.35866 19.5409 5.68533 19.7089 5.98399 19.9329C6.27333 20.1569 6.51133 20.4276 6.69799 20.7449C6.88466 21.0622 6.97799 21.4216 6.97799 21.8229L6.97799 28.2069C6.95933 28.5896 6.85666 28.9302 6.66999 29.2289C6.47399 29.5276 6.23133 29.7842 5.94199 29.9989C5.65266 30.2042 5.33066 30.3629 4.97599 30.4749C4.62133 30.5869 4.27133 30.6429 3.92599 30.6429L1.55999 30.6429C1.37333 30.6429 1.21466 30.5776 1.08399 30.4469C0.953328 30.3162 0.887994 30.1576 0.887994 29.9709C0.887994 29.7842 0.953328 29.6256 1.08399 29.4949C1.21466 29.3642 1.37333 29.2989 1.55999 29.2989L3.92599 29.2989ZM4.59799 9.82402C4.59799 10.0853 4.55133 10.328 4.45799 10.552C4.35533 10.776 4.21999 10.972 4.05199 11.14C3.88399 11.308 3.68799 11.4433 3.46399 11.546C3.23999 11.6393 2.99733 11.686 2.73599 11.686C2.47466 11.686 2.23199 11.6393 2.00799 11.546C1.78399 11.4433 1.58799 11.308 1.41999 11.14C1.25199 10.972 1.12133 10.776 1.02799 10.552C0.925327 10.328 0.873994 10.0853 0.873993 9.82402L0.873993 1.32602C0.873993 1.13935 0.939326 0.980682 1.06999 0.850016C1.20066 0.719349 1.35933 0.654016 1.54599 0.654016C1.73266 0.654016 1.89133 0.719349 2.02199 0.850016C2.15266 0.980682 2.21799 1.13935 2.21799 1.32602L2.21799 9.85202C2.21799 9.99202 2.26933 10.118 2.37199 10.23C2.46533 10.3327 2.58666 10.384 2.73599 10.384C2.87599 10.384 2.99733 10.3327 3.09999 10.23C3.20266 10.118 3.25399 9.99202 3.25399 9.85202L3.25399 2.11002C3.25399 1.84868 3.30533 1.60602 3.40799 1.38202C3.50133 1.14868 3.63199 0.948016 3.79999 0.780016C3.96799 0.612016 4.16866 0.481349 4.40199 0.388016C4.62599 0.285349 4.86866 0.234016 5.12999 0.234016C5.39133 0.234016 5.63399 0.285349 5.85799 0.388016C6.08199 0.481349 6.27799 0.612016 6.44599 0.780016C6.61399 0.948016 6.74466 1.14868 6.83799 1.38202C6.93133 1.60602 6.97799 1.84868 6.97799 2.11002L6.97799 10.594C6.97799 10.7807 6.91266 10.9393 6.78199 11.07C6.65133 11.2007 6.49266 11.266 6.30599 11.266C6.11933 11.266 5.96066 11.2007 5.82999 11.07C5.69933 10.9393 5.63399 10.7807 5.63399 10.594L5.63399 2.05402C5.63399 1.91402 5.58733 1.79268 5.49399 1.69002C5.39133 1.58735 5.26999 1.53602 5.12999 1.53602C4.98066 1.53602 4.85466 1.58735 4.75199 1.69002C4.64933 1.79268 4.59799 1.91402 4.59799 2.05402L4.59799 9.82402Z" fill="black"/>
</svg>
