<svg width="11" height="11" viewBox="0 0 11 11" fill="none" xmlns="http://www.w3.org/2000/svg">
<path d="M10.3928 3.47212C10.3853 3.06438 10.3084 2.6609 10.1656 2.27894C10.0387 1.95199 9.84508 1.65511 9.59697 1.40729C9.34885 1.15947 9.05174 0.966162 8.72464 0.839737C8.34264 0.69702 7.93918 0.620172 7.53146 0.612464C7.00419 0.58576 6.83714 0.580078 5.50135 0.580078C4.16555 0.580078 3.99851 0.58576 3.47408 0.609055C3.06634 0.616598 2.66285 0.693452 2.28089 0.836328C1.95192 0.959581 1.654 1.15354 1.40817 1.40451C1.15801 1.65012 0.964154 1.94711 0.839986 2.27496C0.69728 2.65697 0.620431 3.06043 0.612713 3.46815C0.587713 3.99712 0.582031 4.16417 0.582031 5.49996C0.582031 6.83576 0.587713 7.00053 0.611009 7.52724C0.618529 7.93498 0.695383 8.33846 0.838281 8.72042C0.964905 9.0472 1.1583 9.34398 1.40611 9.59179C1.65392 9.8396 1.9507 10.033 2.27749 10.1596C2.65949 10.3023 3.06295 10.3792 3.47067 10.3869C3.9951 10.4102 4.16271 10.4159 5.49794 10.4159C6.83317 10.4159 7.00078 10.4102 7.52521 10.3869C7.93295 10.3794 8.33644 10.3025 8.71839 10.1596C9.04529 10.0332 9.34216 9.83985 9.58999 9.59202C9.83783 9.34418 10.0312 9.04731 10.1576 8.72042C10.3003 8.3384 10.3771 7.93495 10.3849 7.52724C10.4082 7.00281 10.4138 6.83519 10.4138 5.49996C10.4138 4.16474 10.4138 3.99712 10.3888 3.47269L10.3928 3.47212ZM9.50646 7.48917C9.50288 7.80109 9.44521 8.11003 9.33601 8.40224C9.25402 8.61445 9.12857 8.80717 8.96771 8.96803C8.80685 9.12889 8.61413 9.25434 8.40192 9.33633C8.10966 9.44535 7.80076 9.50302 7.48885 9.50678C6.9701 9.53008 6.81442 9.53576 5.50021 9.53576C4.18601 9.53576 4.02976 9.53008 3.51158 9.50678C3.19965 9.50324 2.8907 9.44556 2.59851 9.33633C2.38507 9.25795 2.19204 9.1325 2.03374 8.96928C1.87094 8.81064 1.74555 8.6177 1.66669 8.40451C1.55768 8.11225 1.50001 7.80335 1.49624 7.49144C1.47294 6.97269 1.46726 6.81701 1.46726 5.50281C1.46726 4.1886 1.47294 4.03235 1.49624 3.51417C1.49978 3.20224 1.55745 2.8933 1.66669 2.6011C1.74516 2.38716 1.87148 2.19399 2.03601 2.03633C2.1946 1.87347 2.38755 1.74808 2.60078 1.66928C2.89305 1.5603 3.20195 1.50263 3.51385 1.49883C4.0326 1.47553 4.18828 1.46985 5.50249 1.46985C6.81669 1.46985 6.97294 1.47553 7.49112 1.49883C7.80305 1.50241 8.11198 1.56008 8.40419 1.66928C8.61764 1.74762 8.81069 1.87308 8.96896 2.03633C9.13177 2.19496 9.25716 2.3879 9.33601 2.6011C9.445 2.89337 9.50267 3.20227 9.50646 3.51417C9.52976 4.03292 9.53544 4.1886 9.53544 5.50281C9.53544 6.81701 9.52976 6.96928 9.50646 7.48803V7.48917Z" fill="black"/>
</svg>
