<svg width="10" height="13" viewBox="0 0 10 13" fill="none" xmlns="http://www.w3.org/2000/svg">
<path d="M8.72722 1.98284C7.94501 1.23193 6.86252 0.818359 5.67916 0.818359C3.87153 0.818359 2.75976 1.55933 2.14541 2.1809C1.38827 2.94691 0.954102 3.96401 0.954102 4.97148C0.954102 6.23642 1.4832 7.20731 2.36924 7.5685C2.42872 7.59288 2.48857 7.60515 2.54725 7.60515C2.73417 7.60515 2.88228 7.48285 2.93359 7.28666C2.9635 7.1741 3.03281 6.89643 3.06293 6.77589C3.12744 6.53784 3.07532 6.42334 2.93465 6.25757C2.67839 5.95435 2.55905 5.59579 2.55905 5.12915C2.55905 3.74308 3.59115 2.26996 5.50404 2.26996C7.02184 2.26996 7.96469 3.13262 7.96469 4.52126C7.96469 5.39755 7.77594 6.20908 7.4331 6.80645C7.19487 7.22153 6.77595 7.71632 6.13283 7.71632C5.85472 7.71632 5.60491 7.60208 5.44727 7.40291C5.29836 7.21464 5.24928 6.97142 5.30917 6.71794C5.37683 6.43155 5.46908 6.13281 5.55836 5.844C5.7212 5.31651 5.87514 4.81831 5.87514 4.42083C5.87514 3.74096 5.45717 3.28414 4.83516 3.28414C4.04467 3.28414 3.42538 4.08702 3.42538 5.11196C3.42538 5.61463 3.55897 5.9906 3.61944 6.13497C3.51986 6.5569 2.92802 9.06534 2.81576 9.53835C2.75085 9.81448 2.35982 11.9954 3.00704 12.1693C3.73423 12.3647 4.38424 10.2406 4.4504 10.0006C4.50402 9.80539 4.69164 9.06728 4.80661 8.61354C5.15765 8.95168 5.72289 9.18027 6.27287 9.18027C7.3097 9.18027 8.24214 8.7137 8.89845 7.86659C9.53497 7.04494 9.88554 5.89974 9.88554 4.6421C9.88554 3.65889 9.46332 2.68962 8.72722 1.98284Z" fill="black"/>
</svg>
