<svg width="13" height="11" viewBox="0 0 13 11" fill="none" xmlns="http://www.w3.org/2000/svg">
<path d="M12.3099 1.98053C11.8728 2.17116 11.4104 2.29784 10.9372 2.35667C11.436 2.06094 11.809 1.59253 11.9855 1.04019C11.5184 1.31717 11.0075 1.51222 10.4747 1.61689C10.148 1.26818 9.72401 1.02576 9.25778 0.921114C8.79156 0.81647 8.30463 0.854442 7.86026 1.03009C7.41589 1.20575 7.03461 1.51096 6.76593 1.9061C6.49726 2.30124 6.35362 2.76804 6.35366 3.24587C6.35232 3.42848 6.37138 3.61067 6.41048 3.78905C5.46276 3.74252 4.53553 3.4965 3.6894 3.06707C2.84327 2.63764 2.0973 2.03448 1.50025 1.29701C1.19429 1.82087 1.09965 2.44171 1.23564 3.03294C1.37162 3.62417 1.72798 4.14127 2.23207 4.47882C1.85504 4.46876 1.48596 4.36821 1.15593 4.18564V4.21519C1.15655 4.76529 1.34666 5.29839 1.69427 5.72475C2.04187 6.1511 2.52575 6.44469 3.06445 6.5561C2.86052 6.60984 2.65034 6.6362 2.43945 6.63451C2.28804 6.63713 2.13679 6.62341 1.98832 6.5936C2.14283 7.06533 2.43951 7.47769 2.83767 7.77412C3.23583 8.07056 3.71596 8.23653 4.21218 8.24928C3.36904 8.90984 2.32872 9.26855 1.25763 9.26803C1.06773 9.26915 0.877953 9.25814 0.689453 9.23507C1.77869 9.93722 3.04807 10.3086 4.344 10.3044C5.23606 10.3107 6.12047 10.1396 6.94586 9.80118C7.77125 9.46274 8.52116 8.96367 9.15203 8.33296C9.78291 7.70224 10.2822 6.95245 10.6208 6.12715C10.9595 5.30184 11.1307 4.41747 11.1247 3.52542C11.1247 3.4203 11.1213 3.3186 11.1162 3.21746C11.586 2.88115 11.9905 2.46198 12.3099 1.98053Z" fill="black"/>
</svg>
