<svg width="60" height="72" viewBox="0 0 60 72" fill="none" xmlns="http://www.w3.org/2000/svg">
<path d="M56.4103 59.6944C58.4436 58.5309 59.8127 56.5254 59.9835 54.4607C60.1879 51.9891 58.589 49.6325 56.3436 49.0956C54.8322 48.7341 53.2924 49.1564 51.891 50.3166C50.7999 51.2198 49.8453 52.5333 49.203 54.0149C48.5169 55.5973 48.0848 57.1984 47.9097 58.7626C44.9878 58.2972 42.1193 57.0549 39.6319 55.1505C36.4089 52.6831 34.0919 49.3086 33.108 45.6485C32.9587 45.0928 32.3874 44.7637 31.8312 44.9129C31.2755 45.0622 30.9461 45.6339 31.0956 46.1897C33.1433 53.8066 40.077 59.7347 47.8305 60.8597C47.8824 62.2044 48.1365 63.5012 48.5951 64.712C50.0172 68.4661 53.5593 71.1161 57.2089 71.1566H57.2205C57.7906 71.1566 58.256 70.6976 58.2623 70.1262C58.2686 69.5507 57.8074 69.079 57.2318 69.0726C54.4194 69.0414 51.6692 66.9446 50.5437 63.9737C50.1996 63.0653 49.998 62.0775 49.9365 61.0443C50.1269 61.0501 50.3205 61.0517 50.5097 61.0526C52.8892 61.0493 54.8192 60.605 56.4103 59.6944ZM49.9963 58.961C50.1499 57.6018 50.5242 56.2063 51.115 54.8438C52.4257 51.821 54.4927 50.7955 55.859 51.1223C57.0865 51.4159 58.0243 52.8659 57.9066 54.2889C57.7916 55.6797 56.8217 57.0579 55.3752 57.8857C54.1069 58.6116 52.5145 58.9657 50.5071 58.9685C50.3362 58.9689 50.1668 58.9663 49.9963 58.961Z" fill="white"/>
<path d="M38.1991 29.7087C38.7573 29.5691 39.0967 29.0032 38.9571 28.445C38.8175 27.8868 38.2513 27.5472 37.6934 27.687L34.7188 28.4311L28.6136 21.0234L15.0055 4.51242L50.9854 24.0491C51.0142 24.0646 51.0903 24.106 51.0753 24.2245C51.0603 24.343 50.9761 24.364 50.9445 24.3719L42.3944 26.5109C41.8362 26.6506 41.4968 27.2164 41.6364 27.7747C41.776 28.3329 42.3421 28.6723 42.9001 28.5327L51.4502 26.3937C52.3603 26.166 53.0247 25.4175 53.1426 24.4867C53.2606 23.5559 52.8042 22.6653 51.9798 22.2177L11.2899 0.123551C11.246 0.0996545 11.1996 0.0790925 11.1526 0.061865C11.0998 0.0424144 11.0434 0.0271319 10.9881 0.0165731C10.9863 0.0162952 10.9845 0.0157395 10.9814 0.0153227C10.5895 -0.0473358 10.2213 0.0827048 9.97405 0.395719C9.88708 0.505753 9.82275 0.633293 9.78635 0.768752C9.78593 0.770419 6.84321 11.719 6.84321 11.719C6.69386 12.2747 7.02327 12.8464 7.57899 12.9958C8.13486 13.1452 8.70643 12.8157 8.85578 12.26L11.0348 4.15245L23.5709 32.3861L20.3642 33.1789L2.30152 37.6443C2.17328 37.6758 2.0563 37.5584 2.09103 37.4293C2.10159 37.3899 7.59261 16.9605 7.59261 16.9605C7.74196 16.4047 7.41255 15.833 6.85682 15.6837C6.30096 15.5349 5.72939 15.8637 5.58004 16.4195L0.0784618 36.8883C-0.131187 37.6684 0.0812406 38.4786 0.646556 39.0555C1.07947 39.4973 1.6534 39.7349 2.25053 39.7349C2.43308 39.7349 2.618 39.7127 2.80167 39.6673L17.5649 36.0175C18.2583 36.4411 28.2973 42.5748 28.2973 42.5748C28.5434 42.7253 28.8656 42.7666 29.1427 42.6825C29.423 42.5975 29.6677 42.3839 29.7891 42.1169C29.7904 42.1141 34.0732 32.692 35.0738 30.4905L38.1991 29.7087ZM20.4105 35.3141L24.4299 34.3205L26.5318 39.0543L20.4105 35.3141ZM28.8516 39.1432L14.8415 7.59018L33.1156 29.7627L28.8516 39.1432Z" fill="white"/>
<path d="M44.2408 34.0053C44.0737 33.4546 43.4916 33.1438 42.9412 33.3108C42.3905 33.4779 42.0796 34.0597 42.2467 34.6103C42.9104 36.7978 44.5512 38.664 46.6357 39.6023C46.7747 39.6648 46.9199 39.6944 47.0628 39.6944C47.4603 39.6944 47.8399 39.4657 48.0135 39.0799C48.2497 38.5552 48.0159 37.9383 47.4911 37.7021C45.9475 37.0072 44.7324 35.6252 44.2408 34.0053Z" fill="white"/>
<path d="M48.7966 31.4061C48.5229 30.8999 47.8909 30.7112 47.3845 30.985C46.8782 31.2586 46.6897 31.8909 46.9634 32.3971C48.4071 35.0682 51.0374 37.0621 53.9993 37.7307C54.0765 37.7481 54.1536 37.7566 54.2296 37.7566C54.7059 37.7566 55.1358 37.4279 55.2451 36.9438C55.3718 36.3825 55.0195 35.8247 54.4581 35.698C52.0747 35.1598 49.9583 33.5555 48.7966 31.4061Z" fill="white"/>
<path d="M14.8036 41.5542C14.2599 41.7432 13.9726 42.3371 14.1615 42.8806C14.7174 44.4796 14.5485 46.312 13.7093 47.7821C13.4241 48.282 13.598 48.9183 14.0978 49.2035C14.2607 49.2965 14.4383 49.3408 14.6134 49.3408C14.9753 49.3408 15.327 49.152 15.5193 48.8151C16.6525 46.8298 16.8807 44.3554 16.1301 42.1961C15.941 41.6526 15.3468 41.3651 14.8036 41.5542Z" fill="white"/>
<path d="M9.84163 42.2907C9.27131 42.3674 8.87105 42.892 8.94774 43.4623C9.2734 45.8838 8.50649 48.4264 6.89613 50.264C6.51684 50.6968 6.56033 51.3552 6.9931 51.7343C7.1908 51.9077 7.4356 51.9926 7.67943 51.9926C7.9691 51.9926 8.25752 51.8724 8.46356 51.6374C10.4647 49.3536 11.4178 46.1937 11.0132 43.1846C10.9366 42.6143 10.4125 42.2139 9.84163 42.2907Z" fill="white"/>
</svg>
