<svg width="46" height="46" viewBox="0 0 46 46" fill="none" xmlns="http://www.w3.org/2000/svg">
<path d="M14.5485 35.543C11.9188 35.543 9.78711 37.6748 9.78711 40.3044C9.78711 42.9341 11.9189 45.0658 14.5485 45.0658C17.1782 45.0658 19.3099 42.934 19.3099 40.3044C19.31 37.6748 17.1782 35.543 14.5485 35.543ZM14.5485 42.9497C13.0876 42.9497 11.9033 41.7654 11.9033 40.3045C11.9033 38.8435 13.0876 37.6593 14.5485 37.6593C16.0094 37.6593 17.1937 38.8435 17.1937 40.3045C17.1938 41.7654 16.0094 42.9497 14.5485 42.9497Z" fill="white"/>
<path d="M34.653 35.543C32.0233 35.543 29.8916 37.6748 29.8916 40.3044C29.8916 42.9341 32.0234 45.0658 34.653 45.0658C37.2826 45.0658 39.4144 42.934 39.4144 40.3044C39.4144 37.6748 37.2827 35.543 34.653 35.543ZM34.653 42.9497C33.1921 42.9497 32.0078 41.7654 32.0078 40.3045C32.0078 38.8435 33.1921 37.6593 34.653 37.6593C36.1139 37.6593 37.2982 38.8435 37.2982 40.3045C37.2983 41.7654 36.1139 42.9497 34.653 42.9497Z" fill="white"/>
<path d="M45.3923 7.76707C45.172 7.52637 44.8705 7.37569 44.5459 7.34379L10.1049 6.86765L9.15257 3.95785C8.4817 2.01269 6.66018 0.699506 4.60272 0.677734H1.0581C0.473709 0.677734 0 1.15144 0 1.73583C0 2.32022 0.473709 2.79393 1.0581 2.79393H4.60272C5.75317 2.81935 6.7662 3.55807 7.14219 4.64563L13.8611 24.9082L13.3321 26.125C12.7421 27.6466 12.9193 29.3591 13.8083 30.7277C14.6887 32.0719 16.17 32.9014 17.7761 32.9497H38.3562C38.9406 32.9497 39.4143 32.476 39.4143 31.8916C39.4143 31.3072 38.9406 30.8335 38.3562 30.8335H17.776C16.869 30.8108 16.0341 30.3337 15.554 29.5638C15.0793 28.8033 14.9818 27.8664 15.2895 27.0243L15.7128 26.072L37.9857 23.7442C40.4323 23.4747 42.4448 21.6953 43.0117 19.3001L45.5512 8.66629C45.6657 8.36007 45.6049 8.01567 45.3923 7.76707ZM40.9484 18.8241C40.6049 20.3659 39.2959 21.5032 37.7213 21.6281L15.7128 23.903L10.7926 8.98385L43.2233 9.45999L40.9484 18.8241Z" fill="white"/>
</svg>
