<svg width="88" height="103" viewBox="0 0 88 103" fill="none" xmlns="http://www.w3.org/2000/svg">
<g clip-path="url(#clip0_8_14)">
<path d="M80.3894 0H7.61063C3.4074 0 0 3.4074 0 7.61063V95.3894C0 99.5926 3.4074 103 7.61063 103H80.3894C84.5926 103 88 99.5926 88 95.3894V7.61063C88 3.4074 84.5926 0 80.3894 0Z" fill="#F9FAFE"/>
<path d="M64.635 39.1496L44.5614 29.4589C44.3834 29.3731 44.1762 29.3731 43.9983 29.4589L23.9246 39.1496C23.7008 39.2576 23.5586 39.4843 23.5586 39.7328V63.2674C23.5586 63.5159 23.7008 63.7426 23.9246 63.8506L43.9982 73.5413C44.0872 73.5842 44.1835 73.6057 44.2798 73.6057C44.3761 73.6057 44.4724 73.5842 44.5614 73.5413L64.635 63.8506C64.8588 63.7426 65.001 63.5159 65.001 63.2674V39.7329C65.001 39.4842 64.8587 39.2577 64.635 39.1496ZM44.2798 30.7613L62.8638 39.7328L57.4767 42.3335C57.4425 42.3075 57.4065 42.2835 57.367 42.2644L38.9093 33.354L44.2798 30.7613ZM37.4467 34.0862L56.0036 43.0447L52.2029 44.8795L33.6537 35.9247L37.4467 34.0862ZM56.4378 44.2733V51.0557L52.8877 52.7696V45.9871L56.4378 44.2733ZM63.7058 62.861L44.9274 71.9262V49.83L49.4067 47.6676C49.7287 47.5121 49.8638 47.125 49.7083 46.8028C49.5528 46.4808 49.1657 46.3456 48.8435 46.5012L44.2798 48.7044L42.4841 47.8374C42.1619 47.6818 41.7748 47.817 41.6193 48.1391C41.4638 48.4611 41.5988 48.8483 41.9209 49.0039L43.6322 49.83V71.9262L24.8538 62.8609V40.7646L39.1534 47.6679C39.2441 47.7117 39.3401 47.7324 39.4345 47.7324C39.6752 47.7324 39.9064 47.5976 40.0181 47.3662C40.1736 47.0441 40.0386 46.657 39.7165 46.5014L25.6958 39.7328L32.1293 36.627L51.5834 46.0187C51.5863 46.0226 51.5895 46.0262 51.5924 46.0301V53.8015C51.5924 54.0243 51.707 54.2315 51.8958 54.35C52.0006 54.4158 52.1202 54.4491 52.2401 54.4491C52.3362 54.4491 52.4324 54.4277 52.5216 54.3847L57.367 52.0455C57.5908 51.9375 57.733 51.7109 57.733 51.4623V43.6481L63.7058 40.7647V62.861Z" fill="#C9CCDA"/>
<path d="M30.1974 60.35L27.2516 58.9279C26.9294 58.7722 26.5423 58.9075 26.3868 59.2295C26.2313 59.5516 26.3664 59.9388 26.6884 60.0943L29.6343 61.5164C29.725 61.5603 29.821 61.581 29.9153 61.581C30.1561 61.581 30.3873 61.4461 30.499 61.2148C30.6546 60.8926 30.5195 60.5056 30.1974 60.35Z" fill="#C9CCDA"/>
<path d="M32.9103 58.5846L27.2574 55.8556C26.9353 55.7001 26.5481 55.8351 26.3926 56.1573C26.2372 56.4794 26.3723 56.8666 26.6943 57.0221L32.3472 59.7511C32.438 59.7949 32.5339 59.8157 32.6283 59.8157C32.869 59.8157 33.1003 59.6808 33.2119 59.4495C33.3675 59.1272 33.2324 58.74 32.9103 58.5846Z" fill="#C9CCDA"/>
</g>
<defs>
<clipPath id="clip0_8_14">
<rect width="88" height="103" fill="white"/>
</clipPath>
</defs>
</svg>
