<svg width="88" height="103" viewBox="0 0 88 103" fill="none" xmlns="http://www.w3.org/2000/svg">
<g clip-path="url(#clip0_8_14)">
<path d="M80.3894 0H7.61063C3.4074 0 0 3.4074 0 7.61063V95.3894C0 99.5926 3.4074 103 7.61063 103H80.3894C84.5926 103 88 99.5926 88 95.3894V7.61063C88 3.4074 84.5926 0 80.3894 0Z" fill="#F9FAFE"/>
<path d="M28.3512 67.4206C29.2139 70.8549 32.3134 73.2538 35.8543 73.2276H52.5061C56.0474 73.2536 59.1471 70.8541 60.0093 67.4192C61.5843 60.9633 57.6065 52.8507 53.0994 47.0373C53.9406 46.7498 54.5547 46.0218 54.6963 45.1441C56.0062 45.3413 57.1128 46.2192 57.603 47.4498C57.748 47.8105 58.1579 47.9853 58.5186 47.8404C58.8793 47.6954 59.0542 47.2854 58.9092 46.9247C58.2671 45.3059 56.842 44.1276 55.1313 43.8013C56.5976 42.8285 57.5003 41.2044 57.5523 39.4455C57.5523 39.0568 57.2372 38.7417 56.8485 38.7417C56.4598 38.7417 56.1447 39.0568 56.1447 39.4455C56.0623 40.9077 55.2303 42.2236 53.9447 42.9251C53.4922 42.4996 52.8949 42.2621 52.2739 42.2607H51.7967L53.9728 38.8445C54.5245 37.9767 54.5592 36.8771 54.0632 35.9763C53.5672 35.0755 52.6195 34.5168 51.5912 34.519H50.7741C50.9934 33.6762 50.8098 32.7794 50.2769 32.0907C49.7439 31.402 48.9219 30.9992 48.0511 31H40.3094C39.4386 30.9992 38.6165 31.402 38.0836 32.0907C37.5507 32.7794 37.367 33.6762 37.5864 34.519H36.7693C35.7408 34.5169 34.7931 35.0758 34.2973 35.9768C33.8014 36.8778 33.8363 37.9775 34.3883 38.8452L36.5638 42.2607H36.0866C34.8889 42.2586 33.8641 43.1201 33.6604 44.3003C33.4567 45.4805 34.1334 46.6357 35.2624 47.0352C30.7546 52.85 26.7754 60.9626 28.3512 67.4206ZM35.5299 36.6585C35.7757 36.204 36.2525 35.9224 36.7693 35.9266H38.1396L40.0117 40.4203C40.1085 40.6524 40.3217 40.8152 40.5711 40.8474C40.8205 40.8796 41.0681 40.7763 41.2207 40.5764C41.3733 40.3765 41.4077 40.1104 41.3109 39.8784L39.0102 34.3564C38.8292 33.922 38.8773 33.4259 39.1384 33.0344C39.3994 32.6429 39.8388 32.4076 40.3094 32.4076H48.0511C48.5217 32.4076 48.9611 32.6429 49.2221 33.0344C49.4831 33.4259 49.5312 33.922 49.3503 34.3564L47.0496 39.8784C46.9 40.2371 47.0695 40.6493 47.4282 40.7989C47.787 40.9486 48.1992 40.779 48.3488 40.4203L50.2209 35.9266H51.5912C52.1063 35.9234 52.5821 36.202 52.8315 36.6527C53.0808 37.1035 53.064 37.6546 52.7876 38.0893L50.128 42.2607H38.2339L35.577 38.09C35.2976 37.6583 35.2795 37.1076 35.5299 36.6585ZM36.9375 47.1872H39.2537C39.6424 47.1872 39.9575 46.8721 39.9575 46.4835C39.9575 46.0948 39.6424 45.7797 39.2537 45.7797H36.0866C35.5035 45.7797 35.0309 45.307 35.0309 44.724C35.0309 44.1409 35.5035 43.6683 36.0866 43.6683H52.2739C52.8569 43.6683 53.3295 44.1409 53.3295 44.724C53.3295 45.307 52.8569 45.7797 52.2739 45.7797H43.4764C43.0877 45.7797 42.7726 46.0948 42.7726 46.4835C42.7726 46.8721 43.0877 47.1872 43.4764 47.1872H51.4209C55.947 52.774 60.1641 60.85 58.6425 67.0842C57.9335 69.8888 55.3988 71.845 52.5061 71.82H35.8543C32.9621 71.8456 30.4274 69.8898 29.7187 67.0856C28.1971 60.85 32.4135 52.774 36.9396 47.1872H36.9375Z" fill="#C8CCDA"/>
<path d="M33.6218 59.8548H35.7331V65.4852C35.7331 65.8739 36.0482 66.189 36.4369 66.189C36.8256 66.189 37.1407 65.8739 37.1407 65.4852V59.8548H39.2521C39.6408 59.8548 39.9559 59.5397 39.9559 59.151C39.9559 58.7624 39.6408 58.4473 39.2521 58.4473H33.6218C33.2331 58.4473 32.918 58.7624 32.918 59.151C32.918 59.5397 33.2331 59.8548 33.6218 59.8548Z" fill="#C8CCDA"/>
<path d="M49.4208 66.0708C49.5761 66.1745 49.7662 66.2121 49.9493 66.1756C50.1323 66.139 50.2934 66.0312 50.397 65.8759L51.9228 63.585L53.4486 65.8738C53.6643 66.1972 54.1014 66.2845 54.4248 66.0687C54.7482 65.853 54.8354 65.416 54.6197 65.0926L52.7673 62.3182L54.6183 59.5417C54.7579 59.3325 54.7752 59.0648 54.6638 58.8393C54.5524 58.6139 54.3292 58.465 54.0783 58.4487C53.8273 58.4325 53.5868 58.5513 53.4472 58.7605L51.9228 61.0514L50.397 58.7626C50.1812 58.4393 49.7442 58.352 49.4208 58.5677C49.0974 58.7834 49.0101 59.2205 49.2258 59.5439L51.0782 62.3182L49.2273 65.0947C49.0112 65.4177 49.0978 65.8547 49.4208 66.0708Z" fill="#C8CCDA"/>
<path d="M41.0803 66.1292C41.2509 66.205 41.4446 66.2099 41.6189 66.1429C41.7931 66.0758 41.9335 65.9423 42.0093 65.7717L42.7617 64.0783H45.6008L46.3531 65.7717C46.4552 66.0015 46.6721 66.1594 46.9222 66.1859C47.1723 66.2124 47.4175 66.1035 47.5655 65.9002C47.7135 65.6968 47.7417 65.43 47.6397 65.2002L46.7106 63.1106L46.7015 63.0902L44.8245 58.8675C44.7116 58.6131 44.4595 58.4492 44.1812 58.4492C43.903 58.4492 43.6508 58.6131 43.5379 58.8675L41.6609 63.0902L41.6518 63.1106L40.7228 65.2002C40.647 65.3708 40.642 65.5645 40.7091 65.7388C40.7761 65.913 40.9097 66.0534 41.0803 66.1292ZM44.1812 60.8845L44.9751 62.6708H43.3873L44.1812 60.8845Z" fill="#C8CCDA"/>
</g>
<defs>
<clipPath id="clip0_8_14">
<rect width="88" height="103" fill="white"/>
</clipPath>
</defs>
</svg>
