<svg width="24" height="24" viewBox="0 0 24 24" fill="none" xmlns="http://www.w3.org/2000/svg">
<path fill-rule="evenodd" clip-rule="evenodd" d="M8.95711 3.29289C8.56658 2.90237 7.93342 2.90237 7.54289 3.29289L2.29289 8.54289C1.90237 8.93342 1.90237 9.56658 2.29289 9.95711L7.54289 15.2071C7.93342 15.5976 8.56658 15.5976 8.95711 15.2071C9.34763 14.8166 9.34763 14.1834 8.95711 13.7929L5.41422 10.25H15.75C18.0972 10.25 20 12.1528 20 14.5C20 16.8472 18.0972 18.75 15.75 18.75H12.75C12.1977 18.75 11.75 19.1977 11.75 19.75C11.75 20.3023 12.1977 20.75 12.75 20.75H15.75C19.2018 20.75 22 17.9518 22 14.5C22 11.0482 19.2018 8.25 15.75 8.25H5.41422L8.95711 4.70711C9.34763 4.31658 9.34763 3.68342 8.95711 3.29289Z" fill="#420808"/>
</svg>
