<svg width="24" height="20" viewBox="0 0 24 20" fill="none" xmlns="http://www.w3.org/2000/svg">
<path d="M10.6231 20C11.7276 20 12.6231 19.1046 12.6231 18C12.6231 16.8954 11.7276 16 10.6231 16C9.51848 16 8.62305 16.8954 8.62305 18C8.62305 19.1046 9.51848 20 10.6231 20Z" fill="#7B51A6"/>
<path d="M17.334 20C18.4386 20 19.334 19.1046 19.334 18C19.334 16.8954 18.4386 16 17.334 16C16.2294 16 15.334 16.8954 15.334 18C15.334 19.1046 16.2294 20 17.334 20Z" fill="#7B51A6"/>
<path d="M1.24479 1.33337H4.02491L7.24348 12.6006L6.99104 13.1055C6.32633 14.4335 7.29126 16 8.7801 16H20.0003C20.3688 16 20.667 15.7018 20.667 15.3333C20.667 14.9648 20.3688 14.6667 20.0003 14.6667H8.7801C8.28503 14.6667 7.96148 14.1454 8.18375 13.7018L8.36801 13.3333H20.0003C20.2978 13.3333 20.5595 13.1361 20.6416 12.8496L23.3082 3.5163C23.3655 3.31515 23.3252 3.09897 23.1995 2.93168C23.0732 2.76501 22.876 2.6667 22.667 2.6667H5.79246L5.16878 0.483732C5.08673 0.197288 4.82505 0 4.52749 0H1.24479C0.876302 0 0.578125 0.298177 0.578125 0.666665C0.578125 1.03515 0.876302 1.33337 1.24479 1.33337Z" fill="#7B51A6"/>
</svg>
