<svg width="24" height="24" viewBox="0 0 24 24" fill="none" xmlns="http://www.w3.org/2000/svg">
<path fill-rule="evenodd" clip-rule="evenodd" d="M8.21751 18.9593C8.74732 19.1152 9.30324 18.8122 9.45919 18.2824L10.1856 15.8145C11.3893 16.0617 12.6108 16.0617 13.8144 15.8145L14.5406 18.2823C14.6965 18.8121 15.2523 19.1152 15.7822 18.9593C16.312 18.8034 16.6151 18.2475 16.4592 17.7177L15.7207 15.2077C16.7091 14.7777 17.6624 14.1767 18.564 13.4132L20.2608 15.275C20.6328 15.6832 21.2653 15.7125 21.6735 15.3405C22.0817 14.9685 22.111 14.336 21.739 13.9278L19.9956 12.0149C20.6509 11.2827 21.2706 10.4536 21.8479 9.52998C22.1406 9.06165 21.9982 8.4447 21.5299 8.15199C21.0616 7.85928 20.4446 8.00165 20.1519 8.46999C19.4566 9.58246 18.708 10.5195 17.9277 11.2871C16.7308 12.4646 15.4629 13.2406 14.1933 13.6496C12.7432 14.1167 11.257 14.1167 9.80688 13.6496C8.53722 13.2406 7.2693 12.4646 6.07236 11.2871C5.29195 10.5194 4.54316 9.58243 3.84789 8.46999C3.55518 8.00165 2.93823 7.85928 2.46989 8.15199C2.00155 8.4447 1.85918 9.06165 2.15189 9.52998C2.72921 10.4537 3.34903 11.2828 4.00443 12.0149L2.26083 13.9278C1.88879 14.336 1.91808 14.9684 2.32625 15.3405C2.73442 15.7125 3.36691 15.6832 3.73895 15.2751L5.43603 13.4132C6.3377 14.1767 7.291 14.7777 8.27941 15.2076L7.54059 17.7176C7.38463 18.2474 7.6877 18.8033 8.21751 18.9593Z" fill="#420808"/>
</svg>
