<svg width="30" height="30" viewBox="0 0 30 30" fill="none" xmlns="http://www.w3.org/2000/svg">
<path d="M4.39448 0H0.87886C0.393509 0 0 0.393509 0 0.878919V4.45315C0 4.93856 0.39345 5.33207 0.878919 5.33207C1.36433 5.33207 1.75784 4.93856 1.75784 4.45315V1.75784H4.39454C4.87995 1.75784 5.27346 1.36433 5.27346 0.878919C5.2734 0.393509 4.87989 0 4.39448 0Z" fill="#680A0A"/>
<path d="M29.1211 0H25.6055C25.1201 0 24.7266 0.393509 24.7266 0.878919C24.7266 1.36433 25.12 1.75784 25.6055 1.75784H28.2422V4.45315C28.2422 4.93856 28.6357 5.33207 29.1211 5.33207C29.6065 5.33207 30 4.93856 30 4.45315V0.878919C30 0.393509 29.6065 0 29.1211 0Z" fill="#680A0A"/>
<path d="M4.39454 28.2422H1.75784V25.5469C1.75784 25.0615 1.36433 24.668 0.878919 24.668C0.393509 24.668 0 25.0615 0 25.5469V29.1211C0 29.6065 0.39345 30 0.878919 30H4.39454C4.87995 30 5.27346 29.6065 5.27346 29.1211C5.27346 28.6357 4.87995 28.2422 4.39454 28.2422Z" fill="#680A0A"/>
<path d="M29.1211 24.668C28.6357 24.668 28.2422 25.0615 28.2422 25.5469V28.2422H25.6055C25.1201 28.2422 24.7266 28.6357 24.7266 29.1211C24.7266 29.6065 25.1201 30 25.6055 30H29.1211C29.6065 30 30 29.6065 30 29.1211V25.5469C30 25.0615 29.6065 24.668 29.1211 24.668Z" fill="#680A0A"/>
<path d="M27.6776 7.21038L15.4367 0.118422C15.1642 -0.039474 14.8279 -0.039474 14.5555 0.118422L2.30956 7.21032C2.0396 7.36675 1.87109 7.65798 1.87109 7.97026C1.87109 7.97202 1.87127 7.97377 1.87127 7.97547V22.0375C1.87127 22.3527 2.04259 22.6478 2.31847 22.8031L14.5555 29.89C14.6873 29.9664 14.8442 30.0084 14.9962 30.0084C15.1548 30.0084 15.3098 29.9635 15.4368 29.89L27.6689 22.803C27.6709 22.8019 27.6729 22.8007 27.675 22.7995C27.9585 22.595 28.1112 22.4231 28.1155 22.0481C28.1156 22.0446 28.1159 22.0411 28.1159 22.0376V7.97559C28.1159 7.97383 28.1161 7.97208 28.1161 7.97038C28.1161 7.65781 27.9474 7.36651 27.6776 7.21038ZM14.1172 27.6046L4.51529 22.0415L11.9177 17.7964C12.3388 17.5549 12.4844 17.0178 12.2429 16.5967C12.0015 16.1756 11.4644 16.0301 11.0432 16.2716L3.62893 20.5203V9.48949L14.1172 15.5129V27.6046V27.6046ZM14.9961 13.9906L4.514 7.96774L14.9961 1.89466L25.4782 7.96774L14.9961 13.9906ZM26.3638 20.5203L18.9489 16.2715C18.5279 16.0301 17.9908 16.1756 17.7493 16.5967C17.5078 17.0178 17.6534 17.5548 18.0745 17.7963L25.4769 22.0413L15.875 27.6045V15.5129L26.3637 9.48949V20.5203H26.3638Z" fill="#680A0A"/>
</svg>
