<svg width="24" height="24" viewBox="0 0 24 24" fill="none" xmlns="http://www.w3.org/2000/svg">
<path d="M16.5 20.75C17.0523 20.75 17.5 21.1977 17.5 21.75C17.5 22.3023 17.0523 22.75 16.5 22.75H6.25C3.48857 22.75 1.25 20.5114 1.25 17.75V6.25C1.25 3.48857 3.48857 1.25 6.25 1.25H16.5C17.0523 1.25 17.5 1.69771 17.5 2.25C17.5 2.80228 17.0523 3.25 16.5 3.25L6.25 3.25C4.59315 3.25 3.25 4.59314 3.25 6.25V17.75C3.25 19.4069 4.59314 20.75 6.25 20.75H16.5Z" fill="#420808"/>
<path d="M5.75 12C5.75 12.2652 5.85536 12.5196 6.04289 12.7071L10.5429 17.2071C10.9334 17.5976 11.5666 17.5976 11.9571 17.2071C12.3476 16.8166 12.3476 16.1834 11.9571 15.7929L9.16421 13L21.75 13C22.3023 13 22.75 12.5523 22.75 12C22.75 11.4477 22.3023 11 21.75 11L9.16421 11L11.9571 8.20711C12.3476 7.81658 12.3476 7.18342 11.9571 6.79289C11.5666 6.40237 10.9334 6.40237 10.5429 6.79289L6.04289 11.2929C5.85536 11.4804 5.75 11.7348 5.75 12Z" fill="#420808"/>
</svg>
