<svg width="195" height="40" viewBox="0 0 195 40" fill="none" xmlns="http://www.w3.org/2000/svg">
<path d="M0.78875 2.232V1.272H20.6608V2.232H0.78875ZM0.78875 4.344V3.384H20.6608V4.344H0.78875ZM0.78875 6.456V5.496H20.6608V6.456H0.78875ZM12.3728 27V7.48H13.3328V27H12.3728ZM8.14875 27V7.48H9.10875V27H8.14875ZM10.2608 27V7.48H11.2208V27H10.2608ZM26.7928 27V1.272H27.7528V27H26.7928ZM22.5688 27V1.272H23.5288V27H22.5688ZM24.6808 27V1.272H25.6408V27H24.6808ZM35.1678 27V1.272H36.1278V27H35.1678ZM30.9438 27V1.272H31.9038V27H30.9438ZM33.0558 27V1.272H34.0158V27H33.0558ZM55.8718 27V1.272H56.8318V27H55.8718ZM51.6478 27V1.272H52.6078V27H51.6478ZM53.7598 27V1.272H54.7198V27H53.7598ZM45.0878 12.152L44.5118 11.288L50.4958 2.616V4.312L45.0878 12.152ZM46.3678 17.688L37.2798 4.696V3.064L46.9757 16.856L46.3678 17.688ZM46.3998 14.008L45.8238 13.144L50.4958 6.488V8.152L46.3998 14.008ZM45.0878 19.576L37.2798 8.44V6.744L45.6638 18.712L45.0878 19.576ZM47.6798 15.832L47.1038 15L50.4958 10.168V11.832L47.6798 15.832ZM43.8078 21.4L37.2798 12.12V10.424L44.3838 20.568L43.8078 21.4ZM64.2615 27V1.272H65.2215V27H64.2615ZM60.0375 27V1.272H60.9975V27H60.0375ZM62.1495 27V1.272H63.1095V27H62.1495ZM66.3735 2.232V1.272H79.1415V2.232H66.3735ZM66.3735 4.344V3.384H79.1415V4.344H66.3735ZM66.3735 6.456V5.496H79.1415V6.456H66.3735ZM66.3735 12.504V11.544H77.3175V12.504H66.3735ZM66.3735 14.616V13.656H77.3175V14.616H66.3735ZM66.3735 16.728V15.768H77.3175V16.728H66.3735ZM66.3735 22.776V21.816H79.1415V22.776H66.3735ZM66.3735 24.888V23.928H79.1415V24.888H66.3735ZM66.3735 27V26.04H79.1415V27H66.3735ZM90.5578 23.256C89.0431 23.256 87.7951 22.968 86.8138 22.392C85.8324 21.7947 85.2991 21.0053 85.2138 20.024L86.1418 19.768C86.1418 20.4933 86.5471 21.1013 87.3578 21.592C88.1898 22.0613 89.2564 22.296 90.5578 22.296C91.9018 22.296 92.9898 22.0507 93.8218 21.56C94.6751 21.0693 95.1018 20.44 95.1018 19.672C95.1018 18.9467 94.7498 18.36 94.0458 17.912C93.3418 17.464 92.3818 17.0693 91.1658 16.728L89.1818 16.152C86.5364 15.384 84.5418 14.4133 83.1978 13.24C81.8538 12.0667 81.1818 10.456 81.1818 8.408C81.1818 6.936 81.5871 5.63467 82.3978 4.504C83.2298 3.352 84.3498 2.44533 85.7578 1.784C87.1871 1.12266 88.7978 0.791998 90.5898 0.791998C92.2111 0.791998 93.6724 1.05866 94.9738 1.592C96.2964 2.104 97.3844 2.84 98.2378 3.8C99.1124 4.76 99.6671 5.88 99.9018 7.16L98.9738 7.416C98.7818 6.28533 98.3018 5.29333 97.5338 4.44C96.7658 3.58666 95.7844 2.92533 94.5898 2.456C93.3951 1.98667 92.0618 1.752 90.5898 1.752C88.9684 1.752 87.5178 2.05067 86.2378 2.648C84.9791 3.224 83.9764 4.01333 83.2298 5.016C82.5044 6.01867 82.1418 7.17067 82.1418 8.472C82.1418 10.2213 82.7498 11.6293 83.9658 12.696C85.2031 13.7413 87.0271 14.5947 89.4378 15.256L91.4218 15.8C92.8938 16.2053 94.0351 16.696 94.8458 17.272C95.6564 17.848 96.0618 18.6267 96.0618 19.608C96.0618 20.696 95.5604 21.5813 94.5578 22.264C93.5551 22.9253 92.2218 23.256 90.5578 23.256ZM90.5578 25.368C88.5524 25.368 86.8671 24.9307 85.5018 24.056C84.1578 23.16 83.3684 21.9973 83.1338 20.568L84.0938 20.312C84.2644 21.5493 84.9258 22.5413 86.0778 23.288C87.2511 24.0347 88.7444 24.408 90.5578 24.408C91.8804 24.408 93.0431 24.2053 94.0458 23.8C95.0484 23.3947 95.8271 22.8293 96.3818 22.104C96.9364 21.3787 97.2138 20.5467 97.2138 19.608C97.2138 18.3067 96.7231 17.2827 95.7418 16.536C94.7604 15.768 93.4058 15.1493 91.6778 14.68L89.7258 14.136C87.6564 13.56 86.0671 12.8347 84.9578 11.96C83.8484 11.0853 83.2938 9.92267 83.2938 8.472C83.2938 7.384 83.6031 6.424 84.2218 5.592C84.8618 4.76 85.7364 4.10933 86.8458 3.64C87.9551 3.14933 89.2031 2.904 90.5898 2.904C91.8911 2.904 93.0538 3.10667 94.0778 3.512C95.1231 3.896 95.9764 4.45067 96.6378 5.176C97.2991 5.90133 97.7044 6.744 97.8538 7.704L96.8938 7.96C96.7444 6.72267 96.0831 5.73067 94.9098 4.984C93.7578 4.23733 92.3178 3.864 90.5898 3.864C89.3738 3.864 88.2858 4.06667 87.3258 4.472C86.3658 4.856 85.6084 5.4 85.0538 6.104C84.5204 6.78666 84.2538 7.576 84.2538 8.472C84.2538 9.688 84.7338 10.648 85.6938 11.352C86.6751 12.056 88.0938 12.6747 89.9498 13.208L91.8698 13.752C93.8538 14.3067 95.4004 15.0427 96.5098 15.96C97.6191 16.856 98.1737 18.072 98.1737 19.608C98.1737 20.7387 97.8538 21.7413 97.2138 22.616C96.5738 23.4693 95.6778 24.1413 94.5258 24.632C93.3951 25.1227 92.0724 25.368 90.5578 25.368ZM90.5578 27.48C88.8938 27.48 87.3898 27.224 86.0458 26.712C84.7231 26.1787 83.6244 25.4427 82.7498 24.504C81.8964 23.544 81.3418 22.4133 81.0858 21.112L82.0138 20.856C82.2271 22.008 82.7071 23.0107 83.4538 23.864C84.2218 24.696 85.2138 25.3467 86.4298 25.816C87.6458 26.2853 89.0218 26.52 90.5578 26.52C92.3071 26.52 93.8324 26.232 95.1338 25.656C96.4564 25.0587 97.4804 24.248 98.2058 23.224C98.9524 22.1787 99.3258 20.9733 99.3258 19.608C99.3258 17.7947 98.6964 16.344 97.4378 15.256C96.1791 14.168 94.4084 13.2933 92.1258 12.632L90.2378 12.088C88.6804 11.64 87.4858 11.1493 86.6538 10.616C85.8218 10.0827 85.4058 9.368 85.4058 8.472C85.4058 7.42667 85.8964 6.59467 86.8778 5.976C87.8591 5.336 89.0964 5.016 90.5898 5.016C92.0404 5.016 93.2351 5.31467 94.1738 5.912C95.1124 6.50933 95.6458 7.288 95.7738 8.248L94.8458 8.504C94.8031 7.75733 94.3871 7.14933 93.5978 6.68C92.8298 6.21067 91.8271 5.976 90.5898 5.976C89.4164 5.976 88.4138 6.2 87.5818 6.648C86.7711 7.096 86.3658 7.68267 86.3658 8.408C86.3658 9.06933 86.7391 9.60267 87.4858 10.008C88.2538 10.4133 89.2564 10.7973 90.4938 11.16L92.3178 11.704C94.8991 12.472 96.8724 13.4747 98.2378 14.712C99.6031 15.928 100.286 17.5813 100.286 19.672C100.286 21.1867 99.8698 22.5413 99.0378 23.736C98.2271 24.9093 97.0858 25.8267 95.6138 26.488C94.1631 27.1493 92.4778 27.48 90.5578 27.48ZM100.914 2.232V1.272H120.786V2.232H100.914ZM100.914 4.344V3.384H120.786V4.344H100.914ZM100.914 6.456V5.496H120.786V6.456H100.914ZM112.498 27V7.48H113.458V27H112.498ZM108.274 27V7.48H109.234V27H108.274ZM110.386 27V7.48H111.346V27H110.386ZM146.501 14.136C146.501 12.4293 146.202 10.8293 145.605 9.336C145.029 7.82133 144.197 6.49867 143.109 5.368C142.021 4.23733 140.719 3.352 139.205 2.712C137.69 2.072 135.994 1.752 134.117 1.752C132.239 1.752 130.543 2.072 129.029 2.712C127.514 3.352 126.213 4.23733 125.125 5.368C124.037 6.49867 123.194 7.82133 122.597 9.336C122.021 10.8293 121.733 12.4293 121.733 14.136C121.733 15.8427 122.021 17.4533 122.597 18.968C123.194 20.4613 124.037 21.7733 125.125 22.904C126.213 24.0347 127.514 24.92 129.029 25.56C130.543 26.2 132.239 26.52 134.117 26.52C135.994 26.52 137.69 26.2 139.205 25.56C140.719 24.92 142.021 24.0347 143.109 22.904C144.197 21.7733 145.029 20.4613 145.605 18.968C146.202 17.4533 146.501 15.8427 146.501 14.136ZM144.389 14.136C144.389 12.2373 143.973 10.52 143.141 8.984C142.309 7.42667 141.125 6.18933 139.589 5.272C138.053 4.35467 136.229 3.896 134.117 3.896C132.026 3.896 130.202 4.35467 128.645 5.272C127.109 6.18933 125.925 7.42667 125.093 8.984C124.261 10.52 123.845 12.2373 123.845 14.136C123.845 16.0133 124.261 17.7307 125.093 19.288C125.925 20.8453 127.109 22.0827 128.645 23C130.202 23.9173 132.026 24.376 134.117 24.376C136.229 24.376 138.053 23.9173 139.589 23C141.125 22.0827 142.309 20.8453 143.141 19.288C143.973 17.7307 144.389 16.0133 144.389 14.136ZM142.277 14.136C142.277 12.6427 141.957 11.288 141.317 10.072C140.677 8.83467 139.749 7.85333 138.533 7.128C137.317 6.38133 135.845 6.008 134.117 6.008C132.41 6.008 130.938 6.38133 129.701 7.128C128.485 7.85333 127.557 8.83467 126.917 10.072C126.277 11.288 125.957 12.6427 125.957 14.136C125.957 15.6293 126.277 16.9947 126.917 18.232C127.557 19.448 128.485 20.4293 129.701 21.176C130.938 21.9013 132.41 22.264 134.117 22.264C135.845 22.264 137.317 21.9013 138.533 21.176C139.749 20.4293 140.677 19.448 141.317 18.232C141.957 16.9947 142.277 15.6293 142.277 14.136ZM134.117 23.256C132.218 23.256 130.586 22.8507 129.22 22.04C127.855 21.208 126.81 20.0987 126.085 18.712C125.359 17.3253 124.997 15.8 124.997 14.136C124.997 12.4507 125.359 10.9253 126.085 9.56C126.81 8.17333 127.855 7.07467 129.22 6.264C130.586 5.432 132.218 5.016 134.117 5.016C136.015 5.016 137.647 5.432 139.013 6.264C140.378 7.07467 141.423 8.17333 142.149 9.56C142.874 10.9253 143.237 12.4507 143.237 14.136C143.237 15.8 142.874 17.3253 142.149 18.712C141.423 20.0987 140.378 21.208 139.013 22.04C137.647 22.8507 136.015 23.256 134.117 23.256ZM134.117 25.368C132.41 25.368 130.863 25.08 129.477 24.504C128.111 23.9067 126.927 23.096 125.925 22.072C124.943 21.048 124.186 19.864 123.653 18.52C123.141 17.1547 122.885 15.6933 122.885 14.136C122.885 12.5787 123.141 11.128 123.653 9.784C124.186 8.41866 124.943 7.224 125.925 6.2C126.927 5.15466 128.111 4.344 129.477 3.768C130.863 3.192 132.41 2.904 134.117 2.904C135.823 2.904 137.359 3.192 138.725 3.768C140.111 4.344 141.295 5.15466 142.277 6.2C143.279 7.224 144.037 8.41866 144.549 9.784C145.082 11.128 145.349 12.5787 145.349 14.136C145.349 15.6933 145.082 17.1547 144.549 18.52C144.037 19.864 143.279 21.048 142.277 22.072C141.295 23.096 140.111 23.9067 138.725 24.504C137.359 25.08 135.823 25.368 134.117 25.368ZM134.117 27.48C132.111 27.48 130.287 27.1387 128.645 26.456C127.023 25.752 125.626 24.792 124.453 23.576C123.279 22.36 122.373 20.952 121.733 19.352C121.093 17.7307 120.773 15.992 120.773 14.136C120.773 12.28 121.093 10.552 121.733 8.952C122.373 7.33067 123.279 5.912 124.453 4.696C125.626 3.48 127.023 2.53067 128.645 1.848C130.287 1.144 132.111 0.791998 134.117 0.791998C136.122 0.791998 137.935 1.144 139.557 1.848C141.199 2.53067 142.607 3.48 143.781 4.696C144.954 5.912 145.861 7.33067 146.501 8.952C147.141 10.552 147.461 12.28 147.461 14.136C147.461 15.992 147.141 17.7307 146.501 19.352C145.861 20.952 144.954 22.36 143.781 23.576C142.607 24.792 141.199 25.752 139.557 26.456C137.935 27.1387 136.122 27.48 134.117 27.48ZM171.318 27V1.272H172.278V27H171.318ZM167.094 27V1.272H168.054V27H167.094ZM169.206 27V1.272H170.166V27H169.206ZM154.23 27V1.272H155.19V27H154.23ZM150.006 27V1.272H150.966V27H150.006ZM152.118 27V1.272H153.078V27H152.118ZM165.942 18.136L156.342 4.344V2.648L165.942 16.44V18.136ZM165.942 21.848L156.342 8.056V6.36L165.942 20.152V21.848ZM165.942 25.56L156.342 11.768V10.072L165.942 23.864V25.56ZM179.699 27V1.272H180.659V27H179.699ZM175.475 27V1.272H176.435V27H175.475ZM177.587 27V1.272H178.547V27H177.587ZM181.811 2.232V1.272H194.579V2.232H181.811ZM181.811 4.344V3.384H194.579V4.344H181.811ZM181.811 6.456V5.496H194.579V6.456H181.811ZM181.811 12.504V11.544H192.755V12.504H181.811ZM181.811 14.616V13.656H192.755V14.616H181.811ZM181.811 16.728V15.768H192.755V16.728H181.811ZM181.811 22.776V21.816H194.579V22.776H181.811ZM181.811 24.888V23.928H194.579V24.888H181.811ZM181.811 27V26.04H194.579V27H181.811ZM8.35559 39L5.10359 29.352H5.48759L8.73959 39H8.35559ZM6.67559 39L3.42359 29.352H3.80759L7.05959 39H6.67559ZM7.51559 39L4.26359 29.352H4.64759L7.89959 39H7.51559ZM8.58359 37.188L8.39159 36.6L10.8156 29.352H11.1996L8.58359 37.188ZM8.16359 35.928L7.97159 35.364L9.97559 29.352H10.3596L8.16359 35.928ZM9.00359 38.412L8.81159 37.86L11.6556 29.352H12.0396L9.00359 38.412ZM21.8049 34.176C21.8049 33.536 21.6929 32.936 21.4689 32.376C21.2529 31.808 20.9409 31.312 20.5329 30.888C20.1249 30.464 19.6369 30.132 19.0689 29.892C18.5009 29.652 17.8649 29.532 17.1609 29.532C16.4569 29.532 15.8209 29.652 15.2529 29.892C14.6849 30.132 14.1969 30.464 13.7889 30.888C13.3809 31.312 13.0649 31.808 12.8409 32.376C12.6249 32.936 12.5169 33.536 12.5169 34.176C12.5169 34.816 12.6249 35.42 12.8409 35.988C13.0649 36.548 13.3809 37.04 13.7889 37.464C14.1969 37.888 14.6849 38.22 15.2529 38.46C15.8209 38.7 16.4569 38.82 17.1609 38.82C17.8649 38.82 18.5009 38.7 19.0689 38.46C19.6369 38.22 20.1249 37.888 20.5329 37.464C20.9409 37.04 21.2529 36.548 21.4689 35.988C21.6929 35.42 21.8049 34.816 21.8049 34.176ZM21.0129 34.176C21.0129 33.464 20.8569 32.82 20.5449 32.244C20.2329 31.66 19.7889 31.196 19.2129 30.852C18.6369 30.508 17.9529 30.336 17.1609 30.336C16.3769 30.336 15.6929 30.508 15.1089 30.852C14.5329 31.196 14.0889 31.66 13.7769 32.244C13.4649 32.82 13.3089 33.464 13.3089 34.176C13.3089 34.88 13.4649 35.524 13.7769 36.108C14.0889 36.692 14.5329 37.156 15.1089 37.5C15.6929 37.844 16.3769 38.016 17.1609 38.016C17.9529 38.016 18.6369 37.844 19.2129 37.5C19.7889 37.156 20.2329 36.692 20.5449 36.108C20.8569 35.524 21.0129 34.88 21.0129 34.176ZM20.2209 34.176C20.2209 33.616 20.1009 33.108 19.8609 32.652C19.6209 32.188 19.2729 31.82 18.8169 31.548C18.3609 31.268 17.8089 31.128 17.1609 31.128C16.5209 31.128 15.9689 31.268 15.5049 31.548C15.0489 31.82 14.7009 32.188 14.4609 32.652C14.2209 33.108 14.1009 33.616 14.1009 34.176C14.1009 34.736 14.2209 35.248 14.4609 35.712C14.7009 36.168 15.0489 36.536 15.5049 36.816C15.9689 37.088 16.5209 37.224 17.1609 37.224C17.8089 37.224 18.3609 37.088 18.8169 36.816C19.2729 36.536 19.6209 36.168 19.8609 35.712C20.1009 35.248 20.2209 34.736 20.2209 34.176ZM17.1609 37.596C16.4489 37.596 15.8369 37.444 15.3249 37.14C14.8129 36.828 14.4209 36.412 14.1489 35.892C13.8769 35.372 13.7409 34.8 13.7409 34.176C13.7409 33.544 13.8769 32.972 14.1489 32.46C14.4209 31.94 14.8129 31.528 15.3249 31.224C15.8369 30.912 16.4489 30.756 17.1609 30.756C17.8729 30.756 18.4849 30.912 18.9969 31.224C19.5089 31.528 19.9009 31.94 20.1729 32.46C20.4449 32.972 20.5809 33.544 20.5809 34.176C20.5809 34.8 20.4449 35.372 20.1729 35.892C19.9009 36.412 19.5089 36.828 18.9969 37.14C18.4849 37.444 17.8729 37.596 17.1609 37.596ZM17.1609 38.388C16.5209 38.388 15.9409 38.28 15.4209 38.064C14.9089 37.84 14.4649 37.536 14.0889 37.152C13.7209 36.768 13.4369 36.324 13.2369 35.82C13.0449 35.308 12.9489 34.76 12.9489 34.176C12.9489 33.592 13.0449 33.048 13.2369 32.544C13.4369 32.032 13.7209 31.584 14.0889 31.2C14.4649 30.808 14.9089 30.504 15.4209 30.288C15.9409 30.072 16.5209 29.964 17.1609 29.964C17.8009 29.964 18.3769 30.072 18.8889 30.288C19.4089 30.504 19.8529 30.808 20.2209 31.2C20.5969 31.584 20.8809 32.032 21.0729 32.544C21.2729 33.048 21.3729 33.592 21.3729 34.176C21.3729 34.76 21.2729 35.308 21.0729 35.82C20.8809 36.324 20.5969 36.768 20.2209 37.152C19.8529 37.536 19.4089 37.84 18.8889 38.064C18.3769 38.28 17.8009 38.388 17.1609 38.388ZM17.1609 39.18C16.4089 39.18 15.7249 39.052 15.1089 38.796C14.5009 38.532 13.9769 38.172 13.5369 37.716C13.0969 37.26 12.7569 36.732 12.5169 36.132C12.2769 35.524 12.1569 34.872 12.1569 34.176C12.1569 33.48 12.2769 32.832 12.5169 32.232C12.7569 31.624 13.0969 31.092 13.5369 30.636C13.9769 30.18 14.5009 29.824 15.1089 29.568C15.7249 29.304 16.4089 29.172 17.1609 29.172C17.9129 29.172 18.5929 29.304 19.2009 29.568C19.8169 29.824 20.3449 30.18 20.7849 30.636C21.2249 31.092 21.5649 31.624 21.8049 32.232C22.0449 32.832 22.1649 33.48 22.1649 34.176C22.1649 34.872 22.0449 35.524 21.8049 36.132C21.5649 36.732 21.2249 37.26 20.7849 37.716C20.3449 38.172 19.8169 38.532 19.2009 38.796C18.5929 39.052 17.9129 39.18 17.1609 39.18ZM24.7035 39V29.352H25.0635V39H24.7035ZM23.1195 39V29.352H23.4795V39H23.1195ZM23.9115 39V29.352H24.2715V39H23.9115ZM25.4955 37.416V37.056H29.5995V37.416H25.4955ZM25.4955 38.208V37.848H29.5995V38.208H25.4955ZM25.4955 39V38.64H29.5995V39H25.4955ZM33.4933 37.596C33.0373 37.596 32.6573 37.504 32.3533 37.32C32.0573 37.136 31.8333 36.892 31.6813 36.588C31.5373 36.276 31.4653 35.932 31.4653 35.556V29.352H31.8253V35.556C31.8253 36.02 31.9573 36.416 32.2213 36.744C32.4853 37.072 32.9093 37.236 33.4933 37.236C34.0773 37.236 34.5013 37.072 34.7653 36.744C35.0293 36.416 35.1613 36.02 35.1613 35.556V29.352H35.5213V35.556C35.5213 35.932 35.4453 36.276 35.2933 36.588C35.1493 36.892 34.9253 37.136 34.6213 37.32C34.3253 37.504 33.9493 37.596 33.4933 37.596ZM33.4933 39.18C32.7493 39.18 32.1053 39.02 31.5613 38.7C31.0253 38.372 30.6093 37.932 30.3133 37.38C30.0253 36.828 29.8813 36.22 29.8813 35.556V29.352H30.2413V35.556C30.2413 36.156 30.3693 36.704 30.6253 37.2C30.8893 37.696 31.2613 38.092 31.7413 38.388C32.2293 38.676 32.8133 38.82 33.4933 38.82C34.1733 38.82 34.7533 38.676 35.2333 38.388C35.7213 38.092 36.0933 37.696 36.3493 37.2C36.6133 36.704 36.7453 36.156 36.7453 35.556V29.352H37.1053V35.556C37.1053 36.22 36.9573 36.828 36.6613 37.38C36.3733 37.932 35.9613 38.372 35.4253 38.7C34.8893 39.02 34.2453 39.18 33.4933 39.18ZM33.4933 38.388C32.8933 38.388 32.3813 38.26 31.9573 38.004C31.5413 37.748 31.2213 37.408 30.9973 36.984C30.7813 36.552 30.6733 36.076 30.6733 35.556V29.352H31.0333V35.556C31.0333 36.012 31.1253 36.428 31.3093 36.804C31.5013 37.172 31.7813 37.468 32.1493 37.692C32.5173 37.916 32.9653 38.028 33.4933 38.028C34.0293 38.028 34.4773 37.916 34.8373 37.692C35.2053 37.468 35.4813 37.172 35.6653 36.804C35.8573 36.428 35.9533 36.012 35.9533 35.556V29.352H36.3133V35.556C36.3133 36.076 36.2013 36.552 35.9773 36.984C35.7613 37.408 35.4413 37.748 35.0173 38.004C34.6013 38.26 34.0933 38.388 33.4933 38.388ZM39.891 39V29.352H40.251V39H39.891ZM38.307 39V29.352H38.667V39H38.307ZM39.099 39V29.352H39.459V39H39.099ZM47.655 39V29.352H48.015V39H47.655ZM46.071 39V29.352H46.431V39H46.071ZM46.863 39V29.352H47.223V39H46.863ZM43.611 33.432L43.395 33.108L45.639 29.856V30.492L43.611 33.432ZM44.091 35.508L40.683 30.636V30.024L44.319 35.196L44.091 35.508ZM44.103 34.128L43.887 33.804L45.639 31.308V31.932L44.103 34.128ZM43.611 36.216L40.683 32.04V31.404L43.827 35.892L43.611 36.216ZM44.583 34.812L44.367 34.5L45.639 32.688V33.312L44.583 34.812ZM43.131 36.9L40.683 33.42V32.784L43.347 36.588L43.131 36.9ZM50.8012 39V29.352H51.1612V39H50.8012ZM49.2172 39V29.352H49.5772V39H49.2172ZM50.0092 39V29.352H50.3692V39H50.0092ZM51.5932 29.712V29.352H56.3812V29.712H51.5932ZM51.5932 30.504V30.144H56.3812V30.504H51.5932ZM51.5932 31.296V30.936H56.3812V31.296H51.5932ZM51.5932 33.564V33.204H55.6972V33.564H51.5932ZM51.5932 34.356V33.996H55.6972V34.356H51.5932ZM51.5932 35.148V34.788H55.6972V35.148H51.5932ZM51.5932 37.416V37.056H56.3812V37.416H51.5932ZM51.5932 38.208V37.848H56.3812V38.208H51.5932ZM51.5932 39V38.64H56.3812V39H51.5932ZM56.8583 29.712V29.352H64.3103V29.712H56.8583ZM56.8583 30.504V30.144H64.3103V30.504H56.8583ZM56.8583 31.296V30.936H64.3103V31.296H56.8583ZM61.2023 39V31.68H61.5623V39H61.2023ZM59.6183 39V31.68H59.9783V39H59.6183ZM60.4103 39V31.68H60.7703V39H60.4103ZM66.6098 39V29.352H66.9698V39H66.6098ZM65.0258 39V29.352H65.3858V39H65.0258ZM65.8178 39V29.352H66.1778V39H65.8178ZM67.4018 34.968V34.608H70.2218C70.6778 34.608 71.0898 34.508 71.4578 34.308C71.8338 34.108 72.1298 33.824 72.3458 33.456C72.5698 33.088 72.6818 32.656 72.6818 32.16C72.6818 31.664 72.5698 31.232 72.3458 30.864C72.1298 30.496 71.8338 30.212 71.4578 30.012C71.0898 29.812 70.6778 29.712 70.2218 29.712H67.4018V29.352H70.2218C70.7418 29.352 71.2138 29.472 71.6378 29.712C72.0698 29.944 72.4098 30.272 72.6578 30.696C72.9138 31.112 73.0418 31.6 73.0418 32.16C73.0418 32.72 72.9138 33.212 72.6578 33.636C72.4098 34.052 72.0698 34.38 71.6378 34.62C71.2138 34.852 70.7418 34.968 70.2218 34.968H67.4018ZM67.4018 34.176V33.816H70.2218C70.6858 33.816 71.0778 33.672 71.3978 33.384C71.7258 33.088 71.8898 32.68 71.8898 32.16C71.8898 31.64 71.7258 31.236 71.3978 30.948C71.0778 30.652 70.6858 30.504 70.2218 30.504H67.4018V30.144H70.2218C70.5978 30.144 70.9378 30.228 71.2418 30.396C71.5458 30.556 71.7898 30.788 71.9738 31.092C72.1578 31.388 72.2498 31.744 72.2498 32.16C72.2498 32.576 72.1578 32.936 71.9738 33.24C71.7898 33.536 71.5458 33.768 71.2418 33.936C70.9378 34.096 70.5978 34.176 70.2218 34.176H67.4018ZM67.4018 33.384V33.024H70.2218C70.4618 33.024 70.6658 32.956 70.8338 32.82C71.0098 32.676 71.0978 32.456 71.0978 32.16C71.0978 31.856 71.0098 31.636 70.8338 31.5C70.6658 31.364 70.4618 31.296 70.2218 31.296H67.4018V30.936H70.2218C70.5658 30.936 70.8578 31.04 71.0978 31.248C71.3378 31.456 71.4578 31.76 71.4578 32.16C71.4578 32.56 71.3378 32.864 71.0978 33.072C70.8578 33.28 70.5658 33.384 70.2218 33.384H67.4018ZM72.5498 39L70.8578 35.292C70.9138 35.284 70.9698 35.276 71.0258 35.268C71.0898 35.252 71.1498 35.232 71.2058 35.208L72.9458 39H72.5498ZM71.6738 39L70.0058 35.376C70.0698 35.376 70.1338 35.376 70.1978 35.376C70.2698 35.368 70.3378 35.36 70.4018 35.352L72.0698 39H71.6738ZM70.7978 39L69.1418 35.388H69.5378L71.1938 39H70.7978ZM75.5512 39V29.352H75.9112V39H75.5512ZM73.9672 39V29.352H74.3272V39H73.9672ZM74.7592 39V29.352H75.1192V39H74.7592ZM81.8718 37.596C81.1598 37.596 80.5478 37.444 80.0358 37.14C79.5238 36.828 79.1318 36.412 78.8598 35.892C78.5878 35.372 78.4518 34.8 78.4518 34.176C78.4518 33.544 78.5878 32.972 78.8598 32.46C79.1318 31.94 79.5238 31.528 80.0358 31.224C80.5478 30.912 81.1598 30.756 81.8718 30.756C82.3918 30.756 82.8598 30.844 83.2758 31.02C83.6918 31.188 84.0438 31.424 84.3318 31.728L84.0798 31.98C83.8158 31.716 83.4998 31.508 83.1318 31.356C82.7638 31.204 82.3438 31.128 81.8718 31.128C81.2318 31.128 80.6798 31.268 80.2158 31.548C79.7598 31.82 79.4118 32.188 79.1718 32.652C78.9318 33.108 78.8118 33.616 78.8118 34.176C78.8118 34.736 78.9318 35.248 79.1718 35.712C79.4118 36.168 79.7598 36.536 80.2158 36.816C80.6798 37.088 81.2318 37.224 81.8718 37.224C82.3438 37.224 82.7638 37.148 83.1318 36.996C83.4998 36.844 83.8158 36.636 84.0798 36.372L84.3318 36.624C84.0438 36.92 83.6918 37.156 83.2758 37.332C82.8598 37.508 82.3918 37.596 81.8718 37.596ZM81.8718 38.388C81.2318 38.388 80.6518 38.28 80.1318 38.064C79.6198 37.84 79.1758 37.536 78.7998 37.152C78.4318 36.768 78.1478 36.324 77.9478 35.82C77.7558 35.308 77.6598 34.76 77.6598 34.176C77.6598 33.592 77.7558 33.048 77.9478 32.544C78.1478 32.032 78.4318 31.584 78.7998 31.2C79.1758 30.808 79.6198 30.504 80.1318 30.288C80.6518 30.072 81.2318 29.964 81.8718 29.964C82.5038 29.964 83.0718 30.072 83.5758 30.288C84.0878 30.496 84.5278 30.788 84.8958 31.164L84.6318 31.428C84.3038 31.084 83.9038 30.816 83.4318 30.624C82.9678 30.432 82.4478 30.336 81.8718 30.336C81.0878 30.336 80.4038 30.508 79.8198 30.852C79.2438 31.196 78.7998 31.66 78.4878 32.244C78.1758 32.82 78.0198 33.464 78.0198 34.176C78.0198 34.88 78.1758 35.524 78.4878 36.108C78.7998 36.692 79.2438 37.156 79.8198 37.5C80.4038 37.844 81.0878 38.016 81.8718 38.016C82.4478 38.016 82.9678 37.92 83.4318 37.728C83.9038 37.536 84.3038 37.268 84.6318 36.924L84.8958 37.188C84.5278 37.556 84.0878 37.848 83.5758 38.064C83.0718 38.28 82.5038 38.388 81.8718 38.388ZM81.8718 39.18C81.1198 39.18 80.4358 39.052 79.8198 38.796C79.2118 38.532 78.6878 38.172 78.2478 37.716C77.8078 37.26 77.4678 36.732 77.2278 36.132C76.9878 35.524 76.8678 34.872 76.8678 34.176C76.8678 33.48 76.9878 32.832 77.2278 32.232C77.4678 31.624 77.8078 31.092 78.2478 30.636C78.6878 30.18 79.2118 29.824 79.8198 29.568C80.4358 29.304 81.1198 29.172 81.8718 29.172C82.6078 29.172 83.2798 29.3 83.8878 29.556C84.4958 29.804 85.0198 30.152 85.4598 30.6L85.2078 30.852C84.7998 30.444 84.3118 30.124 83.7438 29.892C83.1838 29.652 82.5598 29.532 81.8718 29.532C81.1678 29.532 80.5318 29.652 79.9638 29.892C79.3958 30.132 78.9078 30.464 78.4998 30.888C78.0918 31.312 77.7758 31.808 77.5518 32.376C77.3358 32.936 77.2278 33.536 77.2278 34.176C77.2278 34.816 77.3358 35.42 77.5518 35.988C77.7758 36.548 78.0918 37.04 78.4998 37.464C78.9078 37.888 79.3958 38.22 79.9638 38.46C80.5318 38.7 81.1678 38.82 81.8718 38.82C82.5598 38.82 83.1838 38.704 83.7438 38.472C84.3118 38.232 84.7998 37.908 85.2078 37.5L85.4598 37.752C85.0198 38.192 84.4958 38.54 83.8878 38.796C83.2798 39.052 82.6078 39.18 81.8718 39.18ZM93.4835 39L91.0595 29.352H91.4315L93.8555 39H93.4835ZM91.8515 39L89.4275 29.352H89.7995L92.2235 39H91.8515ZM92.6675 39L90.2435 29.352H90.6155L93.0395 39H92.6675ZM94.0835 38.112L93.8915 37.356L95.9075 29.352H96.2795L94.0835 38.112ZM93.6635 36.504L93.4835 35.772L95.0915 29.352H95.4635L93.6635 36.504ZM93.2555 34.872L93.0875 34.116L94.2755 29.352H94.6475L93.2555 34.872ZM98.4155 38.088L98.2355 37.344L100.24 29.352H100.612L98.4155 38.088ZM98.0195 36.456L97.8395 35.712L99.4235 29.352H99.7955L98.0195 36.456ZM97.5995 34.824L97.4195 34.08L98.6075 29.352H98.9795L97.5995 34.824ZM97.8275 39L96.0635 32.004L96.2555 31.248L98.1995 39H97.8275ZM97.0235 39L95.6675 33.588L95.8475 32.856L97.3955 39H97.0235ZM96.2075 39L95.2475 35.208L95.4395 34.452L96.5795 39H96.2075ZM103.032 39V29.352H103.392V39H103.032ZM101.448 39V29.352H101.808V39H101.448ZM102.24 39V29.352H102.6V39H102.24ZM103.824 34.968V34.608H106.644C107.1 34.608 107.512 34.508 107.88 34.308C108.256 34.108 108.552 33.824 108.768 33.456C108.992 33.088 109.104 32.656 109.104 32.16C109.104 31.664 108.992 31.232 108.768 30.864C108.552 30.496 108.256 30.212 107.88 30.012C107.512 29.812 107.1 29.712 106.644 29.712H103.824V29.352H106.644C107.164 29.352 107.636 29.472 108.06 29.712C108.492 29.944 108.832 30.272 109.08 30.696C109.336 31.112 109.464 31.6 109.464 32.16C109.464 32.72 109.336 33.212 109.08 33.636C108.832 34.052 108.492 34.38 108.06 34.62C107.636 34.852 107.164 34.968 106.644 34.968H103.824ZM103.824 34.176V33.816H106.644C107.108 33.816 107.5 33.672 107.82 33.384C108.148 33.088 108.312 32.68 108.312 32.16C108.312 31.64 108.148 31.236 107.82 30.948C107.5 30.652 107.108 30.504 106.644 30.504H103.824V30.144H106.644C107.02 30.144 107.36 30.228 107.664 30.396C107.968 30.556 108.212 30.788 108.396 31.092C108.58 31.388 108.672 31.744 108.672 32.16C108.672 32.576 108.58 32.936 108.396 33.24C108.212 33.536 107.968 33.768 107.664 33.936C107.36 34.096 107.02 34.176 106.644 34.176H103.824ZM103.824 33.384V33.024H106.644C106.884 33.024 107.088 32.956 107.256 32.82C107.432 32.676 107.52 32.456 107.52 32.16C107.52 31.856 107.432 31.636 107.256 31.5C107.088 31.364 106.884 31.296 106.644 31.296H103.824V30.936H106.644C106.988 30.936 107.28 31.04 107.52 31.248C107.76 31.456 107.88 31.76 107.88 32.16C107.88 32.56 107.76 32.864 107.52 33.072C107.28 33.28 106.988 33.384 106.644 33.384H103.824ZM108.972 39L107.28 35.292C107.336 35.284 107.392 35.276 107.448 35.268C107.512 35.252 107.572 35.232 107.628 35.208L109.368 39H108.972ZM108.096 39L106.428 35.376C106.492 35.376 106.556 35.376 106.62 35.376C106.692 35.368 106.76 35.36 106.824 35.352L108.492 39H108.096ZM107.22 39L105.564 35.388H105.96L107.616 39H107.22ZM111.973 39V29.352H112.333V39H111.973ZM110.389 39V29.352H110.749V39H110.389ZM111.181 39V29.352H111.541V39H111.181ZM116.854 37.596C116.286 37.596 115.818 37.488 115.45 37.272C115.082 37.048 114.882 36.752 114.85 36.384L115.198 36.288C115.198 36.56 115.35 36.788 115.654 36.972C115.966 37.148 116.366 37.236 116.854 37.236C117.358 37.236 117.766 37.144 118.078 36.96C118.398 36.776 118.558 36.54 118.558 36.252C118.558 35.98 118.426 35.76 118.162 35.592C117.898 35.424 117.538 35.276 117.082 35.148L116.338 34.932C115.346 34.644 114.598 34.28 114.094 33.84C113.59 33.4 113.338 32.796 113.338 32.028C113.338 31.476 113.49 30.988 113.794 30.564C114.106 30.132 114.526 29.792 115.054 29.544C115.59 29.296 116.194 29.172 116.866 29.172C117.474 29.172 118.022 29.272 118.51 29.472C119.006 29.664 119.414 29.94 119.734 30.3C120.062 30.66 120.27 31.08 120.358 31.56L120.01 31.656C119.938 31.232 119.758 30.86 119.47 30.54C119.182 30.22 118.814 29.972 118.366 29.796C117.918 29.62 117.418 29.532 116.866 29.532C116.258 29.532 115.714 29.644 115.234 29.868C114.762 30.084 114.386 30.38 114.106 30.756C113.834 31.132 113.698 31.564 113.698 32.052C113.698 32.708 113.926 33.236 114.382 33.636C114.846 34.028 115.53 34.348 116.434 34.596L117.178 34.8C117.73 34.952 118.158 35.136 118.462 35.352C118.766 35.568 118.918 35.86 118.918 36.228C118.918 36.636 118.73 36.968 118.354 37.224C117.978 37.472 117.478 37.596 116.854 37.596ZM116.854 38.388C116.102 38.388 115.47 38.224 114.958 37.896C114.454 37.56 114.158 37.124 114.07 36.588L114.43 36.492C114.494 36.956 114.742 37.328 115.174 37.608C115.614 37.888 116.174 38.028 116.854 38.028C117.35 38.028 117.786 37.952 118.162 37.8C118.538 37.648 118.83 37.436 119.038 37.164C119.246 36.892 119.35 36.58 119.35 36.228C119.35 35.74 119.166 35.356 118.798 35.076C118.43 34.788 117.922 34.556 117.274 34.38L116.542 34.176C115.766 33.96 115.17 33.688 114.754 33.36C114.338 33.032 114.13 32.596 114.13 32.052C114.13 31.644 114.246 31.284 114.478 30.972C114.718 30.66 115.046 30.416 115.462 30.24C115.878 30.056 116.346 29.964 116.866 29.964C117.354 29.964 117.79 30.04 118.174 30.192C118.566 30.336 118.886 30.544 119.134 30.816C119.382 31.088 119.534 31.404 119.59 31.764L119.23 31.86C119.174 31.396 118.926 31.024 118.486 30.744C118.054 30.464 117.514 30.324 116.866 30.324C116.41 30.324 116.002 30.4 115.642 30.552C115.282 30.696 114.998 30.9 114.79 31.164C114.59 31.42 114.49 31.716 114.49 32.052C114.49 32.508 114.67 32.868 115.03 33.132C115.398 33.396 115.93 33.628 116.626 33.828L117.346 34.032C118.09 34.24 118.67 34.516 119.086 34.86C119.502 35.196 119.71 35.652 119.71 36.228C119.71 36.652 119.59 37.028 119.35 37.356C119.11 37.676 118.774 37.928 118.342 38.112C117.918 38.296 117.422 38.388 116.854 38.388ZM116.854 39.18C116.23 39.18 115.666 39.084 115.162 38.892C114.666 38.692 114.254 38.416 113.926 38.064C113.606 37.704 113.398 37.28 113.302 36.792L113.65 36.696C113.73 37.128 113.91 37.504 114.19 37.824C114.478 38.136 114.85 38.38 115.306 38.556C115.762 38.732 116.278 38.82 116.854 38.82C117.51 38.82 118.082 38.712 118.57 38.496C119.066 38.272 119.45 37.968 119.722 37.584C120.002 37.192 120.142 36.74 120.142 36.228C120.142 35.548 119.906 35.004 119.434 34.596C118.962 34.188 118.298 33.86 117.442 33.612L116.734 33.408C116.15 33.24 115.702 33.056 115.39 32.856C115.078 32.656 114.922 32.388 114.922 32.052C114.922 31.66 115.106 31.348 115.474 31.116C115.842 30.876 116.306 30.756 116.866 30.756C117.41 30.756 117.858 30.868 118.21 31.092C118.562 31.316 118.762 31.608 118.81 31.968L118.462 32.064C118.446 31.784 118.29 31.556 117.994 31.38C117.706 31.204 117.33 31.116 116.866 31.116C116.426 31.116 116.05 31.2 115.738 31.368C115.434 31.536 115.282 31.756 115.282 32.028C115.282 32.276 115.422 32.476 115.702 32.628C115.99 32.78 116.366 32.924 116.83 33.06L117.514 33.264C118.482 33.552 119.222 33.928 119.734 34.392C120.246 34.848 120.502 35.468 120.502 36.252C120.502 36.82 120.346 37.328 120.034 37.776C119.73 38.216 119.302 38.56 118.75 38.808C118.206 39.056 117.574 39.18 116.854 39.18ZM120.737 29.712V29.352H128.189V29.712H120.737ZM120.737 30.504V30.144H128.189V30.504H120.737ZM120.737 31.296V30.936H128.189V31.296H120.737ZM125.081 39V31.68H125.441V39H125.081ZM123.497 39V31.68H123.857V39H123.497ZM124.289 39V31.68H124.649V39H124.289ZM135.964 39L133.54 29.352H133.912L136.336 39H135.964ZM134.332 39L131.908 29.352H132.28L134.704 39H134.332ZM135.148 39L132.724 29.352H133.096L135.52 39H135.148ZM136.564 38.112L136.372 37.356L138.388 29.352H138.76L136.564 38.112ZM136.144 36.504L135.964 35.772L137.572 29.352H137.944L136.144 36.504ZM135.736 34.872L135.568 34.116L136.756 29.352H137.128L135.736 34.872ZM140.896 38.088L140.716 37.344L142.72 29.352H143.092L140.896 38.088ZM140.5 36.456L140.32 35.712L141.904 29.352H142.276L140.5 36.456ZM140.08 34.824L139.9 34.08L141.088 29.352H141.46L140.08 34.824ZM140.308 39L138.544 32.004L138.736 31.248L140.68 39H140.308ZM139.504 39L138.148 33.588L138.328 32.856L139.876 39H139.504ZM138.688 39L137.728 35.208L137.92 34.452L139.06 39H138.688ZM144.533 39L148.025 29.352H148.409L144.917 39H144.533ZM142.853 39L146.345 29.352H146.717L143.237 39H142.853ZM143.693 39L147.173 29.352H147.569L144.077 39H143.693ZM151.565 39L148.433 30.348L148.625 29.808L151.949 39H151.565ZM150.725 39L148.025 31.524L148.205 30.972L151.109 39H150.725ZM149.885 39L147.605 32.688L147.797 32.148L150.269 39H149.885ZM146.489 35.808L146.621 35.448H148.205L148.337 35.808H146.489ZM146.201 36.612L146.333 36.252H148.493L148.625 36.612H146.201ZM145.913 37.404L146.045 37.044H148.781L148.913 37.404H145.913ZM151.112 29.712V29.352H158.564V29.712H151.112ZM151.112 30.504V30.144H158.564V30.504H151.112ZM151.112 31.296V30.936H158.564V31.296H151.112ZM155.456 39V31.68H155.816V39H155.456ZM153.872 39V31.68H154.232V39H153.872ZM154.664 39V31.68H155.024V39H154.664ZM163.563 37.596C162.851 37.596 162.239 37.444 161.727 37.14C161.215 36.828 160.823 36.412 160.551 35.892C160.279 35.372 160.143 34.8 160.143 34.176C160.143 33.544 160.279 32.972 160.551 32.46C160.823 31.94 161.215 31.528 161.727 31.224C162.239 30.912 162.851 30.756 163.563 30.756C164.083 30.756 164.551 30.844 164.967 31.02C165.383 31.188 165.735 31.424 166.023 31.728L165.771 31.98C165.507 31.716 165.191 31.508 164.823 31.356C164.455 31.204 164.035 31.128 163.563 31.128C162.923 31.128 162.371 31.268 161.907 31.548C161.451 31.82 161.103 32.188 160.863 32.652C160.623 33.108 160.503 33.616 160.503 34.176C160.503 34.736 160.623 35.248 160.863 35.712C161.103 36.168 161.451 36.536 161.907 36.816C162.371 37.088 162.923 37.224 163.563 37.224C164.035 37.224 164.455 37.148 164.823 36.996C165.191 36.844 165.507 36.636 165.771 36.372L166.023 36.624C165.735 36.92 165.383 37.156 164.967 37.332C164.551 37.508 164.083 37.596 163.563 37.596ZM163.563 38.388C162.923 38.388 162.343 38.28 161.823 38.064C161.311 37.84 160.867 37.536 160.491 37.152C160.123 36.768 159.839 36.324 159.639 35.82C159.447 35.308 159.351 34.76 159.351 34.176C159.351 33.592 159.447 33.048 159.639 32.544C159.839 32.032 160.123 31.584 160.491 31.2C160.867 30.808 161.311 30.504 161.823 30.288C162.343 30.072 162.923 29.964 163.563 29.964C164.195 29.964 164.763 30.072 165.267 30.288C165.779 30.496 166.219 30.788 166.587 31.164L166.323 31.428C165.995 31.084 165.595 30.816 165.123 30.624C164.659 30.432 164.139 30.336 163.563 30.336C162.779 30.336 162.095 30.508 161.511 30.852C160.935 31.196 160.491 31.66 160.179 32.244C159.867 32.82 159.711 33.464 159.711 34.176C159.711 34.88 159.867 35.524 160.179 36.108C160.491 36.692 160.935 37.156 161.511 37.5C162.095 37.844 162.779 38.016 163.563 38.016C164.139 38.016 164.659 37.92 165.123 37.728C165.595 37.536 165.995 37.268 166.323 36.924L166.587 37.188C166.219 37.556 165.779 37.848 165.267 38.064C164.763 38.28 164.195 38.388 163.563 38.388ZM163.563 39.18C162.811 39.18 162.127 39.052 161.511 38.796C160.903 38.532 160.379 38.172 159.939 37.716C159.499 37.26 159.159 36.732 158.919 36.132C158.679 35.524 158.559 34.872 158.559 34.176C158.559 33.48 158.679 32.832 158.919 32.232C159.159 31.624 159.499 31.092 159.939 30.636C160.379 30.18 160.903 29.824 161.511 29.568C162.127 29.304 162.811 29.172 163.563 29.172C164.299 29.172 164.971 29.3 165.579 29.556C166.187 29.804 166.711 30.152 167.151 30.6L166.899 30.852C166.491 30.444 166.003 30.124 165.435 29.892C164.875 29.652 164.251 29.532 163.563 29.532C162.859 29.532 162.223 29.652 161.655 29.892C161.087 30.132 160.599 30.464 160.191 30.888C159.783 31.312 159.467 31.808 159.243 32.376C159.027 32.936 158.919 33.536 158.919 34.176C158.919 34.816 159.027 35.42 159.243 35.988C159.467 36.548 159.783 37.04 160.191 37.464C160.599 37.888 161.087 38.22 161.655 38.46C162.223 38.7 162.859 38.82 163.563 38.82C164.251 38.82 164.875 38.704 165.435 38.472C166.003 38.232 166.491 37.908 166.899 37.5L167.151 37.752C166.711 38.192 166.187 38.54 165.579 38.796C164.971 39.052 164.299 39.18 163.563 39.18ZM169.582 39V29.352H169.942V39H169.582ZM167.998 39V29.352H168.358V39H167.998ZM168.79 39V29.352H169.15V39H168.79ZM175.81 39V29.352H176.17V39H175.81ZM174.226 39V29.352H174.586V39H174.226ZM175.018 39V29.352H175.378V39H175.018ZM170.374 33.564V33.204H173.794V33.564H170.374ZM170.374 34.356V33.996H173.794V34.356H170.374ZM170.374 35.148V34.788H173.794V35.148H170.374ZM178.957 39V29.352H179.317V39H178.957ZM177.373 39V29.352H177.733V39H177.373ZM178.165 39V29.352H178.525V39H178.165ZM179.749 29.712V29.352H184.537V29.712H179.749ZM179.749 30.504V30.144H184.537V30.504H179.749ZM179.749 31.296V30.936H184.537V31.296H179.749ZM179.749 33.564V33.204H183.853V33.564H179.749ZM179.749 34.356V33.996H183.853V34.356H179.749ZM179.749 35.148V34.788H183.853V35.148H179.749ZM179.749 37.416V37.056H184.537V37.416H179.749ZM179.749 38.208V37.848H184.537V38.208H179.749ZM179.749 39V38.64H184.537V39H179.749ZM188.819 37.596C188.251 37.596 187.783 37.488 187.415 37.272C187.047 37.048 186.847 36.752 186.815 36.384L187.163 36.288C187.163 36.56 187.315 36.788 187.619 36.972C187.931 37.148 188.331 37.236 188.819 37.236C189.323 37.236 189.731 37.144 190.043 36.96C190.363 36.776 190.523 36.54 190.523 36.252C190.523 35.98 190.391 35.76 190.127 35.592C189.863 35.424 189.503 35.276 189.047 35.148L188.303 34.932C187.311 34.644 186.563 34.28 186.059 33.84C185.555 33.4 185.303 32.796 185.303 32.028C185.303 31.476 185.455 30.988 185.759 30.564C186.071 30.132 186.491 29.792 187.019 29.544C187.555 29.296 188.159 29.172 188.831 29.172C189.439 29.172 189.987 29.272 190.475 29.472C190.971 29.664 191.379 29.94 191.699 30.3C192.027 30.66 192.235 31.08 192.323 31.56L191.975 31.656C191.903 31.232 191.723 30.86 191.435 30.54C191.147 30.22 190.779 29.972 190.331 29.796C189.883 29.62 189.383 29.532 188.831 29.532C188.223 29.532 187.679 29.644 187.199 29.868C186.727 30.084 186.351 30.38 186.071 30.756C185.799 31.132 185.663 31.564 185.663 32.052C185.663 32.708 185.891 33.236 186.347 33.636C186.811 34.028 187.495 34.348 188.399 34.596L189.143 34.8C189.695 34.952 190.123 35.136 190.427 35.352C190.731 35.568 190.883 35.86 190.883 36.228C190.883 36.636 190.695 36.968 190.319 37.224C189.943 37.472 189.443 37.596 188.819 37.596ZM188.819 38.388C188.067 38.388 187.435 38.224 186.923 37.896C186.419 37.56 186.123 37.124 186.035 36.588L186.395 36.492C186.459 36.956 186.707 37.328 187.139 37.608C187.579 37.888 188.139 38.028 188.819 38.028C189.315 38.028 189.751 37.952 190.127 37.8C190.503 37.648 190.795 37.436 191.003 37.164C191.211 36.892 191.315 36.58 191.315 36.228C191.315 35.74 191.131 35.356 190.763 35.076C190.395 34.788 189.887 34.556 189.239 34.38L188.507 34.176C187.731 33.96 187.135 33.688 186.719 33.36C186.303 33.032 186.095 32.596 186.095 32.052C186.095 31.644 186.211 31.284 186.443 30.972C186.683 30.66 187.011 30.416 187.427 30.24C187.843 30.056 188.311 29.964 188.831 29.964C189.319 29.964 189.755 30.04 190.139 30.192C190.531 30.336 190.851 30.544 191.099 30.816C191.347 31.088 191.499 31.404 191.555 31.764L191.195 31.86C191.139 31.396 190.891 31.024 190.451 30.744C190.019 30.464 189.479 30.324 188.831 30.324C188.375 30.324 187.967 30.4 187.607 30.552C187.247 30.696 186.963 30.9 186.755 31.164C186.555 31.42 186.455 31.716 186.455 32.052C186.455 32.508 186.635 32.868 186.995 33.132C187.363 33.396 187.895 33.628 188.591 33.828L189.311 34.032C190.055 34.24 190.635 34.516 191.051 34.86C191.467 35.196 191.675 35.652 191.675 36.228C191.675 36.652 191.555 37.028 191.315 37.356C191.075 37.676 190.739 37.928 190.307 38.112C189.883 38.296 189.387 38.388 188.819 38.388ZM188.819 39.18C188.195 39.18 187.631 39.084 187.127 38.892C186.631 38.692 186.219 38.416 185.891 38.064C185.571 37.704 185.363 37.28 185.267 36.792L185.615 36.696C185.695 37.128 185.875 37.504 186.155 37.824C186.443 38.136 186.815 38.38 187.271 38.556C187.727 38.732 188.243 38.82 188.819 38.82C189.475 38.82 190.047 38.712 190.535 38.496C191.031 38.272 191.415 37.968 191.687 37.584C191.967 37.192 192.107 36.74 192.107 36.228C192.107 35.548 191.871 35.004 191.399 34.596C190.927 34.188 190.263 33.86 189.407 33.612L188.699 33.408C188.115 33.24 187.667 33.056 187.355 32.856C187.043 32.656 186.887 32.388 186.887 32.052C186.887 31.66 187.071 31.348 187.439 31.116C187.807 30.876 188.271 30.756 188.831 30.756C189.375 30.756 189.823 30.868 190.175 31.092C190.527 31.316 190.727 31.608 190.775 31.968L190.427 32.064C190.411 31.784 190.255 31.556 189.959 31.38C189.671 31.204 189.295 31.116 188.831 31.116C188.391 31.116 188.015 31.2 187.703 31.368C187.399 31.536 187.247 31.756 187.247 32.028C187.247 32.276 187.387 32.476 187.667 32.628C187.955 32.78 188.331 32.924 188.795 33.06L189.479 33.264C190.447 33.552 191.187 33.928 191.699 34.392C192.211 34.848 192.467 35.468 192.467 36.252C192.467 36.82 192.311 37.328 191.999 37.776C191.695 38.216 191.267 38.56 190.715 38.808C190.171 39.056 189.539 39.18 188.819 39.18Z" fill="black"/>
</svg>
