<svg width="20" height="20" viewBox="0 0 20 20" fill="none" xmlns="http://www.w3.org/2000/svg">
<path fill-rule="evenodd" clip-rule="evenodd" d="M9.99967 0.833008C10.4599 0.833008 10.833 1.2061 10.833 1.66634V9.16634H18.333C18.7932 9.16634 19.1663 9.53944 19.1663 9.99967C19.1663 10.4599 18.7932 10.833 18.333 10.833H10.833V18.333C10.833 18.7932 10.4599 19.1663 9.99967 19.1663C9.53944 19.1663 9.16634 18.7932 9.16634 18.333V10.833H1.66634C1.2061 10.833 0.833008 10.4599 0.833008 9.99967C0.833008 9.53944 1.2061 9.16634 1.66634 9.16634H9.16634V1.66634C9.16634 1.2061 9.53944 0.833008 9.99967 0.833008Z" fill="#680A0A"/>
</svg>
