<svg width="588" height="354" viewBox="0 0 588 354" fill="none" xmlns="http://www.w3.org/2000/svg">
<path d="M14.4083 254.269V210.082L98.1452 90.6138H156.788V207.9H177.791V254.269H156.788V287H102.782V254.269H14.4083ZM106.873 150.893L69.2328 207.9H106.873V150.893ZM411.826 254.269V210.082L495.563 90.6138H554.206V207.9H575.209V254.269H554.206V287H500.2V254.269H411.826ZM504.291 150.893L466.651 207.9H504.291V150.893Z" fill="black"/>
<path d="M446.811 199.942C446.722 202.454 446.609 204.993 446.469 207.556C445.963 216.944 444.717 226.26 442.718 235.4C439.796 248.748 435.261 261.718 429.083 273.971C398.726 334.178 342.994 353.629 298.09 350.749C280.027 349.597 263.716 344.831 251.511 337.646L238.753 323.468L313.01 289.631H336.765C336.765 289.631 336.784 289.618 336.791 289.612C354.145 278.339 366.7 263.471 375.13 246.609C379.962 236.956 383.447 226.652 385.711 216C390.689 192.637 389.822 167.591 384.497 144.04C383.922 141.502 383.301 138.982 382.625 136.482C381.012 130.513 379.115 124.664 376.952 118.994C376.776 118.518 376.592 118.044 376.408 117.576C357.535 69.2252 319.601 34.0645 277.385 46.0776C276.873 46.2233 276.367 46.3747 275.854 46.5332L246.553 82.9474L175.497 92.2328V69.0286C234.732 -6.61679 352.999 -26.9971 411.964 54.1604C412.053 54.2736 412.135 54.3952 412.217 54.5155C419.628 64.7757 426.086 76.6501 431.368 90.2266C431.626 90.8845 431.879 91.5494 432.127 92.22C432.158 92.3021 432.19 92.3841 432.216 92.4662C432.342 92.7888 432.462 93.1184 432.583 93.4467C435.183 100.504 437.472 108.011 439.414 115.973C445.233 139.772 447.971 167.647 446.814 199.94L446.811 199.942Z" fill="white"/>
<path d="M306.786 351.344C303.678 351.344 300.763 351.239 298.068 351.066C280.432 349.943 263.84 345.274 251.349 337.921L251.274 337.861L238.228 323.362L313.008 289.317H336.667C353.152 278.59 365.99 264.18 374.845 246.47C379.533 237.105 383.083 226.832 385.4 215.936C390.169 193.551 389.75 168.714 384.187 144.11C383.593 141.493 382.964 138.955 382.318 136.567C380.713 130.629 378.809 124.756 376.655 119.108C376.478 118.634 376.294 118.16 376.112 117.693C366.496 93.0585 352.058 72.3712 335.454 59.4414C317.269 45.2792 297.218 40.7645 277.469 46.3841C276.99 46.52 276.516 46.6614 276.039 46.81L246.719 83.2468L246.593 83.2638L175.179 92.5959V68.922L175.247 68.8356C208.357 26.5514 260.399 0.869907 311.119 1.76689C352.394 2.51108 388.298 21.0521 412.217 53.9746C412.303 54.0849 412.39 54.2108 412.476 54.3353C420.049 64.819 426.505 76.8576 431.661 90.1115C431.921 90.7708 432.174 91.4386 432.422 92.1106C432.454 92.1955 432.488 92.2846 432.516 92.3751C432.634 92.6737 432.754 93.0005 432.874 93.3287C435.509 100.482 437.811 108.072 439.719 115.899C445.75 140.568 448.242 168.847 447.128 199.954C447.04 202.451 446.925 205.015 446.786 207.574C446.277 217.007 445.013 226.392 443.028 235.468C440.064 249.015 435.467 262.017 429.367 274.115C415.275 302.06 395.028 322.984 369.188 336.3C345.932 348.285 323.561 351.344 306.789 351.344H306.786ZM251.711 337.401C264.114 344.69 280.588 349.318 298.109 350.435C300.806 350.608 303.564 350.697 306.361 350.697C348.255 350.7 400.11 330.731 428.8 273.831C434.876 261.779 439.455 248.828 442.409 235.334C444.387 226.291 445.647 216.94 446.153 207.54C446.291 204.985 446.406 202.424 446.493 199.933C447.606 168.885 445.119 140.662 439.103 116.05C437.2 108.246 434.905 100.679 432.283 93.5579C432.16 93.2226 432.043 92.9 431.918 92.5831C431.887 92.4855 431.858 92.4091 431.829 92.3341C431.582 91.6607 431.33 90.9985 431.072 90.3421C425.936 77.1377 419.505 65.1458 411.959 54.7003C411.875 54.5787 411.797 54.4641 411.713 54.3551C387.906 21.5883 352.18 3.14067 311.108 2.39931C260.649 1.48959 208.805 27.0593 175.81 69.1384V91.8729L246.384 82.6512L275.667 46.261L275.759 46.2313C276.273 46.0729 276.781 45.9201 277.295 45.7729C297.248 40.0967 317.491 44.6496 335.842 58.9405C352.533 71.9397 367.044 92.7218 376.7 117.461C376.884 117.931 377.069 118.406 377.246 118.883C379.407 124.548 381.318 130.442 382.927 136.4C383.576 138.796 384.208 141.344 384.803 143.97C390.386 168.663 390.806 193.593 386.017 216.067C383.691 227.016 380.121 237.34 375.411 246.751C366.496 264.582 353.566 279.087 336.98 289.866L336.861 289.978L336.765 289.948H313.079L239.277 323.58L251.712 337.401H251.711Z" fill="black"/>
<g opacity="0.6">
<path opacity="0.6" d="M182.136 74.9353V91.3668L175.496 92.2341V69.0299C229.874 -0.41151 334.013 -23.2804 396.335 36.2362C333.476 -15.7296 234.63 7.90471 182.136 74.9353Z" fill="white"/>
</g>
<g opacity="0.6">
<path opacity="0.6" d="M341.905 294.843L337.845 289.615C355.199 278.342 367.754 263.473 376.184 246.612C381.016 236.959 384.501 226.655 386.765 216.003C391.743 192.64 390.876 167.594 385.551 144.043C384.976 141.505 384.355 138.985 383.679 136.485L384.116 135.118L389.498 130.326C406.865 204.68 390.794 265.1 341.906 294.844L341.905 294.843Z" fill="white"/>
</g>
<path d="M347.865 304.626L345.329 308.544C344.925 309.171 344.475 309.765 344.002 310.322H343.996C340.948 313.866 336.482 315.956 331.745 315.892C320.286 315.747 311.609 312.797 303.904 305.929C302.045 304.277 299.433 303.758 297.111 304.67L250.967 322.729C248.956 323.514 248.425 326.114 249.968 327.621L255.299 332.843C256.551 334.071 256.196 336.179 254.603 336.926L253.3 337.527L251.996 338.134C249.378 339.355 246.367 339.439 243.685 338.369C226.863 331.628 213.081 320.425 203.012 303.791C202.872 303.576 202.747 303.354 202.614 303.139L154.025 132.273C153.747 110.436 157.947 89.9029 169.881 71.6236L183.099 67.0538L182.056 81.8201C181.816 85.2383 185.009 87.8642 188.311 86.9728L245.017 71.567C247.06 71.0167 248.742 69.5736 249.602 67.6367L259.897 44.4325L271.883 41.1855L278.979 50.4709C277.246 57.3454 276.259 64.5227 276.259 71.7198C276.259 83.8532 279.067 96.0629 285.872 107.006C286.903 108.665 288.023 110.297 289.244 111.893C298.75 119.817 307.281 129.806 314.263 141.433L314.269 141.439C320.512 151.825 325.526 163.522 328.898 176.226C336.588 205.177 334.312 233.812 324.439 256.654V256.667C323.522 273.808 333.091 289.036 346.467 297.885C348.706 299.366 349.32 302.378 347.865 304.626Z" fill="white"/>
<path d="M247.571 339.429C246.212 339.429 244.852 339.174 243.57 338.663C226.209 331.707 212.473 320.029 202.743 303.954C202.658 303.824 202.573 303.681 202.488 303.539L202.312 303.224L153.708 132.318V132.276C153.401 108.21 158.605 88.3136 169.615 71.4491L169.674 71.3585L183.448 66.5977L182.37 81.8422C182.263 83.3674 182.876 84.7978 184.054 85.7669C185.232 86.7375 186.753 87.0657 188.227 86.6667L244.933 71.2609C246.891 70.7332 248.487 69.3651 249.312 67.5074L259.67 44.166L272.005 40.8242L279.323 50.3996L279.285 50.5482C277.487 57.6802 276.575 64.8038 276.575 71.7193C276.575 84.8162 279.794 96.6312 286.14 106.839C287.193 108.531 288.322 110.168 289.494 111.7C299.146 119.738 307.587 129.704 314.533 141.27C320.968 151.973 325.902 163.704 329.202 176.145C336.654 204.195 335.072 232.812 324.751 256.729C323.938 272.496 332.32 288.148 346.64 297.621C349.01 299.187 349.677 302.408 348.129 304.797L345.593 308.716C345.197 309.329 344.742 309.937 344.24 310.529L344.137 310.64C340.981 314.245 336.456 316.263 331.737 316.21C319.964 316.062 311.314 312.965 303.691 306.168C301.89 304.569 299.411 304.108 297.225 304.967L251.081 323.025C250.236 323.355 249.623 324.084 249.442 324.972C249.263 325.859 249.541 326.766 250.187 327.396L255.52 332.618C256.183 333.267 256.485 334.204 256.33 335.121C256.172 336.05 255.591 336.813 254.737 337.213L252.131 338.421C250.695 339.092 249.134 339.429 247.571 339.429ZM202.908 303.012L203.031 303.215C203.112 303.35 203.194 303.486 203.28 303.619C212.943 319.58 226.575 331.172 243.806 338.075C246.399 339.108 249.336 339.026 251.866 337.847L254.472 336.637C255.134 336.327 255.585 335.735 255.708 335.013C255.831 334.29 255.602 333.581 255.079 333.068L249.748 327.846C248.948 327.065 248.601 325.941 248.825 324.844C249.048 323.743 249.807 322.84 250.853 322.433L296.997 304.374C299.406 303.429 302.135 303.933 304.115 305.691C311.616 312.379 320.139 315.427 331.75 315.574C331.819 315.574 331.888 315.574 331.956 315.574C336.474 315.574 340.765 313.592 343.756 310.113L343.855 310.002C344.302 309.467 344.709 308.918 345.065 308.368L347.602 304.449C348.962 302.35 348.375 299.521 346.295 298.145C331.765 288.533 323.271 272.632 324.126 256.646L324.151 256.524C334.437 232.726 336.015 204.236 328.595 176.302C325.309 163.919 320.398 152.243 314.001 141.597C307.085 130.084 298.691 120.172 289.044 112.13C287.81 110.53 286.67 108.878 285.607 107.169C279.196 96.859 275.946 84.9308 275.946 71.7137C275.946 64.7939 276.852 57.6689 278.638 50.5369L271.763 41.5415L260.129 44.6937L249.893 67.7607C248.992 69.7938 247.244 71.2906 245.101 71.8679L188.395 87.2737C186.72 87.7278 184.993 87.3543 183.655 86.2522C182.318 85.1501 181.621 83.5259 181.743 81.7942L182.752 67.5046L170.088 71.8834C159.196 88.6093 154.046 108.35 154.343 132.222L202.911 303.007L202.908 303.012Z" fill="black"/>
<g opacity="0.6">
<path opacity="0.6" d="M208.289 306.95C211.894 313.007 215.986 318.362 220.533 323.046C214.19 317.432 208.611 310.698 203.874 302.728L155.283 131.862C155.004 110.025 159.204 89.4917 171.139 71.2124L184.357 66.6426L183.94 72.5352L175.554 75.4342C163.619 93.7134 159.419 114.246 159.698 136.084L208.289 306.95Z" fill="white"/>
</g>
<g opacity="0.6">
<path opacity="0.6" d="M254.16 335.982C254.16 335.982 253.825 336.589 253.301 337.527L251.997 338.134C249.379 339.355 246.368 339.439 243.686 338.369C226.863 331.627 213.081 320.425 203.013 303.791L212.051 305.601C212.051 305.601 228.602 328.81 254.16 335.982Z" fill="white"/>
</g>
<g opacity="0.6">
<path opacity="0.6" d="M271.881 42.5293L275.309 47.0171L264.31 49.9981L254.014 73.2023C253.155 75.1391 251.473 76.5822 249.43 77.1326L192.724 92.5384C189.784 93.3364 186.924 91.3358 186.507 88.468C187.089 88.5246 187.696 88.4808 188.309 88.3166L245.015 72.9108C247.058 72.3605 248.74 70.9174 249.599 68.9805L259.895 45.7763L271.881 42.5293Z" fill="white"/>
</g>
<g opacity="0.3">
<path opacity="0.3" d="M347.864 304.627L345.328 308.545C344.924 309.172 344.474 309.766 344.001 310.323H343.995C343.546 310.26 325.117 307.539 313.656 293.575C313.656 293.575 305.649 287.302 294.474 295.607C294.474 295.607 269.79 309.671 251.328 310.101L251.676 308.329C251.707 308.323 251.745 308.31 251.778 308.303C296.746 296.341 320.804 239.988 305.518 182.446C301.141 165.977 294.02 151.19 285.019 138.76L285.196 137.867C285.196 137.867 303.277 157.229 314.264 141.431L314.27 141.437C320.513 151.823 325.527 163.52 328.898 176.224C336.589 205.175 334.313 233.811 324.44 256.653V256.666C323.522 273.806 333.091 289.035 346.468 297.883C348.707 299.364 349.321 302.376 347.866 304.625L347.864 304.627Z" fill="black"/>
</g>
<path d="M251.783 308.295C296.751 296.329 320.811 239.981 305.523 182.439C290.235 124.896 241.388 87.9496 196.421 99.9157C151.453 111.882 127.393 168.229 142.681 225.771C157.969 283.314 206.816 320.261 251.783 308.295Z" fill="white"/>
<path d="M234.6 310.857C194.88 310.857 155.735 276.174 142.368 225.855C134.958 197.956 136.482 169.465 146.66 145.63C156.85 121.767 174.493 105.425 196.337 99.613C241.402 87.6254 290.517 124.746 305.823 182.365C313.233 210.263 311.709 238.755 301.531 262.59C291.341 286.452 273.698 302.794 251.854 308.607C246.144 310.126 240.363 310.856 234.6 310.856V310.857ZM213.598 97.9959C207.883 97.9959 202.161 98.7188 196.5 100.226C174.848 105.985 157.353 122.199 147.241 145.879C137.118 169.585 135.604 197.929 142.979 225.692C158.196 282.974 206.964 319.899 251.691 307.995C273.343 302.234 290.838 286.022 300.95 262.342C311.073 238.636 312.587 210.292 305.212 182.529C291.922 132.497 253.03 97.9959 213.598 97.9959Z" fill="black"/>
<g opacity="0.3">
<path opacity="0.3" d="M251.775 308.303C238.55 311.822 224.991 311.108 212.05 306.879C221.878 308.664 231.922 308.391 241.776 305.771C286.744 293.809 310.807 237.456 295.521 179.914C284.732 139.291 257.213 108.928 226.142 98.8008C261.18 105.131 293.587 137.513 305.515 182.445C320.801 239.987 296.743 296.339 251.775 308.302V308.303Z" fill="black"/>
</g>
<g opacity="0.6">
<path opacity="0.6" d="M226.692 310.102C189.902 305.911 155.13 272.688 142.671 225.774C127.385 168.233 151.45 111.887 196.416 99.9245C206.738 97.177 217.262 97.0072 227.546 99.0756C219.203 98.1136 210.754 98.6512 202.437 100.867C157.471 112.836 133.406 169.181 148.692 226.723C160.475 271.068 192.185 303.184 226.692 310.102Z" fill="white"/>
</g>
<path d="M284.258 227.982C283.594 235.768 282.046 243.179 279.705 250.03C277.251 257.235 273.914 263.806 269.794 269.509C263.427 278.328 255.199 285.067 245.461 288.835C243.783 289.486 242.058 290.048 240.292 290.516C205.602 299.715 167.481 269.652 155.152 223.364C151.962 211.396 150.812 199.513 151.459 188.315C152.211 175.241 155.413 163.096 160.682 152.833C163.996 146.367 168.134 140.652 172.994 135.915C177.516 131.508 182.662 127.952 188.365 125.444C190.701 124.409 193.125 123.557 195.638 122.888C230.328 113.689 268.443 143.752 280.773 190.035C284.241 203.043 285.302 215.951 284.259 227.982H284.258Z" fill="#680A0A"/>
<path d="M230.817 296.819C197.793 296.819 164.791 266.566 153.211 222.968C149.876 210.419 148.547 197.767 149.261 185.367C150.057 171.513 153.471 158.341 159.137 147.276C162.717 140.27 167.157 134.152 172.334 129.091C177.275 124.263 182.824 120.472 188.826 117.825C191.32 116.717 193.946 115.791 196.632 115.075C233.75 105.202 274.673 137.535 287.852 187.146C291.48 200.799 292.736 214.497 291.579 227.859C290.875 236.141 289.236 244.102 286.706 251.524C284.069 259.293 280.496 266.333 276.09 272.451C269.126 282.125 260.1 289.314 249.985 293.238C248.182 293.94 246.315 294.548 244.436 295.046C239.933 296.243 235.373 296.821 230.815 296.821L230.817 296.819ZM210.26 113.93C205.753 113.93 201.247 114.5 196.795 115.685C194.141 116.392 191.546 117.307 189.082 118.403C183.147 121.02 177.661 124.769 172.775 129.544C167.648 134.555 163.248 140.619 159.7 147.564C154.075 158.552 150.683 171.636 149.893 185.403C149.184 197.738 150.505 210.322 153.823 222.807C166.913 272.086 207.488 304.219 244.276 294.435C246.132 293.943 247.976 293.342 249.757 292.648C259.756 288.768 268.685 281.655 275.578 272.08C279.948 266.013 283.492 259.028 286.11 251.321C288.622 243.948 290.251 236.036 290.952 227.805C292.101 214.516 290.853 200.891 287.242 187.309C275.738 143.999 242.997 113.933 210.262 113.933L210.26 113.93Z" fill="black"/>
<g opacity="0.3">
<path opacity="0.3" d="M254.569 131.964C239.649 122.362 222.852 118.691 206.75 122.976C169.739 132.825 150.399 180.96 163.559 230.483C169.662 253.472 181.698 272.72 196.542 285.759C177.163 273.309 160.948 250.865 153.517 222.888C140.362 173.366 159.701 125.23 196.713 115.381C216.547 110.108 237.43 116.901 254.569 131.964Z" fill="black"/>
</g>
<path d="M223.638 216.711C228.449 215.431 230.963 209.174 229.252 202.737C227.542 196.299 222.255 192.119 217.444 193.399C212.633 194.679 210.12 200.935 211.83 207.373C213.541 213.811 218.827 217.991 223.638 216.711Z" fill="black"/>
<path d="M251.843 226.646C251.378 226.646 250.909 226.519 250.488 226.25L217.646 205.338C217.047 204.956 216.636 204.339 216.513 203.639L205.89 143.002C205.648 141.624 206.569 140.312 207.946 140.07C209.323 139.834 210.633 140.751 210.875 142.127L221.303 201.665L253.205 221.979C254.384 222.729 254.731 224.295 253.981 225.474C253.499 226.232 252.68 226.646 251.845 226.646H251.843Z" fill="black"/>
<g opacity="0.3">
<path opacity="0.3" d="M258.084 223.849C257.618 223.849 257.149 223.721 256.728 223.452L223.887 202.539C223.287 202.157 222.876 201.54 222.753 200.84L212.13 140.202C211.889 138.824 212.809 137.513 214.186 137.271C215.557 137.029 216.873 137.95 217.114 139.328L227.544 198.866L259.444 219.18C260.623 219.93 260.97 221.496 260.22 222.674C259.738 223.433 258.919 223.847 258.082 223.847L258.084 223.849Z" fill="black"/>
</g>
<g opacity="0.25">
<path opacity="0.25" d="M275.834 272.265C269.042 281.702 260.263 288.912 249.872 292.944L149.577 185.385C150.38 171.397 153.795 158.402 159.418 147.42L275.833 272.264L275.834 272.265Z" fill="white"/>
</g>
<g opacity="0.25">
<path opacity="0.25" d="M291.267 227.832C290.558 236.162 288.907 244.092 286.409 251.422L172.555 129.319C177.38 124.604 182.871 120.799 188.956 118.115L291.267 227.832Z" fill="white"/>
</g>
<path d="M230.675 298.74C216.408 298.74 201.877 293.304 188.62 282.817C171.09 268.952 157.865 247.872 151.38 223.459C144.896 199.047 145.915 174.176 154.25 153.429C162.676 132.461 177.553 118.188 196.145 113.242C214.736 108.294 234.733 113.289 252.45 127.302C269.98 141.167 283.205 162.248 289.689 186.66C296.174 211.073 295.155 235.944 286.82 256.69C278.394 277.659 263.517 291.932 244.925 296.878C240.246 298.123 235.475 298.738 230.675 298.738V298.74ZM210.369 115.817C205.954 115.817 201.575 116.381 197.281 117.523C180.071 122.101 166.248 135.44 158.357 155.082C150.375 174.947 149.418 198.825 155.658 222.32C161.9 245.815 174.58 266.065 191.365 279.341C207.962 292.468 226.578 297.175 243.789 292.597C260.999 288.018 274.822 274.68 282.713 255.038C290.695 235.173 291.652 211.295 285.412 187.799C279.17 164.305 266.489 144.055 249.705 130.778C237.249 120.926 223.654 115.817 210.371 115.817H210.369Z" fill="black"/>
<path d="M234.623 313.072C193.91 313.072 153.857 277.736 140.228 226.427C132.69 198.051 134.252 169.049 144.625 144.761C155.089 120.258 173.252 103.466 195.769 97.4743C242.012 85.1698 292.343 122.999 307.963 181.798C315.501 210.173 313.939 239.175 303.566 263.463C293.102 287.966 274.939 304.759 252.422 310.75C246.531 312.318 240.567 313.072 234.624 313.072H234.623ZM213.622 100.209C208.088 100.209 202.549 100.909 197.068 102.368C176.088 107.95 159.115 123.712 149.277 146.751C139.347 170.004 137.87 197.838 145.118 225.125C160.021 281.228 207.575 317.441 251.122 305.857C272.102 300.275 289.075 284.513 298.913 261.474C308.842 238.22 310.32 210.387 303.072 183.101C290.045 134.06 252.062 100.211 213.622 100.211V100.209Z" fill="black"/>
<path d="M315.995 274.638C315.504 274.638 315.009 274.496 314.574 274.199C313.419 273.413 313.119 271.838 313.905 270.682C330.773 245.873 335.462 210.807 326.45 176.88C316.994 141.278 294.296 112.607 265.734 100.184C264.453 99.6264 263.865 98.1352 264.422 96.8534C264.979 95.5716 266.467 94.983 267.75 95.5405C297.717 108.575 321.488 138.497 331.339 175.58C340.723 210.908 335.769 247.526 318.087 273.531C317.598 274.252 316.802 274.639 315.993 274.639L315.995 274.638Z" fill="black"/>
<path d="M349.317 163.999C351.577 172.506 349.891 180.338 345.549 181.494C341.208 182.649 335.85 176.691 333.591 168.184C331.333 159.684 333.027 151.85 337.368 150.694C341.71 149.539 347.061 155.499 349.318 163.999H349.317Z" fill="white"/>
<path d="M344.436 181.954C342.531 181.954 340.484 180.822 338.553 178.673C336.26 176.122 334.389 172.425 333.285 168.264C332.18 164.106 331.97 159.969 332.695 156.618C333.434 153.191 335.066 150.978 337.287 150.388C339.505 149.8 342.018 150.909 344.359 153.515C346.649 156.065 348.518 159.76 349.622 163.92C350.728 168.082 350.94 172.22 350.218 175.572C349.48 178.997 347.851 181.21 345.63 181.801C345.24 181.905 344.841 181.955 344.436 181.955V181.954ZM338.478 150.865C338.128 150.865 337.783 150.909 337.448 150.998C335.469 151.525 334 153.568 333.313 156.749C332.609 160.006 332.817 164.037 333.895 168.1C334.975 172.168 336.796 175.771 339.024 178.25C341.2 180.671 343.49 181.716 345.468 181.187C347.447 180.661 348.914 178.619 349.6 175.437C350.301 172.181 350.092 168.148 349.012 164.081C347.932 160.016 346.112 156.414 343.889 153.937C342.083 151.926 340.199 150.867 338.48 150.867L338.478 150.865Z" fill="black"/>
<g opacity="0.3">
<path opacity="0.3" d="M349.316 163.999C351.577 172.506 349.89 180.338 345.549 181.494C341.207 182.649 335.849 176.691 333.59 168.184C331.333 159.684 333.026 151.85 337.368 150.694C341.709 149.539 347.06 155.499 349.318 163.999H349.316Z" fill="black"/>
</g>
<path d="M345.549 181.496L326.457 186.575C322.116 187.729 316.758 181.772 314.499 173.264C312.241 164.764 313.935 156.93 318.276 155.774L337.368 150.695C333.027 151.85 331.333 159.685 333.591 168.185C335.851 176.692 341.208 182.652 345.549 181.496Z" fill="white"/>
<path d="M325.344 187.035C323.44 187.035 321.393 185.904 319.461 183.755C317.168 181.204 315.297 177.507 314.193 173.346C313.089 169.188 312.878 165.051 313.603 161.699C314.344 158.273 315.974 156.06 318.195 155.47L337.287 150.391L337.449 151.003C335.47 151.53 334.001 153.573 333.314 156.754C332.61 160.011 332.818 164.042 333.897 168.105C334.977 172.173 336.797 175.776 339.025 178.255C341.198 180.673 343.484 181.719 345.462 181.194H345.469L345.632 181.804L326.54 186.884C326.15 186.987 325.751 187.038 325.347 187.038L325.344 187.035ZM335.162 151.607L318.356 156.08C316.377 156.606 314.908 158.649 314.221 161.831C313.517 165.088 313.725 169.118 314.803 173.182C315.883 177.249 317.704 180.853 319.932 183.332C322.108 185.752 324.397 186.795 326.376 186.269L343.18 181.796C341.649 181.416 340.066 180.358 338.553 178.674C336.26 176.123 334.389 172.426 333.284 168.265C332.18 164.107 331.97 159.97 332.695 156.619C333.173 154.406 334.022 152.7 335.162 151.609V151.607Z" fill="black"/>
<g opacity="0.3">
<path opacity="0.3" d="M345.549 181.492L326.456 186.574C322.408 187.651 317.475 182.537 314.995 174.935C316.703 176.289 318.493 176.872 320.131 176.435L335.069 172.459C337.726 178.592 341.975 182.44 345.549 181.491V181.492Z" fill="black"/>
</g>
<g opacity="0.6">
<path opacity="0.6" d="M337.364 150.693C334.758 151.389 333.107 154.491 332.696 158.7L317.113 162.839C315.545 163.257 314.318 164.554 313.501 166.434C313.386 160.908 315.145 156.604 318.276 155.775L337.364 150.693Z" fill="white"/>
</g>
<path d="M344.42 184.174C341.887 184.174 339.275 182.79 336.907 180.156C334.385 177.349 332.338 173.328 331.145 168.835C329.951 164.344 329.734 159.839 330.531 156.15C331.456 151.87 333.652 149.063 336.717 148.248C339.781 147.433 343.08 148.777 346.005 152.034C348.524 154.84 350.568 158.859 351.762 163.35C352.955 167.844 353.175 172.351 352.381 176.038C351.459 180.319 349.264 183.126 346.199 183.941C345.614 184.096 345.02 184.174 344.422 184.174H344.42ZM338.469 153.084C338.31 153.084 338.159 153.102 338.015 153.14C336.912 153.435 335.962 154.958 335.475 157.219C334.853 160.097 335.056 163.856 336.033 167.533C337.01 171.214 338.699 174.58 340.668 176.77C342.214 178.489 343.796 179.344 344.897 179.048C345.999 178.755 346.947 177.232 347.433 174.972C348.052 172.094 347.847 168.333 346.869 164.653C345.892 160.974 344.204 157.61 342.239 155.421C340.896 153.926 339.526 153.087 338.467 153.087L338.469 153.084Z" fill="black"/>
<path d="M325.33 189.253C322.796 189.253 320.183 187.869 317.815 185.235C315.293 182.428 313.246 178.407 312.053 173.913C310.86 169.423 310.642 164.918 311.438 161.228C312.363 156.949 314.56 154.142 317.624 153.327L336.709 148.249H336.716C338.063 147.887 339.452 148.692 339.811 150.043C340.17 151.395 339.365 152.782 338.015 153.14H338.013C336.911 153.436 335.963 154.961 335.475 157.219C334.853 160.096 335.057 163.856 336.033 167.533C337.01 171.214 338.7 174.58 340.669 176.77C342.214 178.489 343.796 179.343 344.897 179.048C346.244 178.688 347.633 179.492 347.992 180.845C348.351 182.196 347.548 183.582 346.196 183.942C346.196 183.942 346.195 183.942 346.194 183.942L327.105 189.021C326.519 189.176 325.927 189.254 325.329 189.254L325.33 189.253ZM330.803 155.058L318.925 158.219C317.822 158.513 316.872 160.037 316.385 162.298C315.763 165.176 315.966 168.935 316.943 172.612C317.92 176.293 319.609 179.659 321.578 181.849C323.124 183.569 324.704 184.421 325.807 184.127L337.685 180.966C337.423 180.71 337.164 180.44 336.907 180.156C334.385 177.349 332.338 173.328 331.145 168.834C329.952 164.344 329.734 159.839 330.531 156.149C330.612 155.774 330.702 155.412 330.803 155.06V155.058Z" fill="black"/>
<path d="M325.33 189.253C322.796 189.253 320.183 187.869 317.815 185.235C315.293 182.428 313.246 178.407 312.053 173.913C310.86 169.423 310.642 164.918 311.438 161.228C312.363 156.949 314.56 154.142 317.624 153.327L336.709 148.249H336.716C338.063 147.887 339.452 148.692 339.811 150.043C340.17 151.395 339.365 152.782 338.015 153.14H338.013C336.911 153.436 335.963 154.961 335.475 157.219C334.853 160.096 335.057 163.856 336.033 167.533C337.01 171.214 338.7 174.58 340.669 176.77C342.214 178.489 343.796 179.343 344.897 179.048C346.244 178.688 347.633 179.492 347.992 180.845C348.351 182.196 347.548 183.582 346.196 183.942C346.196 183.942 346.195 183.942 346.194 183.942L327.105 189.021C326.519 189.176 325.927 189.254 325.329 189.254L325.33 189.253ZM330.803 155.058L318.925 158.219C317.822 158.513 316.872 160.037 316.385 162.298C315.763 165.176 315.966 168.935 316.943 172.612C317.92 176.293 319.609 179.659 321.578 181.849C323.124 183.569 324.704 184.421 325.807 184.127L337.685 180.966C337.423 180.71 337.164 180.44 336.907 180.156C334.385 177.349 332.338 173.328 331.145 168.834C329.952 164.344 329.734 159.839 330.531 156.149C330.612 155.774 330.702 155.412 330.803 155.06V155.058Z" fill="black"/>
<path d="M247.572 341.643C245.932 341.643 244.291 341.334 242.746 340.716C224.692 333.485 210.46 321.277 200.444 304.432C199.731 303.231 200.124 301.677 201.325 300.962C202.525 300.247 204.078 300.64 204.793 301.843C214.226 317.709 227.628 329.207 244.626 336.016C246.652 336.827 248.951 336.763 250.93 335.841L253.532 334.628L248.199 329.433C246.858 328.12 246.28 326.239 246.655 324.398C247.03 322.559 248.296 321.052 250.042 320.368L296.19 302.31C299.384 301.061 302.983 301.724 305.584 304.043C312.661 310.349 320.737 313.222 331.774 313.36C331.831 313.36 331.886 313.36 331.942 313.36C336.494 313.36 340.696 311.055 343.205 307.171L345.737 303.252C346.441 302.164 346.143 300.703 345.074 299.995C329.888 289.949 321.013 273.294 321.911 256.531C321.986 255.135 323.178 254.062 324.573 254.139C325.968 254.214 327.038 255.406 326.963 256.803C326.16 271.78 334.17 286.713 347.863 295.772C351.236 298.003 352.189 302.593 349.985 306.001L347.453 309.92C343.961 315.323 338.062 318.501 331.711 318.422C319.368 318.267 310.272 314.998 302.22 307.822C301.048 306.778 299.445 306.474 298.032 307.024L251.884 325.083C251.736 325.142 251.644 325.25 251.611 325.407C251.58 325.564 251.621 325.699 251.736 325.811L257.067 331.03C258.25 332.189 258.79 333.857 258.511 335.49C258.233 337.123 257.17 338.516 255.669 339.215L253.067 340.428C251.336 341.235 249.454 341.64 247.572 341.64V341.643Z" fill="black"/>
<path d="M154.021 134.804C152.638 134.804 151.509 133.692 151.492 132.305C151.182 107.78 156.505 87.4793 167.763 70.2399C168.07 69.7702 168.524 69.415 169.054 69.2325L182.269 64.6585C183.073 64.3798 183.961 64.5241 184.636 65.0419C185.31 65.5597 185.679 66.3817 185.619 67.2292L184.575 82.0011C184.518 82.7991 184.841 83.5489 185.458 84.0569C186.076 84.5648 186.872 84.736 187.645 84.5266L244.351 69.125C245.663 68.7685 246.733 67.8503 247.286 66.6067L257.587 43.4053C257.897 42.7092 258.502 42.1886 259.237 41.9905L271.218 38.7421C272.209 38.4747 273.265 38.8298 273.888 39.6476L280.989 48.9343C281.459 49.5484 281.623 50.3421 281.433 51.0919C278.151 64.1223 275.062 89.1487 291.254 110.355C292.102 111.466 291.89 113.055 290.78 113.904C289.671 114.754 288.083 114.542 287.234 113.43C274.491 96.7434 270.603 74.63 276.234 51.0481L270.901 44.0745L261.721 46.5631L251.908 68.6652C250.735 71.3066 248.463 73.2562 245.675 74.0146L188.97 89.4161C186.63 90.0514 184.117 89.5109 182.245 87.9716C180.373 86.4309 179.357 84.0668 179.528 81.646L180.303 70.6997L171.532 73.7359C161.16 89.9523 156.26 109.102 156.551 132.244C156.568 133.641 155.451 134.789 154.053 134.807H154.021V134.804Z" fill="black"/>
<path d="M182.449 78.7226C181.366 78.7226 180.364 78.0209 180.03 76.9286C179.622 75.5917 180.375 74.1768 181.711 73.768L255.004 51.3716C256.338 50.9613 257.755 51.7154 258.162 53.0538C258.57 54.3908 257.817 55.8056 256.481 56.2145L183.188 78.6108C182.942 78.6858 182.694 78.7226 182.449 78.7226Z" fill="black"/>
<path d="M254.16 334.261C253.143 334.261 252.185 333.642 251.798 332.636C251.297 331.331 251.947 329.866 253.252 329.365L308.912 307.958C310.215 307.457 311.68 308.108 312.18 309.412C312.681 310.718 312.03 312.183 310.726 312.683L255.066 334.091C254.768 334.205 254.461 334.261 254.16 334.261Z" fill="black"/>
<path d="M307.071 354C286.125 354 266.03 349.33 250.715 340.319C249.51 339.61 249.109 338.058 249.816 336.853C250.524 335.648 252.075 335.246 253.279 335.955C277.098 349.97 313.208 352.932 345.274 343.494C370.265 336.141 404.785 317.998 427.313 273.318C437.414 253.286 443.173 231.279 444.427 207.906C451.801 70.5558 391.382 26.9289 354.711 13.1473C295.896 -8.9576 221.566 15.4067 177.971 71.075C177.108 72.1758 175.518 72.3682 174.42 71.5066C173.32 70.6435 173.127 69.0519 173.988 67.9511C218.911 10.5907 295.663 -14.4541 356.492 8.40771C386.328 19.62 410.544 41.8551 426.522 72.7091C444.699 107.81 452.424 153.388 449.481 208.178C448.189 232.254 442.25 254.937 431.831 275.599C408.486 321.896 372.652 340.715 346.702 348.351C333.811 352.144 320.272 353.999 307.071 353.999V354Z" fill="black"/>
<path d="M337.252 292.65C336.424 292.65 335.612 292.242 335.127 291.497C334.367 290.322 334.7 288.755 335.872 287.994C394.768 249.759 397.452 167.005 370.076 108.554C352.679 71.4084 319.114 36.3736 277.09 49.4365C275.755 49.8496 274.339 49.1055 273.923 47.7699C273.509 46.4343 274.254 45.0153 275.588 44.6007C295.003 38.5652 314.872 41.9154 333.048 54.2907C349.571 65.5426 363.959 83.5616 374.658 106.404C389.209 137.473 395 173.887 390.545 206.307C385.391 243.821 367.437 273.536 338.626 292.24C338.201 292.515 337.724 292.647 337.252 292.647V292.65Z" fill="black"/>
<path d="M359.73 313.831C354.601 313.831 349.474 312.86 344.417 310.909C343.114 310.407 342.465 308.941 342.967 307.637C343.47 306.332 344.935 305.681 346.238 306.187C359.077 311.143 371.971 309.061 384.563 300.002C398.967 289.639 411.981 270.633 421.207 246.48C430.405 222.405 434.883 195.784 433.82 171.523C432.5 132.691 421.913 97.0997 403.204 68.573C386.662 43.3499 364.411 25.4809 342.157 19.543C316.057 12.5779 292.442 22.5466 277.362 46.8855C276.625 48.0739 275.066 48.4403 273.879 47.7032C272.691 46.9661 272.325 45.4056 273.062 44.2172C289.398 17.8494 315.056 7.07287 343.459 14.6506C367.244 20.996 389.963 39.1592 407.432 65.7943C426.65 95.0978 437.522 131.59 438.874 171.325C441.157 223.413 418.597 281.753 387.513 304.114C378.539 310.57 369.131 313.832 359.726 313.832L359.73 313.831Z" fill="black"/>
<path d="M439.839 116.191C439.783 116.166 439.63 116.089 439.41 115.976C437.392 114.958 429.247 110.729 426.407 109.247C425.793 108.93 425.427 108.741 425.427 108.741L382.724 133.667L385.134 144.091C384.919 144.086 384.71 144.066 384.495 144.04C377.721 143.135 370.385 131.887 370.999 122.76L376.95 118.994L418.135 92.922L421.057 91.0742L432.58 93.4483L432.921 93.5176C440.131 98.0945 442.135 105.829 439.839 116.19V116.191Z" fill="white"/>
<path d="M385.534 144.42L385.122 144.407C384.897 144.4 384.68 144.381 384.456 144.354C377.402 143.411 370.066 131.896 370.681 122.738L370.693 122.578L376.78 118.726L420.996 90.7383L433.091 93.2496C440.162 97.7373 442.537 105.479 440.15 116.257L440.065 116.636L439.711 116.478C439.652 116.451 439.495 116.373 439.266 116.254C437.26 115.241 429.148 111.032 426.262 109.525L425.437 109.1L383.086 133.82L385.536 144.419L385.534 144.42ZM371.303 122.941C370.8 131.796 377.801 142.826 384.537 143.726C384.602 143.733 384.666 143.74 384.729 143.747L382.363 133.509L425.418 108.378L426.551 108.965C429.438 110.471 437.547 114.68 439.552 115.691C439.574 115.702 439.595 115.714 439.617 115.724C441.826 105.325 439.594 98.1547 432.8 93.8155L421.117 91.4089L371.303 122.941Z" fill="black"/>
<g opacity="0.6">
<path opacity="0.6" d="M383.775 138.218L385.135 144.092C384.92 144.086 384.711 144.067 384.496 144.041C377.721 143.136 370.386 131.888 370.999 122.761L375.402 119.977C375.18 126.654 379.05 134.326 383.775 138.218Z" fill="white"/>
</g>
<path d="M443.262 236.187L442.717 235.401L431.384 219.121L375.128 246.611L375.122 246.617C374.718 234.844 377.209 223.033 385.077 216.336L385.709 216L435.647 189.334L436.134 189.802L446.81 199.942L447.069 200.188C453.368 213.424 453.279 226.038 443.262 236.184V236.187Z" fill="white"/>
<path d="M374.836 247.323L374.805 246.627C374.331 232.866 377.906 222.023 384.87 216.095L385.56 215.721L435.701 188.947L436.354 189.575L447.355 200.053C454.267 214.576 452.966 226.809 443.487 236.408L443.22 236.679L431.28 219.524L375.311 246.874L374.837 247.323H374.836ZM435.593 189.723L385.224 216.617C378.548 222.308 375.055 232.785 375.421 246.115L431.488 218.719L443.302 235.691C452.32 226.353 453.5 214.476 446.808 200.38L435.592 189.724L435.593 189.723Z" fill="black"/>
<g opacity="0.6">
<path opacity="0.6" d="M436.54 190.189L393.09 213.387L392.458 213.722C384.806 220.236 382.237 231.579 382.478 243.022L375.129 246.611L375.124 246.617C374.719 234.844 377.21 223.033 385.079 216.336L385.711 216L435.649 189.334L436.136 189.802L436.54 190.189Z" fill="white"/>
</g>
<path d="M385.134 146.625C385.104 146.625 385.074 146.625 385.045 146.625C381.861 146.513 378.463 144.63 375.48 141.322C370.807 136.142 368.058 128.79 368.473 122.591C368.527 121.785 368.963 121.054 369.645 120.622L419.702 88.9389C420.257 88.5881 420.924 88.4678 421.564 88.598L433.434 91.0428C433.733 91.105 434.019 91.2196 434.278 91.3851C442.222 96.4247 444.924 104.955 442.307 116.74C442.142 117.484 441.65 118.115 440.968 118.455C440.287 118.796 439.488 118.81 438.794 118.496C438.167 118.211 429.601 113.767 425.496 111.634L385.607 134.912L387.599 143.524C387.776 144.29 387.588 145.097 387.087 145.705C386.605 146.289 385.889 146.626 385.135 146.626L385.134 146.625ZM373.495 124.175C373.595 128.757 375.809 134.131 379.236 137.928C380.016 138.792 380.819 139.521 381.612 140.093L380.258 134.234C380.008 133.153 380.491 132.035 381.448 131.476L424.151 106.556C424.901 106.117 425.822 106.095 426.591 106.497C430.133 108.337 434.907 110.813 437.953 112.385C438.977 104.717 436.997 99.3024 431.945 95.9054L421.546 93.7634L373.496 124.176L373.495 124.175Z" fill="black"/>
<path d="M375.61 249.637C375.158 249.637 374.707 249.515 374.307 249.276C373.572 248.834 373.111 248.049 373.081 247.192C372.729 236.967 374.324 223.065 383.926 214.895C384.064 214.777 384.214 214.675 384.374 214.589L434.943 187.59C435.904 187.078 437.084 187.238 437.875 187.988L449.297 198.841C449.522 199.055 449.706 199.309 449.84 199.588C457.091 214.827 455.607 228.267 445.548 238.457C445.019 238.992 444.281 239.269 443.532 239.2C442.783 239.136 442.102 238.741 441.672 238.124L431.031 222.835L376.72 249.379C376.368 249.552 375.989 249.637 375.61 249.637ZM387.005 218.924C381.5 223.746 378.401 232.218 378.12 243.061L430.76 217.334C431.881 216.785 433.232 217.137 433.946 218.161L443.996 232.602C450.557 224.398 451.056 214.182 445.47 202.186L435.715 192.917L387.003 218.924H387.005Z" fill="black"/>
<path d="M347.32 48.9852L355.943 41.1991C356.805 40.4201 358.137 40.4885 358.916 41.3519L360.97 43.6303C361.748 44.4937 361.68 45.8265 360.817 46.6056L352.195 54.3917C351.332 55.1708 350 55.1023 349.222 54.2389L347.168 51.9605C346.389 51.0971 346.458 49.7643 347.32 48.9852Z" fill="black"/>
<path d="M380.618 69.8902L371.607 77.2219C370.705 77.9558 370.568 79.2826 371.301 80.1854L373.235 82.5665C373.969 83.4693 375.295 83.6062 376.197 82.8723L385.208 75.5406C386.11 74.8066 386.247 73.4798 385.513 72.577L383.579 70.1959C382.846 69.2931 381.52 69.1562 380.618 69.8902Z" fill="black"/>
<path d="M401.307 143.054L411.979 138.47C413.047 138.011 414.285 138.506 414.743 139.575L415.953 142.395C416.411 143.463 415.917 144.703 414.849 145.161L404.177 149.745C403.109 150.204 401.871 149.709 401.412 148.641L400.203 145.821C399.744 144.752 400.239 143.513 401.307 143.054Z" fill="black"/>
<path d="M406.932 171.261L418.095 168.055C419.212 167.734 420.378 168.381 420.699 169.499L421.544 172.449C421.865 173.567 421.218 174.734 420.102 175.055L408.939 178.26C407.822 178.581 406.655 177.934 406.335 176.816L405.489 173.867C405.169 172.749 405.815 171.582 406.932 171.261Z" fill="black"/>
<path d="M240.487 297.822C239.471 297.822 238.555 297.116 238.327 296.082L235.466 283.026C235.204 281.831 235.959 280.649 237.154 280.388C238.348 280.126 239.527 280.882 239.79 282.077L242.652 295.133C242.913 296.328 242.158 297.51 240.964 297.771C240.804 297.807 240.644 297.824 240.487 297.824V297.822Z" fill="black"/>
<path d="M203.043 126.941C202.025 126.941 201.109 126.235 200.883 125.2L198.636 114.949C198.375 113.753 199.13 112.572 200.324 112.31C201.519 112.047 202.699 112.805 202.961 113.999L205.207 124.251C205.469 125.446 204.714 126.628 203.519 126.89C203.36 126.925 203.2 126.942 203.043 126.942V126.941Z" fill="black"/>
<path d="M275.213 192.728C274.234 192.728 273.339 192.073 273.076 191.081C272.762 189.898 273.465 188.686 274.646 188.37L286.981 185.088C288.163 184.77 289.374 185.477 289.689 186.66C290.003 187.843 289.301 189.055 288.119 189.37L275.784 192.653C275.594 192.704 275.403 192.728 275.215 192.728H275.213Z" fill="black"/>
<path d="M153.518 225.106C152.539 225.106 151.644 224.451 151.381 223.459C151.067 222.276 151.77 221.064 152.952 220.748L164.776 217.602C165.957 217.283 167.17 217.991 167.484 219.174C167.798 220.356 167.095 221.569 165.914 221.884L154.09 225.031C153.899 225.082 153.708 225.106 153.52 225.106H153.518Z" fill="black"/>
<g opacity="0.3">
<path opacity="0.3" d="M285.87 107.005C277.901 103.269 268.826 98.8015 268.826 98.8015C256.252 79.7809 271.881 41.1836 271.881 41.1836L278.977 50.469C277.244 57.3435 276.257 64.5208 276.257 71.7179C276.257 83.8513 279.065 96.061 285.87 107.005Z" fill="black"/>
</g>
<g opacity="0.3">
<path opacity="0.3" d="M432.441 92.2344L432.124 92.2216L420.159 91.6458L376.418 117.585L376.405 117.579C357.533 69.2283 319.598 34.0676 277.383 46.0807L276.339 43.783C301.934 2.82303 362.459 5.26639 400.653 60.4466C408.767 62.4273 415.022 62.6622 411.961 54.162C411.923 54.0418 411.872 53.9215 411.828 53.7942L412.214 54.5157L431.365 90.2268L432.441 92.233V92.2344Z" fill="black"/>
</g>
<g opacity="0.3">
<path opacity="0.3" d="M443.262 236.186L442.718 235.4C439.796 248.749 435.261 261.719 429.083 273.972C398.726 334.179 342.994 353.63 298.09 350.749C296.16 350.002 295.104 349.591 295.104 349.591C325.481 345.774 348.798 336.608 348.647 309.676C408.73 324.931 431.384 219.12 431.384 219.12L430.658 212.557L431.505 196.942L435.932 192.093L436.134 189.821V189.803C440.542 161.028 429.62 120.305 426.407 109.247C425.87 107.399 425.547 106.379 425.547 106.379L422.227 95.6191H415.743L418.134 92.9225L420.752 89.9727L432.213 92.467C432.339 92.7895 432.459 93.1192 432.58 93.4474L432.921 93.5167C440.131 98.0936 442.135 105.828 439.84 116.189C439.783 116.164 439.63 116.087 439.41 115.974C445.229 139.772 447.967 167.648 446.809 199.941L447.068 200.187C453.367 213.423 453.278 226.037 443.261 236.183L443.262 236.186Z" fill="black"/>
</g>
<path d="M413.117 254.269V210.082L496.854 90.6138H555.497V207.9H576.5V254.269H555.497V287H501.491V254.269H413.117ZM505.582 150.893L467.942 207.9H505.582V150.893Z" fill="black"/>
</svg>
