<svg width="599" height="354" viewBox="0 0 599 354" fill="none" xmlns="http://www.w3.org/2000/svg">
<path d="M157.049 134.801H75.2211V165.077C78.676 161.44 83.4038 158.531 89.4045 156.349C95.4052 154.167 102.042 153.076 109.316 153.076C122.408 153.076 133.319 156.076 142.047 162.077C150.957 168.077 157.503 175.987 161.686 185.807C165.868 195.626 167.959 206.354 167.959 217.992C167.959 239.449 161.867 256.36 149.684 268.725C137.501 280.908 120.59 287 98.9511 287C83.8584 287 70.766 284.454 59.6738 279.363C48.7635 274.089 40.3989 266.816 34.58 257.542C28.7612 248.268 25.7608 237.631 25.579 225.629H77.6759C78.2214 229.812 80.0398 233.448 83.1311 236.54C86.2223 239.631 90.7683 241.177 96.769 241.177C103.133 241.177 107.952 238.994 111.225 234.63C114.498 230.266 116.135 224.447 116.135 217.174C116.135 210.082 114.407 204.718 110.952 201.081C107.497 197.262 102.497 195.353 95.9507 195.353C91.0411 195.353 87.0406 196.626 83.9493 199.172C81.0399 201.536 79.3124 204.536 78.7669 208.173H26.67V87.6135H157.049V134.801Z" fill="black"/>
<path d="M453.811 199.942C453.722 202.455 453.609 204.993 453.469 207.557C452.962 216.944 451.717 226.26 449.718 235.4C446.796 248.749 442.261 261.718 436.083 273.972C405.726 334.179 349.994 353.63 305.09 350.749C287.027 349.597 270.716 344.831 258.51 337.647L245.753 323.469L320.01 289.631H343.765C343.765 289.631 343.784 289.618 343.791 289.613C361.145 278.339 373.7 263.471 382.13 246.61C386.962 236.956 390.447 226.652 392.711 216C397.689 192.638 396.822 167.591 391.497 144.041C390.922 141.502 390.301 138.983 389.625 136.483C388.012 130.514 386.115 124.665 383.952 118.994C383.775 118.519 383.592 118.045 383.408 117.577C364.535 69.2257 326.6 34.065 284.385 46.0781C283.873 46.2238 283.367 46.3752 282.854 46.5337L253.553 82.9479L182.497 92.2332V69.029C241.731 -6.61631 359.999 -26.9966 418.963 54.1609C419.052 54.274 419.134 54.3957 419.216 54.516C426.628 64.7761 433.086 76.6506 438.368 90.2271C438.626 90.8849 438.879 91.5499 439.127 92.2205C439.158 92.3026 439.19 92.3846 439.216 92.4667C439.342 92.7893 439.462 93.1189 439.583 93.4472C442.183 100.504 444.472 108.011 446.414 115.974C452.233 139.772 454.971 167.648 453.813 199.941L453.811 199.942Z" fill="white"/>
<path d="M313.786 351.343C310.678 351.343 307.763 351.238 305.068 351.066C287.432 349.942 270.84 345.274 258.349 337.921L258.274 337.86L245.228 323.361L320.008 289.317H343.667C360.152 278.59 372.99 264.18 381.845 246.469C386.533 237.105 390.083 226.832 392.4 215.935C397.169 193.55 396.75 168.713 391.187 144.11C390.593 141.492 389.964 138.954 389.318 136.566C387.713 130.628 385.809 124.755 383.655 119.107C383.478 118.633 383.294 118.159 383.112 117.693C373.496 93.058 359.058 72.3708 342.454 59.4409C324.269 45.2787 304.218 40.764 284.469 46.3836C283.99 46.5195 283.516 46.6609 283.039 46.8095L253.719 83.2464L253.593 83.2633L182.179 92.5954V68.9215L182.247 68.8352C215.357 26.5509 267.399 0.869419 318.119 1.7664C359.394 2.51059 395.298 21.0516 419.217 53.9741C419.303 54.0844 419.39 54.2103 419.476 54.3348C427.049 64.8185 433.505 76.8571 438.661 90.111C438.921 90.7703 439.174 91.4381 439.422 92.1101C439.454 92.195 439.488 92.2841 439.516 92.3747C439.634 92.6732 439.754 93 439.874 93.3282C442.509 100.481 444.811 108.072 446.719 115.899C452.75 140.567 455.242 168.846 454.128 199.953C454.04 202.451 453.925 205.014 453.786 207.574C453.277 217.006 452.013 226.392 450.028 235.468C447.064 249.015 442.467 262.017 436.367 274.115C422.275 302.06 402.028 322.983 376.188 336.3C352.933 348.284 330.561 351.343 313.789 351.343H313.786ZM258.711 337.4C271.114 344.689 287.588 349.317 305.109 350.435C307.806 350.607 310.564 350.697 313.361 350.697C355.255 350.699 407.11 330.731 435.8 273.83C441.876 261.779 446.455 248.828 449.409 235.333C451.387 226.29 452.647 216.94 453.153 207.54C453.291 204.985 453.406 202.424 453.493 199.932C454.606 168.884 452.119 140.662 446.103 116.05C444.2 108.246 441.905 100.678 439.283 93.5574C439.16 93.2221 439.043 92.8996 438.918 92.5826C438.887 92.485 438.858 92.4086 438.829 92.3336C438.582 91.6602 438.33 90.9981 438.072 90.3416C432.936 77.1372 426.505 65.1454 418.959 54.6999C418.875 54.5782 418.797 54.4636 418.713 54.3546C394.906 21.5878 359.18 3.14018 318.108 2.39882C267.649 1.4891 215.805 27.0588 182.81 69.1379V91.8724L253.384 82.6507L282.667 46.2606L282.759 46.2308C283.273 46.0724 283.781 45.9196 284.295 45.7724C304.248 40.0963 324.491 44.6491 342.842 58.94C359.533 71.9392 374.044 92.7213 383.7 117.461C383.884 117.93 384.069 118.406 384.246 118.882C386.407 124.547 388.318 130.441 389.927 136.399C390.576 138.796 391.208 141.344 391.803 143.97C397.386 168.662 397.806 193.593 393.017 216.067C390.691 227.016 387.121 237.34 382.411 246.751C373.496 264.582 360.566 279.086 343.98 289.866L343.861 289.977L343.765 289.948H320.079L246.277 323.579L258.712 337.4H258.711Z" fill="black"/>
<g opacity="0.6">
<path opacity="0.6" d="M189.136 74.9348V91.3664L182.496 92.2336V69.0294C236.874 -0.411999 341.013 -23.2809 403.335 36.2357C340.476 -15.7301 241.63 7.90423 189.136 74.9348Z" fill="white"/>
</g>
<g opacity="0.6">
<path opacity="0.6" d="M348.905 294.842L344.845 289.614C362.199 278.341 374.754 263.473 383.184 246.611C388.016 236.958 391.5 226.654 393.765 216.002C398.743 192.639 397.876 167.593 392.551 144.042C391.975 141.504 391.355 138.984 390.679 136.484L391.116 135.118L396.498 130.326C413.865 204.679 397.794 265.1 348.906 294.843L348.905 294.842Z" fill="white"/>
</g>
<path d="M354.865 304.627L352.329 308.544C351.925 309.171 351.475 309.765 351.002 310.323H350.996C347.948 313.867 343.482 315.956 338.745 315.893C327.286 315.747 318.608 312.797 310.904 305.93C309.045 304.277 306.432 303.758 304.111 304.671L257.967 322.729C255.955 323.514 255.425 326.115 256.968 327.621L262.299 332.844C263.551 334.072 263.196 336.18 261.603 336.927L260.3 337.528L258.996 338.135C256.378 339.356 253.367 339.439 250.685 338.37C233.862 331.628 220.08 320.426 210.012 303.792C209.872 303.577 209.746 303.355 209.613 303.14L161.025 132.274C160.747 110.436 164.947 89.9034 176.881 71.6241L190.099 67.0543L189.056 81.8206C188.815 85.2388 192.009 87.8646 195.311 86.9733L252.017 71.5675C254.06 71.0172 255.742 69.5741 256.601 67.6372L266.897 44.433L278.883 41.186L285.979 50.4714C284.246 57.3459 283.259 64.5232 283.259 71.7203C283.259 83.8537 286.067 96.0634 292.872 107.007C293.903 108.665 295.023 110.298 296.244 111.894C305.75 119.818 314.281 129.806 321.263 141.433L321.269 141.439C327.512 151.825 332.526 163.523 335.898 176.226C343.588 205.177 341.312 233.813 331.439 256.655V256.668C330.522 273.808 340.091 289.037 353.467 297.885C355.706 299.366 356.32 302.379 354.865 304.627Z" fill="white"/>
<path d="M254.571 339.43C253.212 339.43 251.852 339.175 250.57 338.664C233.209 331.708 219.473 320.03 209.743 303.955C209.658 303.825 209.573 303.682 209.488 303.54L209.312 303.225L160.708 132.319V132.277C160.401 108.211 165.605 88.3145 176.615 71.4501L176.674 71.3595L190.448 66.5987L189.37 81.8432C189.263 83.3684 189.876 84.7988 191.054 85.7679C192.232 86.7385 193.753 87.0667 195.227 86.6677L251.933 71.2619C253.891 70.7342 255.487 69.3661 256.312 67.5084L266.67 44.167L279.005 40.8252L286.323 50.4006L286.285 50.5492C284.487 57.6812 283.575 64.8047 283.575 71.7203C283.575 84.8171 286.794 96.6322 293.14 106.84C294.193 108.532 295.322 110.169 296.494 111.701C306.146 119.739 314.587 129.705 321.533 141.271C327.968 151.974 332.902 163.705 336.202 176.146C343.654 204.196 342.072 232.813 331.751 256.73C330.938 272.497 339.32 288.149 353.64 297.622C356.01 299.188 356.677 302.409 355.129 304.798L352.593 308.717C352.197 309.33 351.742 309.938 351.24 310.53L351.137 310.641C347.981 314.246 343.456 316.264 338.737 316.211C326.964 316.063 318.314 312.966 310.691 306.169C308.89 304.57 306.411 304.109 304.225 304.968L258.081 323.026C257.236 323.356 256.623 324.085 256.442 324.973C256.263 325.86 256.541 326.767 257.187 327.397L262.52 332.619C263.183 333.268 263.485 334.205 263.33 335.122C263.172 336.051 262.591 336.814 261.737 337.214L259.131 338.422C257.695 339.093 256.134 339.43 254.571 339.43V339.43ZM209.908 303.013L210.031 303.216C210.112 303.351 210.194 303.487 210.28 303.62C219.943 319.581 233.575 331.173 250.806 338.076C253.399 339.109 256.336 339.027 258.866 337.848L261.472 336.638C262.134 336.328 262.585 335.736 262.708 335.014C262.831 334.291 262.602 333.582 262.079 333.069L256.748 327.847C255.948 327.066 255.601 325.942 255.825 324.845C256.048 323.744 256.807 322.841 257.853 322.434L303.997 304.375C306.406 303.43 309.135 303.934 311.115 305.692C318.616 312.38 327.139 315.428 338.75 315.575C338.819 315.575 338.888 315.575 338.956 315.575C343.474 315.575 347.765 313.593 350.756 310.114L350.855 310.003C351.302 309.468 351.709 308.919 352.065 308.369L354.602 304.45C355.962 302.35 355.375 299.522 353.295 298.146C338.765 288.534 330.271 272.633 331.126 256.647L331.151 256.525C341.437 232.727 343.015 204.237 335.595 176.303C332.309 163.92 327.398 152.244 321.001 141.598C314.085 130.085 305.691 120.173 296.044 112.131C294.81 110.531 293.67 108.879 292.607 107.17C286.196 96.86 282.946 84.9317 282.946 71.7146C282.946 64.7948 283.852 57.6699 285.638 50.5378L278.763 41.5425L267.129 44.6947L256.893 67.7617C255.992 69.7947 254.244 71.2916 252.101 71.8689L195.395 87.2747C193.72 87.7288 191.993 87.3553 190.655 86.2532C189.318 85.151 188.621 83.5268 188.743 81.7951L189.752 67.5056L177.088 71.8844C166.196 88.6102 161.046 108.351 161.343 132.223L209.911 303.008L209.908 303.013Z" fill="black"/>
<g opacity="0.6">
<path opacity="0.6" d="M215.289 306.95C218.894 313.007 222.986 318.362 227.533 323.046C221.19 317.432 215.611 310.698 210.874 302.728L162.283 131.862C162.004 110.025 166.204 89.4917 178.139 71.2124L191.357 66.6426L190.94 72.5352L182.554 75.4342C170.619 93.7134 166.419 114.246 166.698 136.084L215.289 306.95Z" fill="white"/>
</g>
<g opacity="0.6">
<path opacity="0.6" d="M261.16 335.983C261.16 335.983 260.825 336.59 260.301 337.528L258.997 338.135C256.379 339.356 253.368 339.439 250.686 338.37C233.863 331.628 220.081 320.426 210.013 303.792L219.051 305.602C219.051 305.602 235.602 328.811 261.16 335.983V335.983Z" fill="white"/>
</g>
<g opacity="0.6">
<path opacity="0.6" d="M278.88 42.5298L282.309 47.0175L271.31 49.9985L261.014 73.2028C260.155 75.1396 258.472 76.5827 256.43 77.1331L199.724 92.5389C196.784 93.3369 193.924 91.3363 193.507 88.4685C194.089 88.5251 194.696 88.4812 195.309 88.3171L252.015 72.9113C254.058 72.361 255.74 70.9179 256.599 68.981L266.895 45.7768L278.88 42.5298V42.5298Z" fill="white"/>
</g>
<g opacity="0.3">
<path opacity="0.3" d="M354.864 304.627L352.328 308.545C351.924 309.171 351.474 309.765 351.001 310.323H350.995C350.546 310.259 332.117 307.539 320.656 293.574C320.656 293.574 312.649 287.301 301.474 295.606C301.474 295.606 276.79 309.671 258.328 310.101L258.676 308.328C258.707 308.322 258.745 308.31 258.778 308.303C303.746 296.34 327.804 239.987 312.517 182.446C308.141 165.976 301.02 151.19 292.019 138.759L292.196 137.867C292.196 137.867 310.277 157.228 321.264 141.431L321.27 141.436C327.512 151.822 332.527 163.52 335.898 176.223C343.589 205.175 341.313 233.81 331.44 256.652V256.665C330.522 273.805 340.091 289.034 353.468 297.883C355.707 299.364 356.32 302.376 354.866 304.624L354.864 304.627Z" fill="black"/>
</g>
<path d="M258.783 308.296C303.751 296.33 327.811 239.982 312.523 182.44C297.235 124.898 248.388 87.9511 203.421 99.9171C158.453 111.883 134.393 168.231 149.681 225.773C164.969 283.315 213.816 320.262 258.783 308.296Z" fill="white"/>
<path d="M241.6 310.859C201.88 310.859 162.735 276.175 149.368 225.856C141.958 197.958 143.482 169.466 153.66 145.631C163.85 121.769 181.493 105.426 203.337 99.6145C248.402 87.6268 297.517 124.747 312.823 182.366C320.233 210.265 318.709 238.756 308.531 262.591C298.341 286.454 280.698 302.796 258.854 308.608C253.144 310.127 247.363 310.857 241.6 310.857V310.859ZM220.598 97.9973C214.883 97.9973 209.161 98.7203 203.5 100.227C181.848 105.987 164.353 122.2 154.241 145.88C144.118 169.586 142.604 197.931 149.979 225.693C165.196 282.976 213.964 319.901 258.691 307.997C280.343 302.236 297.838 286.023 307.95 262.344C318.073 238.637 319.587 210.293 312.212 182.53C298.922 132.499 260.03 97.9973 220.598 97.9973V97.9973Z" fill="black"/>
<g opacity="0.3">
<path opacity="0.3" d="M258.775 308.303C245.55 311.822 231.991 311.108 219.05 306.879C228.878 308.664 238.922 308.391 248.776 305.771C293.744 293.809 317.807 237.456 302.521 179.914C291.732 139.291 264.213 108.928 233.142 98.8008C268.18 105.131 300.587 137.513 312.515 182.445C327.801 239.987 303.743 296.339 258.775 308.302V308.303Z" fill="black"/>
</g>
<g opacity="0.6">
<path opacity="0.6" d="M233.692 310.102C196.902 305.911 162.13 272.688 149.671 225.774C134.385 168.233 158.45 111.887 203.416 99.9245C213.738 97.177 224.262 97.0072 234.546 99.0756C226.203 98.1136 217.754 98.6512 209.437 100.867C164.471 112.836 140.406 169.181 155.692 226.723C167.475 271.068 199.185 303.184 233.692 310.102Z" fill="white"/>
</g>
<path d="M291.258 227.983C290.594 235.768 289.046 243.179 286.705 250.03C284.251 257.235 280.914 263.807 276.794 269.51C270.427 278.329 262.199 285.067 252.461 288.836C250.783 289.486 249.058 290.048 247.292 290.516C212.602 299.715 174.481 269.652 162.152 223.364C158.962 211.396 157.812 199.513 158.459 188.315C159.211 175.242 162.413 163.097 167.682 152.834C170.996 146.368 175.134 140.653 179.994 135.915C184.516 131.508 189.662 127.953 195.365 125.444C197.701 124.409 200.125 123.558 202.638 122.888C237.328 113.69 275.443 143.752 287.773 190.035C291.241 203.044 292.302 215.952 291.259 227.983H291.258Z" fill="#680A0A"/>
<path d="M237.817 296.82C204.793 296.82 171.791 266.567 160.211 222.968C156.876 210.419 155.548 197.768 156.261 185.367C157.057 171.513 160.471 158.342 166.137 147.276C169.717 140.27 174.157 134.153 179.334 129.092C184.275 124.263 189.824 120.473 195.826 117.826C198.32 116.718 200.946 115.791 203.632 115.075C240.75 105.203 281.673 137.535 294.852 187.147C298.481 200.8 299.736 214.498 298.58 227.859C297.876 236.142 296.236 244.103 293.707 251.525C291.069 259.293 287.496 266.334 283.09 272.451C276.126 282.126 267.1 289.314 256.985 293.239C255.182 293.941 253.315 294.549 251.436 295.047C246.934 296.244 242.373 296.821 237.815 296.821L237.817 296.82ZM217.26 113.931C212.754 113.931 208.247 114.501 203.795 115.685C201.142 116.393 198.546 117.308 196.082 118.403C190.147 121.02 184.661 124.77 179.775 129.545C174.648 134.556 170.248 140.62 166.7 147.565C161.075 158.552 157.684 171.636 156.893 185.404C156.184 197.738 157.505 210.323 160.823 222.807C173.913 272.086 214.488 304.219 251.276 294.436C253.133 293.943 254.976 293.342 256.757 292.649C266.756 288.768 275.685 281.656 282.578 272.08C286.948 266.014 290.492 259.029 293.11 251.321C295.622 243.948 297.251 236.037 297.952 227.806C299.101 214.516 297.853 200.892 294.242 187.31C282.738 144 249.997 113.934 217.262 113.934L217.26 113.931Z" fill="black"/>
<g opacity="0.3">
<path opacity="0.3" d="M261.569 131.964C246.649 122.362 229.852 118.69 213.75 122.976C176.739 132.824 157.399 180.96 170.559 230.482C176.662 253.472 188.698 272.72 203.542 285.759C184.163 273.308 167.948 250.864 160.517 222.888C147.362 173.365 166.701 125.229 203.713 115.381C223.547 110.108 244.43 116.9 261.569 131.964V131.964Z" fill="black"/>
</g>
<path d="M230.638 216.71C235.449 215.43 237.962 209.174 236.252 202.736C234.542 196.298 229.255 192.118 224.444 193.398C219.633 194.678 217.12 200.934 218.83 207.372C220.54 213.81 225.827 217.99 230.638 216.71Z" fill="black"/>
<path d="M258.843 226.647C258.378 226.647 257.909 226.52 257.488 226.251L224.646 205.339C224.047 204.957 223.636 204.34 223.513 203.639L212.89 143.002C212.648 141.624 213.569 140.313 214.946 140.071C216.323 139.835 217.633 140.751 217.875 142.128L228.303 201.666L260.205 221.979C261.384 222.729 261.731 224.296 260.981 225.474C260.499 226.232 259.68 226.647 258.845 226.647H258.843Z" fill="black"/>
<g opacity="0.3">
<path opacity="0.3" d="M265.083 223.849C264.618 223.849 264.149 223.721 263.728 223.452L230.886 202.539C230.287 202.157 229.876 201.54 229.753 200.84L219.13 140.202C218.888 138.824 219.809 137.513 221.186 137.271C222.557 137.029 223.873 137.95 224.113 139.328L234.544 198.866L266.443 219.18C267.622 219.93 267.97 221.496 267.219 222.674C266.737 223.433 265.919 223.847 265.082 223.847L265.083 223.849Z" fill="black"/>
</g>
<g opacity="0.25">
<path opacity="0.25" d="M282.834 272.265C276.042 281.701 267.263 288.911 256.872 292.943L156.577 185.384C157.38 171.396 160.795 158.401 166.418 147.419L282.833 272.263L282.834 272.265Z" fill="white"/>
</g>
<g opacity="0.25">
<path opacity="0.25" d="M298.266 227.831C297.558 236.161 295.907 244.091 293.409 251.421L179.555 129.318C184.38 124.603 189.871 120.798 195.955 118.114L298.266 227.831Z" fill="white"/>
</g>
<path d="M237.675 298.74C223.409 298.74 208.877 293.304 195.62 282.817C178.09 268.952 164.865 247.872 158.381 223.459C151.896 199.047 152.915 174.176 161.25 153.429C169.676 132.461 184.553 118.188 203.145 113.242C221.736 108.294 241.733 113.289 259.45 127.302C276.98 141.167 290.205 162.248 296.69 186.66C303.174 211.073 302.155 235.944 293.82 256.69C285.394 277.659 270.517 291.932 251.925 296.878C247.246 298.123 242.475 298.738 237.675 298.738V298.74ZM217.369 115.817C212.954 115.817 208.575 116.381 204.281 117.523C187.071 122.101 173.248 135.44 165.357 155.082C157.375 174.947 156.418 198.825 162.658 222.32C168.9 245.815 181.581 266.065 198.365 279.341C214.962 292.468 233.579 297.175 250.789 292.597C267.999 288.018 281.822 274.68 289.713 255.038C297.695 235.173 298.652 211.295 292.412 187.799C286.17 164.305 273.49 144.055 256.705 130.778C244.249 120.926 230.654 115.817 217.371 115.817H217.369Z" fill="black"/>
<path d="M241.623 313.072C200.91 313.072 160.858 277.735 147.228 226.426C139.69 198.051 141.253 169.049 151.625 144.761C162.089 120.258 180.252 103.466 202.769 97.4738C249.012 85.1693 299.343 122.998 314.963 181.798C322.501 210.173 320.939 239.175 310.567 263.463C300.102 287.966 281.939 304.758 259.422 310.75C253.531 312.317 247.567 313.072 241.624 313.072H241.623ZM220.622 100.209C215.088 100.209 209.549 100.909 204.068 102.368C183.088 107.949 166.115 123.711 156.277 146.75C146.347 170.004 144.87 197.837 152.118 225.124C167.021 281.227 214.575 317.44 258.122 305.856C279.102 300.275 296.075 284.512 305.913 261.474C315.842 238.22 317.32 210.386 310.072 183.101C297.045 134.059 259.062 100.21 220.622 100.21V100.209Z" fill="black"/>
<path d="M322.995 274.637C322.504 274.637 322.009 274.496 321.574 274.199C320.419 273.412 320.119 271.837 320.905 270.681C337.773 245.873 342.462 210.807 333.45 176.88C323.994 141.278 301.296 112.607 272.734 100.183C271.453 99.6259 270.865 98.1347 271.422 96.8529C271.979 95.5711 273.467 94.9825 274.75 95.54C304.717 108.575 328.488 138.496 338.339 175.58C347.723 210.907 342.769 247.525 325.087 273.531C324.598 274.251 323.802 274.639 322.993 274.639L322.995 274.637Z" fill="black"/>
<path d="M356.317 163.999C358.577 172.506 356.891 180.339 352.549 181.495C348.208 182.649 342.85 176.691 340.591 168.184C338.333 159.684 340.027 151.85 344.368 150.694C348.71 149.54 354.061 155.499 356.318 163.999H356.317Z" fill="white"/>
<path d="M351.436 181.955C349.531 181.955 347.484 180.823 345.553 178.674C343.26 176.123 341.389 172.426 340.285 168.265C339.18 164.107 338.97 159.97 339.695 156.618C340.434 153.192 342.066 150.979 344.287 150.389C346.505 149.8 349.018 150.91 351.359 153.516C353.649 156.065 355.518 159.761 356.622 163.92C357.728 168.082 357.94 172.221 357.218 175.572C356.48 178.998 354.851 181.21 352.63 181.802C352.24 181.905 351.841 181.956 351.436 181.956V181.955ZM345.478 150.866C345.128 150.866 344.783 150.91 344.448 150.999C342.469 151.525 341 153.568 340.313 156.75C339.609 160.007 339.817 164.038 340.895 168.101C341.975 172.168 343.796 175.772 346.024 178.251C348.2 180.671 350.49 181.717 352.468 181.188C354.447 180.661 355.914 178.62 356.6 175.438C357.301 172.181 357.092 168.149 356.012 164.081C354.932 160.017 353.112 156.415 350.889 153.937C349.083 151.927 347.199 150.867 345.48 150.867L345.478 150.866Z" fill="black"/>
<g opacity="0.3">
<path opacity="0.3" d="M356.316 163.999C358.577 172.506 356.89 180.339 352.549 181.495C348.207 182.649 342.849 176.691 340.59 168.184C338.333 159.684 340.026 151.85 344.368 150.694C348.709 149.54 354.06 155.499 356.318 163.999H356.316Z" fill="black"/>
</g>
<path d="M352.549 181.495L333.457 186.574C329.116 187.729 323.758 181.771 321.499 173.264C319.241 164.764 320.935 156.93 325.277 155.774L344.368 150.695C340.027 151.849 338.333 159.684 340.591 168.185C342.851 176.692 348.208 182.651 352.549 181.495Z" fill="white"/>
<path d="M332.344 187.035C330.44 187.035 328.393 185.904 326.461 183.755C324.168 181.204 322.297 177.507 321.193 173.346C320.089 169.188 319.878 165.051 320.603 161.699C321.344 158.273 322.974 156.06 325.195 155.47L344.287 150.391L344.449 151.003C342.47 151.53 341.001 153.573 340.314 156.754C339.61 160.011 339.818 164.042 340.897 168.105C341.977 172.173 343.797 175.776 346.025 178.255C348.198 180.673 350.484 181.719 352.462 181.194H352.469L352.632 181.804L333.54 186.884C333.15 186.987 332.751 187.038 332.347 187.038L332.344 187.035ZM342.162 151.607L325.356 156.08C323.377 156.606 321.908 158.649 321.221 161.831C320.517 165.088 320.725 169.118 321.803 173.182C322.883 177.249 324.704 180.853 326.932 183.332C329.108 185.752 331.397 186.795 333.376 186.269L350.18 181.796C348.649 181.416 347.066 180.358 345.553 178.674C343.26 176.123 341.389 172.426 340.284 168.265C339.18 164.107 338.97 159.97 339.695 156.619C340.173 154.406 341.022 152.7 342.162 151.609V151.607Z" fill="black"/>
<g opacity="0.3">
<path opacity="0.3" d="M352.549 181.492L333.456 186.574C329.408 187.651 324.475 182.536 321.995 174.934C323.703 176.288 325.492 176.871 327.131 176.434L342.069 172.458C344.726 178.592 348.975 182.44 352.549 181.491V181.492Z" fill="black"/>
</g>
<g opacity="0.6">
<path opacity="0.6" d="M344.364 150.693C341.758 151.389 340.107 154.491 339.696 158.7L324.113 162.839C322.545 163.257 321.318 164.554 320.501 166.434C320.386 160.908 322.145 156.604 325.276 155.775L344.364 150.693Z" fill="white"/>
</g>
<path d="M351.42 184.175C348.887 184.175 346.275 182.791 343.907 180.156C341.385 177.35 339.338 173.329 338.145 168.835C336.951 164.345 336.734 159.84 337.531 156.15C338.456 151.87 340.652 149.063 343.717 148.248C346.781 147.434 350.08 148.778 353.005 152.035C355.524 154.84 357.568 158.859 358.762 163.35C359.955 167.845 360.175 172.351 359.381 176.038C358.459 180.319 356.264 183.126 353.199 183.941C352.614 184.097 352.02 184.175 351.422 184.175H351.42ZM345.469 153.084C345.31 153.084 345.159 153.103 345.015 153.141C343.912 153.435 342.962 154.959 342.475 157.22C341.853 160.097 342.056 163.857 343.033 167.534C344.01 171.215 345.699 174.581 347.668 176.771C349.214 178.49 350.796 179.344 351.897 179.049C352.999 178.756 353.947 177.232 354.433 174.973C355.052 172.095 354.847 168.333 353.869 164.653C352.892 160.975 351.204 157.61 349.239 155.422C347.896 153.926 346.526 153.087 345.467 153.087L345.469 153.084Z" fill="black"/>
<path d="M332.33 189.254C329.796 189.254 327.183 187.87 324.815 185.236C322.293 182.429 320.246 178.408 319.053 173.914C317.86 169.424 317.642 164.919 318.438 161.229C319.363 156.949 321.56 154.143 324.624 153.328L343.709 148.25H343.716C345.063 147.888 346.452 148.693 346.811 150.044C347.17 151.396 346.365 152.783 345.015 153.141H345.013C343.911 153.437 342.963 154.962 342.475 157.22C341.853 160.097 342.057 163.857 343.033 167.534C344.01 171.215 345.7 174.581 347.669 176.771C349.214 178.49 350.796 179.344 351.897 179.049C353.244 178.689 354.633 179.493 354.992 180.846C355.351 182.197 354.548 183.583 353.196 183.943C353.196 183.943 353.195 183.943 353.194 183.943L334.105 189.022C333.519 189.177 332.927 189.255 332.329 189.255L332.33 189.254ZM337.803 155.059L325.925 158.22C324.822 158.514 323.872 160.038 323.385 162.299C322.763 165.177 322.966 168.936 323.943 172.613C324.92 176.294 326.609 179.66 328.578 181.85C330.124 183.57 331.704 184.422 332.807 184.128L344.685 180.967C344.423 180.711 344.164 180.441 343.907 180.157C341.385 177.35 339.338 173.329 338.145 168.835C336.952 164.345 336.734 159.84 337.531 156.15C337.612 155.775 337.702 155.413 337.803 155.061V155.059Z" fill="black"/>
<path d="M332.33 189.254C329.796 189.254 327.183 187.87 324.815 185.236C322.293 182.429 320.246 178.408 319.053 173.914C317.86 169.424 317.642 164.919 318.438 161.229C319.363 156.949 321.56 154.143 324.624 153.328L343.709 148.25H343.716C345.063 147.888 346.452 148.693 346.811 150.044C347.17 151.396 346.365 152.783 345.015 153.141H345.013C343.911 153.437 342.963 154.962 342.475 157.22C341.853 160.097 342.057 163.857 343.033 167.534C344.01 171.215 345.7 174.581 347.669 176.771C349.214 178.49 350.796 179.344 351.897 179.049C353.244 178.689 354.633 179.493 354.992 180.846C355.351 182.197 354.548 183.583 353.196 183.943C353.196 183.943 353.195 183.943 353.194 183.943L334.105 189.022C333.519 189.177 332.927 189.255 332.329 189.255L332.33 189.254ZM337.803 155.059L325.925 158.22C324.822 158.514 323.872 160.038 323.385 162.299C322.763 165.177 322.966 168.936 323.943 172.613C324.92 176.294 326.609 179.66 328.578 181.85C330.124 183.57 331.704 184.422 332.807 184.128L344.685 180.967C344.423 180.711 344.164 180.441 343.907 180.157C341.385 177.35 339.338 173.329 338.145 168.835C336.952 164.345 336.734 159.84 337.531 156.15C337.612 155.775 337.702 155.413 337.803 155.061V155.059Z" fill="black"/>
<path d="M254.572 341.644C252.932 341.644 251.291 341.335 249.746 340.717C231.692 333.486 217.46 321.278 207.444 304.433C206.73 303.232 207.123 301.678 208.325 300.963C209.525 300.248 211.077 300.641 211.793 301.844C221.226 317.71 234.628 329.208 251.626 336.017C253.652 336.828 255.951 336.764 257.93 335.842L260.532 334.629L255.199 329.434C253.858 328.121 253.28 326.239 253.655 324.399C254.029 322.56 255.296 321.053 257.042 320.369L303.19 302.311C306.384 301.062 309.983 301.725 312.584 304.044C319.661 310.35 327.737 313.223 338.774 313.361C338.831 313.361 338.886 313.361 338.942 313.361C343.494 313.361 347.696 311.056 350.205 307.172L352.737 303.253C353.441 302.165 353.143 300.704 352.074 299.996C336.888 289.95 328.013 273.295 328.911 256.532C328.986 255.136 330.177 254.063 331.573 254.14C332.968 254.215 334.038 255.407 333.963 256.804C333.16 271.781 341.17 286.714 354.863 295.773C358.236 298.004 359.189 302.594 356.985 306.002L354.453 309.921C350.961 315.324 345.062 318.502 338.71 318.423C326.368 318.268 317.272 314.999 309.22 307.823C308.048 306.779 306.444 306.475 305.032 307.025L258.884 325.084C258.736 325.143 258.644 325.251 258.611 325.408C258.58 325.565 258.621 325.7 258.736 325.812L264.067 331.031C265.25 332.19 265.79 333.858 265.511 335.491C265.233 337.124 264.17 338.517 262.668 339.216L260.067 340.429C258.335 341.236 256.454 341.641 254.572 341.641V341.644Z" fill="black"/>
<path d="M161.021 134.805C159.638 134.805 158.509 133.693 158.492 132.305C158.182 107.781 163.505 87.4798 174.763 70.2404C175.07 69.7707 175.524 69.4155 176.054 69.233L189.269 64.659C190.073 64.3802 190.961 64.5246 191.636 65.0424C192.31 65.5602 192.679 66.3822 192.619 67.2297L191.575 82.0016C191.518 82.7996 191.841 83.5494 192.458 84.0573C193.076 84.5653 193.872 84.7365 194.645 84.5271L251.351 69.1255C252.663 68.769 253.733 67.8508 254.286 66.6072L264.587 43.4058C264.897 42.7097 265.502 42.189 266.237 41.991L278.218 38.7426C279.209 38.4752 280.265 38.8303 280.888 39.6481L287.989 48.9348C288.459 49.5489 288.623 50.3426 288.433 51.0924C285.151 64.1228 282.062 89.1492 298.254 110.356C299.102 111.466 298.89 113.055 297.78 113.904C296.671 114.754 295.083 114.542 294.234 113.43C281.491 96.7439 277.603 74.6305 283.234 51.0486L277.901 44.075L268.721 46.5636L258.908 68.6657C257.735 71.3071 255.463 73.2567 252.675 74.0151L195.97 89.4166C193.63 90.0519 191.117 89.5114 189.245 87.9721C187.373 86.4314 186.357 84.0673 186.528 81.6465L187.303 70.7002L178.532 73.7363C168.16 89.9528 163.26 109.102 163.551 132.244C163.568 133.642 162.451 134.789 161.053 134.808H161.021V134.805Z" fill="black"/>
<path d="M189.449 78.7221C188.366 78.7221 187.364 78.0204 187.03 76.9282C186.622 75.5912 187.375 74.1764 188.711 73.7675L262.003 51.3711C263.338 50.9608 264.754 51.7149 265.162 53.0533C265.57 54.3903 264.817 55.8051 263.481 56.214L190.188 78.6104C189.942 78.6853 189.694 78.7221 189.449 78.7221V78.7221Z" fill="black"/>
<path d="M261.16 334.261C260.144 334.261 259.185 333.643 258.798 332.637C258.297 331.331 258.948 329.867 260.252 329.366L315.912 307.958C317.215 307.458 318.68 308.108 319.18 309.413C319.681 310.719 319.031 312.183 317.726 312.684L262.066 334.091C261.768 334.206 261.461 334.261 261.16 334.261V334.261Z" fill="black"/>
<path d="M314.071 354C293.125 354 273.03 349.33 257.715 340.319C256.51 339.61 256.109 338.058 256.816 336.853C257.524 335.648 259.075 335.246 260.279 335.955C284.098 349.97 320.208 352.932 352.274 343.494C377.265 336.141 411.785 317.998 434.313 273.318C444.414 253.286 450.173 231.279 451.427 207.906C458.801 70.5558 398.382 26.9289 361.711 13.1473C302.896 -8.9576 228.566 15.4067 184.971 71.075C184.108 72.1758 182.518 72.3682 181.42 71.5066C180.32 70.6435 180.127 69.0519 180.988 67.9511C225.911 10.5908 302.663 -14.4541 363.492 8.40771C393.328 19.62 417.544 41.8551 433.522 72.7091C451.699 107.81 459.424 153.388 456.481 208.178C455.189 232.254 449.25 254.937 438.831 275.599C415.486 321.896 379.652 340.715 353.702 348.351C340.811 352.144 327.272 353.999 314.071 353.999V354Z" fill="black"/>
<path d="M344.252 292.65C343.423 292.65 342.612 292.243 342.127 291.497C341.366 290.323 341.7 288.755 342.872 287.994C401.768 249.759 404.452 167.006 377.076 108.555C359.679 71.4089 326.114 36.3741 284.09 49.437C282.755 49.8501 281.339 49.1059 280.923 47.7704C280.509 46.4348 281.254 45.0157 282.588 44.6012C302.002 38.5657 321.872 41.9159 340.048 54.2912C356.571 65.5431 370.959 83.5621 381.658 106.404C396.209 137.473 401.999 173.887 397.545 206.308C392.391 243.821 374.437 273.536 345.626 292.24C345.2 292.516 344.724 292.647 344.252 292.647V292.65Z" fill="black"/>
<path d="M366.73 313.831C361.601 313.831 356.474 312.861 351.417 310.91C350.114 310.407 349.465 308.942 349.967 307.637C350.47 306.333 351.935 305.682 353.238 306.187C366.077 311.143 378.971 309.062 391.563 300.003C405.967 289.64 418.981 270.633 428.207 246.481C437.405 222.405 441.883 195.784 440.82 171.523C439.5 132.691 428.913 97.1002 410.204 68.5735C393.662 43.3504 371.411 25.4814 349.157 19.5435C323.057 12.5784 299.442 22.5471 284.362 46.886C283.625 48.0744 282.066 48.4408 280.879 47.7037C279.691 46.9666 279.325 45.4061 280.062 44.2176C296.398 17.8499 322.056 7.07336 350.459 14.6511C374.244 20.9965 396.963 39.1597 414.432 65.7948C433.65 95.0982 444.522 131.59 445.874 171.325C448.157 223.414 425.597 281.753 394.513 304.114C385.539 310.57 376.131 313.833 366.726 313.833L366.73 313.831Z" fill="black"/>
<path d="M446.839 116.19C446.783 116.165 446.63 116.088 446.409 115.975C444.392 114.957 436.246 110.728 433.406 109.246C432.793 108.929 432.427 108.74 432.427 108.74L389.724 133.666L392.134 144.09C391.919 144.085 391.71 144.065 391.495 144.039C384.721 143.134 377.385 131.886 377.998 122.759L383.95 118.993L425.135 92.921L428.057 91.0732L439.58 93.4473L439.921 93.5166C447.13 98.0935 449.135 105.828 446.839 116.189V116.19Z" fill="white"/>
<path d="M392.533 144.42L392.122 144.407C391.897 144.4 391.68 144.38 391.456 144.353C384.402 143.411 377.066 131.896 377.681 122.738L377.693 122.578L383.78 118.725L427.996 90.7378L440.091 93.2491C447.162 97.7368 449.537 105.479 447.15 116.257L447.065 116.636L446.711 116.477C446.652 116.45 446.495 116.373 446.266 116.254C444.26 115.241 436.148 111.032 433.262 109.525L432.437 109.099L390.086 133.82L392.536 144.418L392.533 144.42ZM378.303 122.94C377.8 131.795 384.801 142.825 391.537 143.725C391.602 143.732 391.665 143.739 391.729 143.746L389.363 133.509L432.418 108.378L433.551 108.965C436.438 110.47 444.547 114.679 446.552 115.691C446.574 115.702 446.595 115.713 446.617 115.723C448.826 105.324 446.594 98.1542 439.8 93.815L428.117 91.4084L378.303 122.94V122.94Z" fill="black"/>
<g opacity="0.6">
<path opacity="0.6" d="M390.775 138.217L392.135 144.092C391.92 144.086 391.711 144.066 391.496 144.041C384.721 143.135 377.386 131.887 377.999 122.76L382.402 119.976C382.18 126.654 386.05 134.325 390.775 138.217Z" fill="white"/>
</g>
<path d="M450.262 236.186L449.717 235.4L438.384 219.12L382.128 246.61L382.122 246.616C381.718 234.843 384.209 223.032 392.077 216.335L392.709 215.999L442.647 189.333L443.134 189.801L453.81 199.941L454.069 200.187C460.368 213.423 460.279 226.037 450.262 236.183V236.186Z" fill="white"/>
<path d="M381.836 247.323L381.805 246.627C381.331 232.865 384.907 222.022 391.87 216.094L392.56 215.721L442.701 188.947L443.354 189.575L454.355 200.053C461.267 214.576 459.966 226.808 450.487 236.408L450.22 236.678L438.28 219.524L382.311 246.873L381.837 247.323H381.836ZM442.593 189.722L392.224 216.616C385.548 222.308 382.055 232.784 382.421 246.115L438.488 218.719L450.302 235.69C459.32 226.353 460.5 214.476 453.808 200.38L442.592 189.724L442.593 189.722Z" fill="black"/>
<g opacity="0.6">
<path opacity="0.6" d="M443.54 190.189L400.09 213.388L399.458 213.723C391.806 220.237 389.237 231.579 389.478 243.022L382.129 246.611L382.124 246.617C381.719 234.844 384.21 223.034 392.079 216.336L392.711 216.001L442.649 189.334L443.136 189.803L443.54 190.189V190.189Z" fill="white"/>
</g>
<path d="M392.134 146.624C392.104 146.624 392.074 146.624 392.044 146.624C388.861 146.512 385.462 144.629 382.48 141.322C377.807 136.142 375.058 128.789 375.473 122.591C375.527 121.785 375.962 121.053 376.645 120.622L426.702 88.9385C427.257 88.5876 427.924 88.4673 428.564 88.5975L440.433 91.0423C440.733 91.1045 441.019 91.2191 441.277 91.3846C449.222 96.4242 451.924 104.954 449.307 116.739C449.142 117.484 448.65 118.115 447.968 118.454C447.287 118.795 446.488 118.809 445.794 118.495C445.166 118.211 436.601 113.767 432.496 111.633L392.607 134.911L394.599 143.523C394.776 144.29 394.588 145.096 394.087 145.705C393.605 146.289 392.888 146.626 392.135 146.626L392.134 146.624ZM380.495 124.174C380.595 128.757 382.809 134.13 386.236 137.927C387.016 138.792 387.819 139.521 388.612 140.092L387.258 134.233C387.008 133.153 387.491 132.035 388.448 131.476L431.151 106.556C431.9 106.117 432.822 106.094 433.591 106.496C437.132 108.337 441.907 110.813 444.953 112.385C445.977 104.716 443.997 99.3019 438.945 95.9049L428.546 93.7629L380.496 124.176L380.495 124.174Z" fill="black"/>
<path d="M382.611 249.636C382.158 249.636 381.707 249.514 381.307 249.275C380.572 248.834 380.111 248.049 380.081 247.191C379.729 236.967 381.324 223.065 390.926 214.894C391.064 214.777 391.214 214.675 391.374 214.589L441.943 187.59C442.904 187.078 444.085 187.238 444.875 187.987L456.297 198.84C456.522 199.054 456.706 199.309 456.84 199.587C464.091 214.826 462.607 228.267 452.548 238.456C452.02 238.991 451.282 239.268 450.532 239.199C449.783 239.135 449.102 238.741 448.672 238.124L438.031 222.834L383.72 249.379C383.368 249.551 382.989 249.636 382.611 249.636V249.636ZM394.005 218.924C388.5 223.745 385.401 232.217 385.12 243.06L437.76 217.333C438.881 216.784 440.232 217.137 440.946 218.161L450.996 232.602C457.557 224.397 458.056 214.181 452.471 202.185L442.715 192.917L394.003 218.924H394.005Z" fill="black"/>
<path d="M354.32 48.9857L362.943 41.1996C363.805 40.4205 365.137 40.489 365.916 41.3524L367.97 43.6308C368.748 44.4942 368.68 45.827 367.817 46.6061L359.195 54.3922C358.332 55.1713 357 55.1028 356.222 54.2394L354.168 51.961C353.389 51.0976 353.458 49.7648 354.32 48.9857Z" fill="black"/>
<path d="M387.618 69.8907L378.607 77.2224C377.705 77.9563 377.568 79.2831 378.301 80.1859L380.236 82.567C380.969 83.4698 382.295 83.6067 383.197 82.8728L392.208 75.541C393.11 74.8071 393.247 73.4803 392.514 72.5775L390.579 70.1964C389.846 69.2936 388.52 69.1567 387.618 69.8907Z" fill="black"/>
<path d="M408.307 143.053L418.979 138.469C420.047 138.01 421.285 138.505 421.743 139.574L422.953 142.394C423.411 143.463 422.917 144.702 421.849 145.161L411.177 149.745C410.109 150.204 408.871 149.709 408.412 148.64L407.203 145.82C406.744 144.751 407.239 143.512 408.307 143.053V143.053Z" fill="black"/>
<path d="M413.932 171.261L425.095 168.056C426.212 167.735 427.378 168.382 427.699 169.5L428.544 172.449C428.865 173.567 428.218 174.734 427.102 175.055L415.939 178.261C414.822 178.582 413.655 177.935 413.335 176.817L412.489 173.867C412.169 172.749 412.815 171.582 413.932 171.261Z" fill="black"/>
<path d="M247.487 297.823C246.471 297.823 245.555 297.117 245.327 296.083L242.466 283.027C242.204 281.831 242.959 280.65 244.154 280.388C245.348 280.126 246.527 280.882 246.79 282.078L249.652 295.133C249.913 296.329 249.158 297.51 247.964 297.772C247.804 297.807 247.644 297.824 247.487 297.824V297.823Z" fill="black"/>
<path d="M210.043 126.94C209.025 126.94 208.109 126.234 207.883 125.2L205.636 114.948C205.375 113.753 206.13 112.571 207.324 112.309C208.519 112.046 209.699 112.805 209.961 113.999L212.207 124.25C212.469 125.446 211.714 126.627 210.519 126.889C210.36 126.924 210.2 126.941 210.043 126.941V126.94Z" fill="black"/>
<path d="M282.213 192.728C281.234 192.728 280.339 192.073 280.076 191.081C279.762 189.899 280.465 188.686 281.646 188.371L293.981 185.088C295.163 184.77 296.374 185.478 296.69 186.66C297.003 187.843 296.301 189.055 295.119 189.371L282.784 192.653C282.594 192.704 282.403 192.728 282.215 192.728H282.213Z" fill="black"/>
<path d="M160.518 225.106C159.539 225.106 158.644 224.451 158.381 223.459C158.067 222.277 158.77 221.064 159.952 220.749L171.776 217.602C172.957 217.284 174.17 217.991 174.484 219.174C174.798 220.357 174.095 221.569 172.914 221.885L161.09 225.031C160.899 225.082 160.708 225.106 160.52 225.106H160.518Z" fill="black"/>
<g opacity="0.3">
<path opacity="0.3" d="M292.87 107.006C284.902 103.27 275.826 98.8025 275.826 98.8025C263.252 79.7818 278.881 41.1846 278.881 41.1846L285.977 50.4699C284.244 57.3445 283.257 64.5218 283.257 71.7189C283.257 83.8522 286.065 96.062 292.87 107.006V107.006Z" fill="black"/>
</g>
<g opacity="0.3">
<path opacity="0.3" d="M439.441 92.2334L439.124 92.2207L427.159 91.6448L383.418 117.584L383.405 117.578C364.533 69.2273 326.598 34.0666 284.383 46.0797L283.339 43.782C308.934 2.82205 369.459 5.26542 407.653 60.4456C415.767 62.4263 422.022 62.6612 418.961 54.161C418.923 54.0408 418.872 53.9205 418.828 53.7932L419.214 54.5147L438.365 90.2258L439.441 92.232V92.2334Z" fill="black"/>
</g>
<g opacity="0.3">
<path opacity="0.3" d="M450.262 236.186L449.718 235.4C446.796 248.749 442.261 261.719 436.083 273.972C405.726 334.179 349.994 353.63 305.09 350.749C303.16 350.002 302.104 349.591 302.104 349.591C332.481 345.774 355.798 336.608 355.647 309.676C415.73 324.931 438.384 219.12 438.384 219.12L437.658 212.557L438.505 196.942L442.932 192.093L443.134 189.821V189.803C447.542 161.028 436.62 120.305 433.407 109.247C432.87 107.399 432.547 106.379 432.547 106.379L429.227 95.6191H422.743L425.134 92.9225L427.752 89.9727L439.213 92.467C439.339 92.7895 439.459 93.1192 439.58 93.4474L439.921 93.5167C447.131 98.0936 449.135 105.828 446.84 116.189C446.783 116.164 446.63 116.087 446.41 115.974C452.229 139.772 454.967 167.648 453.809 199.941L454.068 200.187C460.367 213.423 460.278 226.037 450.261 236.183L450.262 236.186Z" fill="black"/>
</g>
<path d="M421.005 184.443C421.005 153.167 427.37 128.528 440.099 110.526C452.827 92.5236 472.83 83.5226 500.105 83.5226C527.381 83.5226 547.384 92.5236 560.112 110.526C573.023 128.528 579.478 153.167 579.478 184.443C579.478 216.083 573.114 240.904 560.385 258.906C547.656 276.908 527.563 285.909 500.105 285.909C472.648 285.909 452.555 276.908 439.826 258.906C427.279 240.904 421.005 216.083 421.005 184.443ZM526.563 184.443C526.563 168.078 524.836 155.622 521.381 147.075C517.926 138.347 510.834 133.983 500.105 133.983C489.377 133.983 482.285 138.347 478.83 147.075C475.375 155.622 473.648 168.078 473.648 184.443C473.648 201.172 475.284 213.901 478.558 222.629C482.012 231.176 489.195 235.449 500.105 235.449C511.016 235.449 518.108 231.176 521.381 222.629C524.836 213.901 526.563 201.172 526.563 184.443Z" fill="black"/>
</svg>
